<svg xmlns="http://www.w3.org/2000/svg" xmlns:xlink="http://www.w3.org/1999/xlink" width="210" height="40.324" viewBox="0 0 210 40.324">
  <defs>
    <linearGradient id="linear-gradient" x1="0.5" x2="0.5" y2="1" gradientUnits="objectBoundingBox">
      <stop offset="0" stop-color="#25cede"/>
      <stop offset="0.894" stop-color="#04a9ec"/>
      <stop offset="1" stop-color="#00a5ee"/>
    </linearGradient>
  </defs>
  <g id="Group_432" data-name="Group 432" transform="translate(-31.596 -35.09)">
    <g id="Group_431" data-name="Group 431" transform="translate(107.395 44.13)">
      <path id="Path_423" data-name="Path 423" d="M373.551,110.394a3.919,3.919,0,0,1-1.6,3.37,6.847,6.847,0,0,1-4.143,1.169,11.336,11.336,0,0,1-3.147-.431,13.372,13.372,0,0,1-2.6-1.014l.309-1.581a13.514,13.514,0,0,0,2.562,1.117,9.759,9.759,0,0,0,3.043.464,4.989,4.989,0,0,0,2.906-.756,2.519,2.519,0,0,0,1.083-2.2,2.915,2.915,0,0,0-.206-1.118,2.32,2.32,0,0,0-.723-.911,5.778,5.778,0,0,0-1.375-.773,16.6,16.6,0,0,0-2.166-.7,9.732,9.732,0,0,1-3.764-1.7,3.569,3.569,0,0,1-1.186-2.871,3.931,3.931,0,0,1,.378-1.72,3.867,3.867,0,0,1,1.083-1.358,5.107,5.107,0,0,1,1.685-.876,7.23,7.23,0,0,1,2.183-.31,10.134,10.134,0,0,1,2.562.31,11.99,11.99,0,0,1,2.182.79l-.275,1.547a9.837,9.837,0,0,0-4.538-1.169,4.11,4.11,0,0,0-2.8.791,2.462,2.462,0,0,0-.876,1.89,2.185,2.185,0,0,0,.842,1.8,8.788,8.788,0,0,0,3.008,1.255,12.008,12.008,0,0,1,4.161,1.857A3.737,3.737,0,0,1,373.551,110.394Z" transform="translate(-362.068 -92.757)" fill="#636569"/>
      <rect id="Rectangle_205" data-name="Rectangle 205" width="1.581" height="16.159" transform="translate(16.365 5.742)" fill="#636569"/>
      <path id="Path_424" data-name="Path 424" d="M467.113,96.469,467.1,74.587h1.582l.009,21.882Z" transform="translate(-443.013 -74.568)" fill="#636569"/>
      <path id="Path_425" data-name="Path 425" d="M510.7,96.469V85.226a4.111,4.111,0,0,0-.859-2.819,3.326,3.326,0,0,0-2.613-.963,5.8,5.8,0,0,0-2.733.74,14.147,14.147,0,0,0-2.94,2.182v12.1h-1.616l-.009-21.882h1.616l.009,8.13a16.223,16.223,0,0,1,2.854-2.012,6.223,6.223,0,0,1,2.991-.739,4.78,4.78,0,0,1,3.713,1.324,5.352,5.352,0,0,1,1.2,3.73V96.469Z" transform="translate(-468.309 -74.568)" fill="#636569"/>
      <path id="Path_426" data-name="Path 426" d="M587.534,106.462a10.394,10.394,0,0,1-.568,3.558,8.076,8.076,0,0,1-1.53,2.647,6.456,6.456,0,0,1-2.269,1.651,6.924,6.924,0,0,1-2.785.566,7,7,0,0,1-2.819-.566,6.284,6.284,0,0,1-2.252-1.651,8.016,8.016,0,0,1-1.5-2.647,10.69,10.69,0,0,1-.55-3.558,10.5,10.5,0,0,1,.567-3.592,7.876,7.876,0,0,1,1.53-2.631,6.574,6.574,0,0,1,2.252-1.633,6.794,6.794,0,0,1,2.768-.567,7.006,7.006,0,0,1,2.819.567,6.531,6.531,0,0,1,2.269,1.633,7.658,7.658,0,0,1,1.513,2.631A10.817,10.817,0,0,1,587.534,106.462Zm-1.685,0a10.353,10.353,0,0,0-.362-2.8,6.737,6.737,0,0,0-1.048-2.217,4.929,4.929,0,0,0-1.719-1.461,5.436,5.436,0,0,0-4.658-.018,4.815,4.815,0,0,0-1.7,1.445,6.741,6.741,0,0,0-1.048,2.217,10.513,10.513,0,0,0-.361,2.837,10.374,10.374,0,0,0,.361,2.8,6.739,6.739,0,0,0,1.048,2.217,4.97,4.97,0,0,0,1.7,1.462,4.906,4.906,0,0,0,2.321.533,5.311,5.311,0,0,0,2.338-.5,4.61,4.61,0,0,0,1.719-1.427,6.757,6.757,0,0,0,1.048-2.218A10.627,10.627,0,0,0,585.85,106.462Z" transform="translate(-524.824 -92.64)" fill="#636569"/>
      <path id="Path_427" data-name="Path 427" d="M665.6,115.7v-2.441a15.035,15.035,0,0,1-2.87,2.045,6.322,6.322,0,0,1-3.009.739,4.746,4.746,0,0,1-3.713-1.34,5.466,5.466,0,0,1-1.2-3.782V99.539h1.616v11.242a4.106,4.106,0,0,0,.86,2.82,3.325,3.325,0,0,0,2.613.962,5.806,5.806,0,0,0,2.734-.739,14.138,14.138,0,0,0,2.939-2.184v-12.1h1.616V115.7Z" transform="translate(-587.664 -93.797)" fill="#636569"/>
      <path id="Path_428" data-name="Path 428" d="M742.07,106.462H730.656a10.509,10.509,0,0,0,.361,2.836,6.718,6.718,0,0,0,1.049,2.218,4.7,4.7,0,0,0,1.737,1.444,5.332,5.332,0,0,0,2.389.516,6.846,6.846,0,0,0,2.939-.688A10.639,10.639,0,0,0,741.795,111l.241,1.512a9.948,9.948,0,0,1-2.63,1.686,7.935,7.935,0,0,1-3.284.687,7.113,7.113,0,0,1-2.905-.584,6.243,6.243,0,0,1-2.251-1.668,7.715,7.715,0,0,1-1.444-2.648,12.183,12.183,0,0,1,0-7.014,7.921,7.921,0,0,1,1.444-2.664,6.316,6.316,0,0,1,2.183-1.684,6.4,6.4,0,0,1,2.733-.585,5.593,5.593,0,0,1,2.716.636,5.65,5.65,0,0,1,1.943,1.736,7.819,7.819,0,0,1,1.151,2.561,12.522,12.522,0,0,1,.378,3.146Zm-2.063-3.576a6.09,6.09,0,0,0-.878-1.822,4.16,4.16,0,0,0-1.374-1.237,3.816,3.816,0,0,0-1.874-.447,4.357,4.357,0,0,0-3.592,1.6,7.775,7.775,0,0,0-1.565,4.143h9.626A8.606,8.606,0,0,0,740.008,102.886Z" transform="translate(-644.842 -92.64)" fill="#636569"/>
      <path id="Path_429" data-name="Path 429" d="M903.26,106.462H891.846a10.494,10.494,0,0,0,.361,2.836,6.735,6.735,0,0,0,1.048,2.218,4.712,4.712,0,0,0,1.737,1.444,5.337,5.337,0,0,0,2.39.516,6.848,6.848,0,0,0,2.94-.688A10.669,10.669,0,0,0,902.985,111l.241,1.512a9.947,9.947,0,0,1-2.631,1.686,7.927,7.927,0,0,1-3.282.687,7.113,7.113,0,0,1-2.905-.584,6.235,6.235,0,0,1-2.252-1.668,7.7,7.7,0,0,1-1.444-2.648,12.178,12.178,0,0,1,0-7.014,7.909,7.909,0,0,1,1.444-2.664,6.311,6.311,0,0,1,2.183-1.684,6.394,6.394,0,0,1,2.733-.585,5.46,5.46,0,0,1,4.658,2.372,7.822,7.822,0,0,1,1.152,2.561,12.545,12.545,0,0,1,.378,3.146Zm-2.063-3.576a6.111,6.111,0,0,0-.876-1.822,4.17,4.17,0,0,0-1.375-1.237,3.816,3.816,0,0,0-1.874-.447,4.356,4.356,0,0,0-3.592,1.6,7.775,7.775,0,0,0-1.565,4.143h9.627A8.605,8.605,0,0,0,901.2,102.886Z" transform="translate(-769.06 -92.64)" fill="#636569"/>
      <path id="Path_430" data-name="Path 430" d="M433.588,74.931a1.16,1.16,0,0,0-.851-.344,1.21,1.21,0,0,0-.867.344,1.132,1.132,0,0,0-.359.852,1.194,1.194,0,0,0,.359.852,1.156,1.156,0,0,0,.867.374,1.109,1.109,0,0,0,.851-.374,1.224,1.224,0,0,0,.344-.852A1.159,1.159,0,0,0,433.588,74.931Z" transform="translate(-415.583 -74.568)" fill="#636569"/>
      <path id="Path_431" data-name="Path 431" d="M810.874,95.185a4.946,4.946,0,0,1-.859.086,2.828,2.828,0,0,1-1.942-.55,2.64,2.64,0,0,1-.6-1.994V81.622h4.4V80.247h-4.4V74.524l-1.616-.019V93a3.429,3.429,0,0,0,1.049,2.854,4.348,4.348,0,0,0,2.767.825,7.581,7.581,0,0,0,1.289-.1,4.037,4.037,0,0,0,.911-.241l-.24-1.306Q811.356,95.1,810.874,95.185Z" transform="translate(-704.065 -74.505)" fill="#636569"/>
      <path id="Path_432" data-name="Path 432" d="M856.441,95.185a4.945,4.945,0,0,1-.859.086,2.828,2.828,0,0,1-1.942-.55,2.64,2.64,0,0,1-.6-1.994V81.622h4.4V80.247h-4.4V74.524l-1.616-.019V93a3.428,3.428,0,0,0,1.049,2.854,4.348,4.348,0,0,0,2.767.825,7.585,7.585,0,0,0,1.29-.1,4.036,4.036,0,0,0,.911-.241l-.24-1.306Q856.923,95.1,856.441,95.185Z" transform="translate(-739.18 -74.505)" fill="#636569"/>
    </g>
    <path id="Path_433" data-name="Path 433" d="M44.948,46.866l.068.068c.044-.044.022-.068-.068-.068a.137.137,0,0,1,.034-.1.138.138,0,0,0,.034-.1.646.646,0,0,1,.271.542.7.7,0,0,1,.745.406.876.876,0,0,0,.812.474,1.819,1.819,0,0,0,.136.88,11.914,11.914,0,0,1-.948,3.283,16.291,16.291,0,0,0-1.083,3.215.179.179,0,0,0-.2.2c0,.135-.068.181-.2.135v-.406a.588.588,0,0,0-.169.3c-.023.113-.1.147-.237.1,0-.135-.079-.18-.237-.135a1.446,1.446,0,0,1-.372.068.228.228,0,0,0-.1-.2c-.068-.044-.125-.022-.169.067a1.694,1.694,0,0,0-.711-.609,1.039,1.039,0,0,1-.575-.744c-.091-.044-.147-.011-.169.1s-.079.125-.169.034a1.737,1.737,0,0,1,.034-1.387,5.977,5.977,0,0,0,.44-1.252c-.091-.09-.159-.068-.2.068a2.764,2.764,0,0,1-.136.338l-.677.812a2.335,2.335,0,0,0-.474.948.607.607,0,0,0-.406.406c-.135-.18-.1-.338.1-.474s.214-.271.034-.406l-.541.948a3.972,3.972,0,0,0-.406,1.015q.2,0,.169-.2c-.023-.136.056-.18.237-.136a2.272,2.272,0,0,0-.406.846,1.048,1.048,0,0,1-.542.711,1.24,1.24,0,0,1,.271-.575,1.241,1.241,0,0,0,.271-.575.616.616,0,0,0-.339.338,3.717,3.717,0,0,1-.2.474,2.26,2.26,0,0,0-.575,1.049,2.766,2.766,0,0,1-.575,1.117v.338a.647.647,0,0,0-.271.372,2.959,2.959,0,0,1-.2.508.75.75,0,0,0,.474-.88,1.845,1.845,0,0,0,.609-1.049,1.678,1.678,0,0,1,.541-.981,20.6,20.6,0,0,1-1.117,2.606q-.644,1.253-1.185,2.572a19.827,19.827,0,0,0-.914,2.843,10.737,10.737,0,0,0-.237,3.35.343.343,0,0,0,.406-.135c.09,0,.09.045,0,.135a11.956,11.956,0,0,0,3.079-1.184,21.092,21.092,0,0,0,2.572-1.692q1.184-.914,2.3-1.929a22.27,22.27,0,0,1,2.4-1.9q.744-.676,1.455-1.354a9.613,9.613,0,0,1,1.591-1.218c0,.135.022.181.068.135a1.715,1.715,0,0,1-.711.778,1.441,1.441,0,0,0-.643.914c-.045,0-.068-.068-.068-.2a2.468,2.468,0,0,0-.372.3.688.688,0,0,0-.169.508q-.271-.2-.406.339a.134.134,0,0,1-.1-.034.142.142,0,0,0-.1-.034,1.037,1.037,0,0,1-.034.3c-.023.068.011.125.1.169.136-.044.169-.1.1-.169s-.057-.146.034-.237a.644.644,0,0,0,.338.034,2.618,2.618,0,0,1,.271-.1,1.27,1.27,0,0,0-.068.406c-.091.045-.125.034-.1-.034s.01-.1-.034-.1c-.091.091-.091.271,0,.541a1.348,1.348,0,0,0,.44-.338q.168-.2.3-.406.2.271.271,0c.044-.18.135-.2.271-.068.044-.09.044-.135,0-.135s-.045-.044,0-.135a2.414,2.414,0,0,0,.372-.3.976.976,0,0,0,.237-.508q.135.136.2-.034t.338-.1a.828.828,0,0,1-.44.474.66.66,0,0,0-.372.542,3.046,3.046,0,0,1,.44-.338,1.149,1.149,0,0,0,.44-.542q.135.2.3-.1a.9.9,0,0,1,.3-.372q-.34-.067-.609.406c-.091-.044-.113-.135-.068-.271a1.128,1.128,0,0,0,.068-.338q.2.271.474-.169a.983.983,0,0,1,.609-.508.853.853,0,0,1-.2.338.853.853,0,0,0-.2.406,3.3,3.3,0,0,0,.948-.745,3.309,3.309,0,0,1,.948-.744.312.312,0,0,1-.2.338q-.2.068-.135.339a1.54,1.54,0,0,0-.677.44,4.929,4.929,0,0,1-.609.575.928.928,0,0,1-.068.609c-.091-.225-.169-.237-.237-.034s-.147.215-.237.034q-.136.068-.169.406a.464.464,0,0,0,.169.474,1.216,1.216,0,0,1-.338.339.7.7,0,0,0-.271.474.309.309,0,0,0-.338-.068c.044-.18.135-.281.271-.3s.2-.124.2-.3a.157.157,0,0,0,.169-.1c.022-.068-.012-.124-.1-.169-.045,0-.068.091-.068.271q-.339,0-.372.2a.326.326,0,0,1-.237.271.4.4,0,0,0-.068-.271c-.135.045-.158.2-.068.474q-.2.137-.508.372a1.321,1.321,0,0,0-.44.643c-.046.046-.068-.044-.068-.271-.091.046-.135.159-.135.339.044.091.09.1.135.034s.068-.034.068.1a.272.272,0,0,0-.135.271.761.761,0,0,1-.068.338c-.091-.044-.147-.044-.169,0s-.079.067-.169.067c0-.044-.011-.067-.034-.067s-.034.023-.034.067h-.068a.491.491,0,0,0-.3.339,1.057,1.057,0,0,1-.169.406c-.091.045-.113.034-.068-.034a.123.123,0,0,0,0-.169.509.509,0,0,0-.3.3,2.724,2.724,0,0,1-.237.44c-.271-.09-.406,0-.406.271-.091,0-.135-.034-.135-.1s-.045-.124-.135-.169a.73.73,0,0,1-.068.677.06.06,0,0,1-.068-.068v-.068a1.817,1.817,0,0,0-.1.237,2.047,2.047,0,0,1-.1.237c.09.091.157.079.2-.034s.112-.169.2-.169q-.068.271-.474.406c0-.044-.045-.112-.135-.2a.134.134,0,0,0-.068.2q.067.136.2,0a2.659,2.659,0,0,1-1.083.948.708.708,0,0,1,.474-.44.343.343,0,0,0,.271-.44c-.046-.044-.147-.034-.3.034s-.192.147-.1.237q-.543.339-.981.643a2.824,2.824,0,0,0-.778.846q.2.068.2-.1t.2-.1a5.35,5.35,0,0,1-1.658,1.218q-.982.474-1.929,1.015c-.091-.09-.2-.078-.338.034a.718.718,0,0,1-.474.169,1.927,1.927,0,0,0-.406.339A1.275,1.275,0,0,0,37.6,71.1q-.373.068-.711.136a.585.585,0,0,1-.406-.2,2.981,2.981,0,0,1-1.015-.169q-.473-.169-.948-.3c-.044-.09-.09-.136-.135-.136s-.09-.044-.136-.135A4.38,4.38,0,0,1,32.292,69.1a2.447,2.447,0,0,1-.677-2.064,28.594,28.594,0,0,1,.677-3.553,19.372,19.372,0,0,1,1.083-3.012q1.152-2.706,2.4-5.212a25.7,25.7,0,0,1,2.741-4.4c.09-.044.136-.044.136,0a.059.059,0,0,0,.067.068q1.082-1.421,2.3-2.809a5.394,5.394,0,0,1,3.316-1.726.42.42,0,0,0,.237.2c.112.045.169.158.169.338a.137.137,0,0,0,.1-.034A.139.139,0,0,1,44.948,46.866ZM35.2,66.731c0-.068-.044-.1-.135-.1,0,.181.023.271.068.271A.227.227,0,0,0,35.2,66.731Zm-.068.3c0-.135-.022-.135-.068,0C35.112,67.171,35.135,67.171,35.135,67.035Zm.2-2.267a4.344,4.344,0,0,0-.135,1.117.594.594,0,0,1-.068.271c-.044.091-.022.135.068.135v-.474a6,6,0,0,0,.3-1.218,6.022,6.022,0,0,1,.3-1.218c.044-.044.022-.112-.068-.2a.731.731,0,0,1-.2.541A7.916,7.916,0,0,1,35.338,64.768Zm.2,2.809c0-.09-.012-.068-.034.068S35.5,67.758,35.54,67.577Zm.2.135c.09.046.1.1.034.169a.325.325,0,0,1-.237.1c-.045-.136-.034-.192.034-.17S35.7,67.8,35.744,67.712Zm-.136-.406c.044-.136.068-.146.068-.034S35.653,67.4,35.608,67.306Zm.136-.812c.09,0,.112.034.068.1s-.045.125,0,.169a.155.155,0,0,1-.169-.1C35.619,66.6,35.653,66.539,35.744,66.494Zm-.068.474c.09-.044.136-.011.136.1s-.045.147-.136.1Zm.136-.948c.044,0,.067.068.067.2s-.045.181-.135.135c-.046-.09-.046-.146,0-.169S35.811,66.111,35.811,66.02Zm0-.745c.09-.135.135-.146.135-.034S35.9,65.366,35.811,65.276Zm.2-2.978q-.068.271,0,.034C36.059,62.174,36.059,62.162,36.014,62.3Zm.372-.508c.068-.068.056-.124-.034-.169a.366.366,0,0,1-.135.169c-.045.023-.045.079,0,.169Zm.034,1.32a.206.206,0,0,1,0,.3.274.274,0,0,0-.068.3.261.261,0,0,1-.068-.3Q36.352,63.246,36.421,63.11Zm0-1.827a.133.133,0,0,0,.2-.068c.044-.09.022-.136-.068-.136,0,.091-.023.125-.068.1S36.421,61.192,36.421,61.282Zm.2,1.015c.135-.044.18.012.135.169s-.113.215-.2.169a.266.266,0,0,1,.034-.169A.268.268,0,0,0,36.624,62.3Zm.88-1.9a6.992,6.992,0,0,0-.271.88,1.451,1.451,0,0,1-.474.812A5.107,5.107,0,0,1,37.5,60.4Zm-.677.2h.068v-.2A.275.275,0,0,0,36.827,60.605Zm.068-5.414c.044.135.068.147.068.034S36.939,55.1,36.894,55.191Zm.135,4.873v.068c-.091.046-.1.1-.034.169s.078.012.034-.169v-.068H37.1A.109.109,0,0,0,37.2,60c.022-.044-.012-.068-.1-.068A.2.2,0,0,0,37.03,60.064Zm.542-5.956v-.135a.109.109,0,0,1-.068.1C37.458,54.1,37.48,54.108,37.571,54.108Zm.135,5.685a.188.188,0,0,1,.034.271,1.789,1.789,0,0,0-.169.271.168.168,0,0,1,0-.271A.389.389,0,0,0,37.706,59.793Zm.2-6.362a.109.109,0,0,1,.068-.1c.044-.022.022-.034-.068-.034a.108.108,0,0,1-.068.1C37.8,53.421,37.819,53.431,37.909,53.431Zm.2,5.753a1.04,1.04,0,0,1-.135.406c-.091-.044-.1-.112-.034-.2A2.016,2.016,0,0,1,38.112,59.184Zm.271-7.716h-.068a.787.787,0,0,1-.136.2c-.045.046-.045.113,0,.2h-.068q-.136.137,0,.2a.136.136,0,0,1,.034-.1.138.138,0,0,0,.034-.1.779.779,0,0,1,.136-.2.277.277,0,0,0,.068-.2h.068a.324.324,0,0,1,.1-.237c.068-.068.056-.124-.034-.169a.276.276,0,0,1-.068.2A.275.275,0,0,0,38.383,51.468Zm-.271,7.716a.276.276,0,0,1,.068-.2v.2Zm.2-2.5v.068c-.136.181-.125.2.034.068S38.5,56.635,38.316,56.68Zm0,1.9c.044.181.034.237-.034.17S38.225,58.621,38.316,58.575Zm0,0,.068-.068A.06.06,0,0,1,38.316,58.575Zm.068-.068a.06.06,0,0,1,.068-.067C38.5,58.44,38.473,58.463,38.383,58.507Zm.474-8.19a.188.188,0,0,1,.034.271.66.66,0,0,1-.237.2.228.228,0,0,1,.1-.2A.3.3,0,0,0,38.857,50.318Zm.271,5.076c.044,0,.078-.044.1-.136s-.012-.135-.1-.135a.2.2,0,0,0-.068.135C39.06,55.35,39.082,55.394,39.128,55.394Zm.338-4.7c0-.112-.023-.1-.068.034C39.443,50.815,39.466,50.8,39.466,50.69Zm.406-.372v-.135q-.137-.135-.2,0C39.624,50.273,39.691,50.318,39.872,50.318ZM39.8,55.055c0-.044-.012-.068-.034-.068s-.034-.022-.034-.068a.764.764,0,0,1,.169-.3.9.9,0,0,0,.169-.237c.09.091.078.193-.034.3a.517.517,0,0,0-.169.372Zm.508-4.535c.068.046.1,0,.1-.135C40.279,50.431,40.245,50.476,40.312,50.521Zm.1-1.286c-.091,0-.135.023-.135.068C40.368,49.3,40.414,49.28,40.414,49.235Zm.2,4.061c-.091,0-.1.023-.034.068s.078.023.034-.068c.09-.044.124-.09.1-.135a.11.11,0,0,1,.034-.136C40.617,53.025,40.571,53.116,40.617,53.3Zm.271,16.312c-.091,0-.135.023-.135.068C40.842,69.675,40.888,69.653,40.888,69.607ZM41.023,53.5c0-.09-.012-.056-.034.1S40.977,53.725,41.023,53.5Zm.135-1.015q.135-.135.3-.339c.112-.135.146-.247.1-.338-.045.181-.135.282-.271.3S41.113,52.258,41.158,52.484Zm.677-.948c-.091,0-.113.011-.068.034s.068.012.068-.034H41.9v-.2A.274.274,0,0,0,41.835,51.536Zm0-3.384a.06.06,0,0,0,.068-.068C41.812,48.13,41.79,48.152,41.835,48.152Zm.474,20.779a.457.457,0,0,1,.136-.339c-.091,0-.159.057-.2.169S42.218,68.931,42.309,68.931Zm.339-.237q.135-.168-.135-.1C42.512,68.773,42.556,68.807,42.647,68.694ZM42.58,47.272c.044.136.068.147.068.034S42.624,47.182,42.58,47.272Zm1.286,20.711a.5.5,0,0,1-.169.2,1.669,1.669,0,0,0-.237.2c-.091,0-.136-.112-.136-.338a.726.726,0,0,0,.237-.034A1.041,1.041,0,0,1,43.865,67.983Zm.068-.2h.135v.135h-.135Zm1.354-4.467c.044.136.068.147.068.034S45.331,63.223,45.287,63.313Zm.338-.2c0-.044.044-.09.135-.135s.09-.09,0-.135a.159.159,0,0,1-.135.169Q45.489,63.043,45.625,63.11Zm-.068-10.355c.044.136.068.147.068.034S45.6,52.665,45.558,52.754Zm.271-.609c-.091,0-.1.023-.034.068s.078.023.034-.068a1.166,1.166,0,0,0,.237-.372A.45.45,0,0,0,46.1,51.4,1.371,1.371,0,0,0,45.828,52.145Zm.237,13.909q-.1-.1.1-.1Q46.167,66.155,46.065,66.054Zm.034-2.437c0-.112-.023-.1-.067.034C46.076,63.742,46.1,63.731,46.1,63.617Zm0-1.252a.16.16,0,0,0,.169-.135.3.3,0,0,1,.169-.2V62.3c.044,0,.135-.068.271-.2-.091,0-.136-.034-.136-.1s-.045-.1-.135-.1l-.2.2A.719.719,0,0,0,46.1,62.365Zm.271-11.709a1.758,1.758,0,0,1-.169.271.242.242,0,0,0-.034.271.893.893,0,0,1,.169-.237.282.282,0,0,0,.034-.3c.09-.09.1-.169.034-.237S46.324,50.431,46.37,50.656Zm-.2,15.3a.977.977,0,0,1,.3-.3.989.989,0,0,0,.3-.3q.067.137-.2.3A2.366,2.366,0,0,0,46.167,65.952Zm.068-3.52q-.137.2.1.136T46.235,62.433Zm.271-12.115a.509.509,0,0,1,.135-.3.205.205,0,0,0,0-.3.46.46,0,0,1-.135.338A.168.168,0,0,0,46.505,50.318Zm.068-1.963c-.045.091-.034.113.034.068s.056-.068-.034-.068c-.045-.09-.068-.112-.068-.068A.06.06,0,0,0,46.573,48.355Zm.068,14.416c.044,0,.1-.056.169-.169s.034-.17-.1-.17a.227.227,0,0,1-.1.2C46.539,62.681,46.55,62.727,46.641,62.771Zm0-13.672c.044.091.068.079.068-.034S46.685,48.964,46.641,49.1Zm.068,14.078a.2.2,0,0,0,.067-.136c0-.044-.045-.068-.135-.068C46.641,63.11,46.663,63.178,46.708,63.178Zm0,1.015c-.046.091-.046.135,0,.135s.067.045.067.135a1.324,1.324,0,0,0,.474-.338c-.091,0-.125-.034-.1-.1s-.012-.1-.1-.1c.044.226.022.3-.068.237A.188.188,0,0,0,46.708,64.193Zm0-14.755c.044.091.067.079.067-.034S46.753,49.3,46.708,49.438Zm.2-.948q.067-.135.2,0a.194.194,0,0,0-.068.135c-.045,0-.057-.022-.034-.068S47,48.49,46.911,48.49ZM47.317,64.8c.09.091.068.169-.068.237l-.338.169Zm-.2-2.234v-.2c0-.09-.046-.112-.135-.068a.2.2,0,0,0-.034.2C46.967,62.592,47.023,62.614,47.114,62.568Zm.271.2c-.091,0-.135.023-.135.068h.068A.06.06,0,0,0,47.385,62.771Zm.271.948h-.068c-.091.045-.136.057-.136.034s-.023-.034-.068-.034v.271c.044,0,.112-.09.2-.271h.068c.135-.044.169-.09.1-.135S47.656,63.584,47.656,63.719Zm-.2.541h.068C47.52,64.306,47.5,64.306,47.453,64.26Zm.271-3.587.136.135a.324.324,0,0,1-.1.237.889.889,0,0,0-.169.237c-.091-.09-.079-.192.034-.3S47.768,60.764,47.723,60.673Zm2.1-1.354q.067.339-.508.677a1.429,1.429,0,0,0-.711.812.277.277,0,0,0-.2.068.275.275,0,0,1-.2.068c0,.091.022.147.068.169s.044.079,0,.169q-.271-.27-.3.068c-.023.226-.1.362-.237.406a1.078,1.078,0,0,1-.135-.474,6.482,6.482,0,0,0,.744-.575c.225-.2.451-.417.677-.643,0-.09-.012-.135-.034-.135s-.034-.044-.034-.135a.265.265,0,0,0,.44-.068A1.087,1.087,0,0,1,49.822,59.32ZM47.588,62.5c.09.045.146.023.169-.068s-.012-.135-.1-.135a.138.138,0,0,1-.034.1A.137.137,0,0,0,47.588,62.5Zm.338-.136c.09,0,.169-.068.237-.2s.034-.2-.1-.2c.045.135.022.215-.068.237S47.881,62.276,47.927,62.365Zm.135,1.218a1.491,1.491,0,0,1,.406-.575q.27-.236.542-.507.135.271-.169.406a.384.384,0,0,0-.237.474q-.34-.135-.3.1c.022.159-.057.237-.237.237Zm.237.508a.325.325,0,0,1-.237.1c0-.09.034-.136.1-.136s.1-.044.1-.135C48.355,63.967,48.366,64.024,48.3,64.091Zm.034-2.2h.2c0-.09-.068-.112-.2-.068Zm.542,1.489Zm.271-1.218v.068c-.045,0-.068-.011-.068-.034S49.1,62.162,49.145,62.162Zm0,.068q.135,0,.034.1C49.111,62.4,49.1,62.365,49.145,62.23Zm.271-3.723h.271a.359.359,0,0,1-.406.406c-.045-.09-.023-.146.067-.169S49.46,58.643,49.416,58.507Zm.745-.541c.09.091.068.192-.068.3a.588.588,0,0,1-.339.169.272.272,0,0,1,.136-.271A1.05,1.05,0,0,0,50.16,57.966ZM49.822,62.5c0-.09.022-.124.068-.1S49.912,62.456,49.822,62.5Zm.948-3.994c.09.045.1.091.034.136s-.079.113-.034.2c-.181-.09-.3-.056-.372.1a.823.823,0,0,1-.3.372.733.733,0,0,1,.034-.237.757.757,0,0,0,.034-.237c.225.045.338-.044.338-.271a.272.272,0,0,1,.169.034C50.69,58.632,50.724,58.6,50.769,58.507Zm0,2.166a.551.551,0,0,1-.135.406,1.047,1.047,0,0,0-.2.271c-.136,0-.2-.112-.2-.338.18.226.271.226.271,0S50.588,60.673,50.769,60.673Zm-.541,1.286a.12.12,0,0,1,.135.135.06.06,0,0,0-.068.068C50.25,62.162,50.228,62.095,50.228,61.959Zm.2-4.2c.044.091.044.158,0,.2h-.068V57.83A.06.06,0,0,0,50.431,57.763Zm.068,4.061c.044-.136.068-.146.068-.034S50.543,61.915,50.5,61.824Zm.542-.542c.044,0,.044.057,0,.169s-.113.147-.2.1c-.046-.09-.034-.135.034-.135S50.994,61.373,51.04,61.282Zm.068-2.369c0,.226-.068.271-.2.136C50.9,58.959,50.972,58.913,51.108,58.913Zm.271-1.151q.135.137-.034.406a.74.74,0,0,1-.372.338c-.091-.18-.034-.293.17-.338S51.423,57.989,51.378,57.763Zm-.271,1.151c0-.09.022-.135.068-.135s.044-.044,0-.135c.09.091.146.091.169,0s.078-.112.169-.068a.659.659,0,0,0-.169.237C51.321,58.879,51.243,58.913,51.108,58.913Zm.135-1.827c.09.045.112.079.068.1a.109.109,0,0,0-.068.1Zm0,2.978c.044-.09.068-.078.068.034S51.288,60.2,51.243,60.064Zm0,.271q.135-.135.1,0T51.243,60.335Zm.474-2.775c.18,0,.225.045.135.136l-.2.2c-.091-.044-.091-.09,0-.135A.134.134,0,0,0,51.717,57.56Zm.135.677a.239.239,0,0,1-.271.271C51.581,58.418,51.671,58.328,51.852,58.237Zm0,0c0-.09.068-.135.2-.135a.2.2,0,0,0-.068.135C51.988,58.282,51.942,58.282,51.852,58.237Zm.068,1.015c.044-.135.068-.146.068-.034S51.964,59.343,51.92,59.252Zm.271-2.1c.044-.09.068-.078.068.034S52.235,57.289,52.191,57.154Zm.3.575c-.023.113-.079.125-.169.034v-.136h.068Q52.528,57.561,52.5,57.729Zm.372-.1a.285.285,0,0,1,.034.474.494.494,0,0,1-.507.2A1.847,1.847,0,0,0,52.867,57.627Zm-.2-.271v.2c-.091-.044-.113-.078-.068-.1A.109.109,0,0,0,52.664,57.357Zm.271,1.489q-.068.068-.1,0c-.023-.044-.057-.044-.1,0,.044-.09.1-.135.169-.135S52.98,58.756,52.935,58.846Zm-.2.338c.09-.135.124-.146.1-.034S52.776,59.275,52.732,59.184Zm.169-2.572q-.035.136-.1,0Q52.935,56.478,52.9,56.612Zm.034.609c.044-.09.068-.078.068.034S52.98,57.357,52.935,57.221Zm.609,0a.6.6,0,0,0-.068.271c0,.091-.068.135-.2.135Q53.273,57.221,53.544,57.221Zm.034-.1a.138.138,0,0,0,.034-.1c.09,0,.124.057.1.169s-.079.125-.169.034A.137.137,0,0,1,53.578,57.12Zm.3-.17a.06.06,0,0,1,.068-.068A.06.06,0,0,1,53.883,56.951Zm.068-.541c.044-.09.068-.078.068.034S53.995,56.545,53.95,56.409Zm.068.406a.06.06,0,0,1-.068.067A.06.06,0,0,1,54.018,56.815Zm0,0c0-.09.022-.136.068-.136s.067-.044.067-.135a.151.151,0,1,1-.135.271Zm.474-.542c.09-.09.135-.044.135.136h-.068C54.514,56.409,54.492,56.365,54.492,56.274Zm5.144-13.2v-.068c-.045,0-.068.012-.068.034s.022.034.068.034a8.841,8.841,0,0,1-.914,2.1,11.251,11.251,0,0,0-.981,2.1h-.067a.281.281,0,0,0-.068-.2,1.736,1.736,0,0,1-.169.271.35.35,0,0,0-.034.339.588.588,0,0,0-.169.3,1.255,1.255,0,0,1-.1.3c-.091,0-.135.068-.135.2.044.091.09.1.135.034a.226.226,0,0,0,0-.237c.135-.09.169-.034.1.17a1.167,1.167,0,0,1-.169.372c-.091,0-.135-.068-.135-.2a8.359,8.359,0,0,1-.3.778,7.848,7.848,0,0,0-.3.778c-.045,0-.057.023-.034.068a.112.112,0,0,1-.034.136q-1.421,3.385-2.572,7.106c-.091,0-.136.034-.136.1s-.045.057-.135-.034a.66.66,0,0,1-.271.88c-.091,0-.125-.056-.1-.169a.464.464,0,0,1,.1-.237c.044,0,.056.023.034.068s-.012.068.034.068a2.945,2.945,0,0,1,.068-.643c.044-.2.09-.417.136-.643a.613.613,0,0,0,.169-.338,2.57,2.57,0,0,1,.1-.406.6.6,0,0,0-.169.338,2.887,2.887,0,0,1-.1.406q-.2.609-.542,1.388a3.792,3.792,0,0,0-.338,1.523q-.271-.135-.237.271a.5.5,0,0,1-.237.542v-.2c-.046,0-.068.034-.068.1s.022.1.068.1q-.2,1.015-.474,1.963t-.474,2.03q-.271-.2-.237,0a.791.791,0,0,1-.1.474h.068V65a1.743,1.743,0,0,1-.068,1.049q-.2.71-.338,1.184a4.29,4.29,0,0,1-.169,1.151,4.559,4.559,0,0,0-.169,1.218.455.455,0,0,1-.034.2.31.31,0,0,0-.034.135,6.412,6.412,0,0,1-.068.981,6.578,6.578,0,0,0-.068.981.189.189,0,0,0,.135-.271l.135.135a14.029,14.029,0,0,0,2.2-2.132q.981-1.184,1.9-2.437t1.828-2.471q.913-1.218,1.929-2.369a19.263,19.263,0,0,1,1.9-2.47q1.015-1.117,2.03-2.268c.09,0,.146-.022.169-.068s.078-.044.169,0a1.084,1.084,0,0,1,.711-.948q.643-.27.575-.812a.28.28,0,0,1,.2.068q.472-.407.88-.812a5.328,5.328,0,0,0,.745-.948.165.165,0,0,1,.1.2,1.09,1.09,0,0,0-.034.271c.09,0,.146-.068.169-.2s.124-.157.3-.068a2.972,2.972,0,0,1-.643.88,7.417,7.417,0,0,0-.711.744q.27.406-.068.575a1.894,1.894,0,0,0-.474.3q-.34.136-.2-.2c-.135.045-.181.1-.135.169a2.441,2.441,0,0,1,.135.237.06.06,0,0,0-.067.068c-.091-.09-.159-.136-.2-.136a.552.552,0,0,1-.135.406,1.569,1.569,0,0,0-.271.406.119.119,0,0,1-.135-.136,3.515,3.515,0,0,0-.2.474q-.068.2-.136.406h-.068c.09-.09.112-.169.068-.237a.552.552,0,0,1-.068-.3,1.266,1.266,0,0,1-.372.643,3.362,3.362,0,0,0-.508.643.74.74,0,0,0,.44-.372.745.745,0,0,1,.44-.372.658.658,0,0,1-.3.474.9.9,0,0,0-.372.474,1.873,1.873,0,0,0,.711-.677,1.869,1.869,0,0,1,.711-.677.9.9,0,0,1-.372.474.656.656,0,0,0-.3.474,1.717,1.717,0,0,0,.406-.406,1.748,1.748,0,0,1,.406-.406c.044-.09,0-.135-.135-.135a2.643,2.643,0,0,1,.406-1.015,3.643,3.643,0,0,1-.034.406,1.684,1.684,0,0,1-.169.542,2.255,2.255,0,0,0,.406-.3,1.015,1.015,0,0,0,.338-.575c.18,0,.315-.112.406-.338a.633.633,0,0,0-.406.338c-.091-.09-.057-.2.1-.338s.281-.247.372-.339c.09,0,.124.034.1.1s-.011.1.034.1a.31.31,0,0,0,.169-.169.663.663,0,0,1,.169-.237l.136.136a1.3,1.3,0,0,0,.3-.677.551.551,0,0,1,.3-.474c-.091.091-.1.159-.034.2s.078.113.034.2c.18-.044.247-.1.2-.169a.222.222,0,0,1,0-.237.532.532,0,0,0,.339.068c0,.181-.057.294-.169.339a.682.682,0,0,0-.3.271c-.045,0-.067-.067-.067-.2a.974.974,0,0,1-.237.508,2.706,2.706,0,0,0-.372.508.39.39,0,0,0,.271-.135.223.223,0,0,1,.271-.068l-.237.237a.886.886,0,0,0-.169.237c.044.091.09.079.135-.034s.112-.146.2-.1c-.091.136-.045.2.136.2a.539.539,0,0,1-.372.44.469.469,0,0,0-.3.508c-.091.045-.181,0-.271-.136-.091.091-.1.17-.034.237a.913.913,0,0,1,.169.237.306.306,0,0,1-.169.169c-.068.023-.057.125.034.3a2.331,2.331,0,0,1-.406.3.305.305,0,0,0-.136.44c.136,0,.192-.068.169-.2s.056-.158.237-.068A2.053,2.053,0,0,1,64.17,60.4c-.135-.09-.147-.191-.034-.3a.345.345,0,0,0,.1-.372c-.135.045-.215.113-.237.2a.6.6,0,0,1-.169.271.226.226,0,0,0,.1.2.306.306,0,0,1,.1.271.614.614,0,0,0-.338.44q-.068.3-.339.237a.52.52,0,0,0-.068.2.526.526,0,0,1-.068.2c-.091-.044-.125-.09-.1-.135a.477.477,0,0,0,.034-.2c-.135,0-.192.057-.169.169a1.6,1.6,0,0,1,.034.3,1.593,1.593,0,0,1-.575.643,1.224,1.224,0,0,0-.508.778c-.045.045-.135.045-.271,0a1.645,1.645,0,0,1-.474.846,1.629,1.629,0,0,0-.474.846.119.119,0,0,1-.135-.135,7.141,7.141,0,0,0-.406.609.8.8,0,0,1-.474.406c-.091.091-.113.17-.068.237a.422.422,0,0,1,.068.237c-.181.091-.271.125-.271.1s-.091.012-.271.1q.067.406-.2.508a.338.338,0,0,0-.2.44.286.286,0,0,1-.271,0,2.662,2.662,0,0,1-.44.812,2.089,2.089,0,0,0-.372.609q-.34-.135-.575.372a2.129,2.129,0,0,1-.575.778.06.06,0,0,0,.068.068.06.06,0,0,1,.068.068c0,.135-.034.147-.1.034s-.147-.124-.237-.034a1.191,1.191,0,0,1-.169.339,2.44,2.44,0,0,1-.237.271c0,.091.068.135.2.135q-.745.746-1.387,1.489t-1.252,1.489a.135.135,0,0,1-.1-.034.142.142,0,0,0-.1-.034q.135.407.44,0a.654.654,0,0,1,.643-.338,1.617,1.617,0,0,1-.44.609.634.634,0,0,1-.575.2,2.666,2.666,0,0,1-1.523.948,5.14,5.14,0,0,1-1.861.068,6.545,6.545,0,0,1-1.828-.542,4.881,4.881,0,0,1-1.421-.948v-.2q.137.068.1,0a.108.108,0,0,0-.1-.068c0-.09-.022-.135-.068-.135,0-.09-.011-.112-.034-.068s-.011.068.034.068a.2.2,0,0,0,.068.135v.068a1.049,1.049,0,0,1-.372-.609,5.27,5.27,0,0,1-.135-.914,7.73,7.73,0,0,1,0-1.015q.035-.508.1-.914.137-1.285.372-2.606t.372-2.267q.543-1.759.981-3.486t.914-3.485q1.421-4.264,2.944-8.291T55.168,42.2a20.849,20.849,0,0,0,1.015-1.861q.473-.98.981-1.963a14.681,14.681,0,0,1,1.117-1.827,6.085,6.085,0,0,1,1.489-1.455.715.715,0,0,1,.406.068c.044.045.158.045.339,0a6.012,6.012,0,0,1,1.151.88q.473.474,1.015,1.083a1.43,1.43,0,0,1,.034.508c-.023.113.034.215.169.3a7.3,7.3,0,0,1-.778.914,9.67,9.67,0,0,1-.778.71q.067.406-.169.508c-.159.068-.193.26-.1.575-.091.045-.135.057-.135.034s-.045-.034-.135-.034a2.546,2.546,0,0,0-.1.541.423.423,0,0,1-.372.406,4.966,4.966,0,0,1-.237.778A2.008,2.008,0,0,1,59.635,43.076ZM48.806,64.768c0-.112-.022-.1-.068.034C48.784,64.893,48.806,64.881,48.806,64.768Zm1.286,3.283c.091.091.136.079.136-.034S50.183,67.915,50.092,68.051Zm.2-.271a.352.352,0,0,1,.034-.338.187.187,0,0,0-.034-.271.8.8,0,0,1-.1.339C50.126,67.645,50.16,67.736,50.3,67.78Zm.135.812c.045-.045.057.012.034.169S50.431,68.863,50.431,68.592Zm.068-2.3c-.044.226-.056.26-.034.1S50.5,66.2,50.5,66.291Zm.135,1.692c.045-.136.068-.146.068-.034S50.679,68.074,50.634,67.983Zm.068-2.775c.09.135.135.147.135.034S50.791,65.118,50.7,65.208Zm0,.474c.045.091.068.079.068-.034S50.747,65.546,50.7,65.682Zm.135.88c.09,0,.124.034.1.1a.435.435,0,0,1-.1.169c-.09-.044-.112-.09-.068-.135A.2.2,0,0,0,50.837,66.561Zm0-.271h.135v.136h-.135Zm.135-.474c.09,0,.112.045.068.135s-.023.135.068.135c-.091.091-.135.091-.135,0Zm.169-2.064c.068.068.078.011.034-.169C51.084,63.629,51.074,63.685,51.141,63.753Zm.2,1.015A.187.187,0,0,0,51.31,65c-.091-.044-.113-.1-.067-.169a.422.422,0,0,0,.067-.237Q51.445,64.667,51.344,64.768Zm-.034-2.132c0,.316.022.372.068.169S51.4,62.546,51.31,62.636Zm.2-.609c-.091.091-.1.169-.034.237s.078-.011.034-.237h.068c.09-.044.1-.09.034-.135s-.079,0-.034.135Zm0,1.76c.045-.135.068-.146.068-.034S51.558,63.878,51.513,63.787Zm.2-.745c-.045-.18-.034-.237.034-.169S51.806,63,51.716,63.042Zm0-1.624c.044.091.068.079.068-.034S51.761,61.282,51.716,61.418Zm.339.271a1.066,1.066,0,0,1-.135.745c-.091-.044-.1-.157-.034-.338S52.009,61.779,52.055,61.688Zm-.2-.744c.044.135.068.147.068.034S51.9,60.854,51.852,60.944Zm0,1.557c.044-.044.068,0,.068.135C51.874,62.636,51.852,62.592,51.852,62.5Zm.2-.812a.734.734,0,0,1,.034-.237.756.756,0,0,0,.034-.237c.09.045.124.135.1.271S52.145,61.688,52.055,61.688Zm.135-1.658c.044-.022.022-.034-.068-.034v.2C52.123,60.109,52.145,60.054,52.19,60.03Zm0,14.586q.066.136.1-.034C52.314,74.47,52.28,74.481,52.19,74.616Zm.135-13.74c.044.181.034.237-.034.169S52.235,60.922,52.326,60.876Zm0,0a.221.221,0,0,1,0-.237.421.421,0,0,0,.068-.237c.09.091.1.17.034.237a.187.187,0,0,0-.034.237Zm.2-1.083c.135,0,.18.091.135.271s-.113.249-.2.2a.787.787,0,0,0,.135-.2A.223.223,0,0,0,52.529,59.793Zm0,14.62h.135v-.136h-.135Zm.2-15.229c.135.045.18.125.135.237a.734.734,0,0,1-.135.237c-.091-.044-.1-.112-.034-.2A.243.243,0,0,0,52.732,59.184Zm.2-.541c.09.045.112.125.068.237a.826.826,0,0,0-.068.3q-.136,0-.1-.2A1.182,1.182,0,0,1,52.935,58.643ZM53,74.074c-.091,0-.135.068-.135.2.09.045.135-.022.135-.2.09,0,.1-.034.034-.1S52.957,73.939,53,74.074Zm.2-17.6c0,.181.011.192.034.034S53.25,56.342,53.205,56.477Zm.2,13.875c.044.091.068.079.068-.034S53.453,70.216,53.409,70.352Zm.948-16.176h-.068a.539.539,0,0,1-.068.339h-.067a2.349,2.349,0,0,0-.136.744H53.95c.044.091.044.136,0,.136s-.068.045-.068.135h-.068c.044.091.044.147,0,.169s-.068.079-.068.17v.067c-.091.045-.113.068-.068.068a.06.06,0,0,0,.068-.068v-.067c.09-.044.135-.158.135-.339.09-.044.124-.022.1.067s.011.136.1.136c-.046-.09-.034-.158.034-.2s.056-.09-.034-.135c-.046,0-.068-.044-.068-.136a.2.2,0,0,1,.136-.067.059.059,0,0,0,.067.067,1.033,1.033,0,0,1,0-.744c.09-.09.124-.068.1.068s.011.181.1.135c.044-.135.022-.225-.068-.271s-.091-.135,0-.271a.242.242,0,0,0,.135-.237.419.419,0,0,1,.135-.3q.067.271.1.067t-.1-.067v-.271a.313.313,0,0,0-.2.338A1.516,1.516,0,0,1,54.356,54.176Zm-.609,19.019h-.068v.135c.044,0,.068-.044.068-.135.09.045.158.034.2-.034s.022-.124-.068-.17C53.882,73.037,53.837,73.1,53.747,73.195Zm0-16.853c.09.091.135.079.135-.034S53.837,56.206,53.747,56.342Zm.2-.542v.068c-.135.135-.135.147,0,.034S54.086,55.755,53.95,55.8Zm.406,13.537a.2.2,0,0,1,.135-.068c.044,0,.068-.044.068-.135a.174.174,0,0,0-.237.068C54.255,69.292,54.265,69.337,54.356,69.337Zm.474,3.79a.606.606,0,0,1-.406.406c-.045-.18-.012-.271.1-.271s.146-.068.1-.2c.044,0,.068.011.068.034S54.739,73.127,54.83,73.127Zm-.338-18.951c.044.135.068.147.068.034S54.536,54.086,54.492,54.176Zm.2-.88a.229.229,0,0,1,.1-.2q.1-.066-.034-.2a.323.323,0,0,1-.1.237C54.593,53.194,54.6,53.251,54.695,53.3Zm.135,19.831c-.045-.136-.023-.2.068-.2s.112.068.068.2Zm.135-21.32q.27.2.034.406c-.159.135-.169.271-.034.406a1.056,1.056,0,0,0,.169-.406,1.7,1.7,0,0,1,.169-.474c-.091.091-.159.113-.2.068A.086.086,0,0,0,54.965,51.807Zm0,16.515c0,.135.022.169.068.1s.022-.1-.068-.1c.045,0,.078-.044.1-.136s-.011-.135-.1-.135a.2.2,0,0,0-.068.135C54.9,68.277,54.92,68.321,54.965,68.321Zm.271,4.4a.419.419,0,0,0-.1.169.157.157,0,0,1-.169.1C55.01,72.812,55.1,72.721,55.236,72.721Zm0-21.117c.044,0,.112-.09.2-.271C55.3,51.333,55.236,51.424,55.236,51.6Zm.135.2q-.136.271,0,.034C55.461,51.683,55.461,51.671,55.371,51.807Zm.271,20.44a.323.323,0,0,1-.1.237.888.888,0,0,0-.169.237.2.2,0,0,1,0-.3A.367.367,0,0,1,55.642,72.247Zm.135-4.805a.769.769,0,0,0-.271.406.16.16,0,0,0,.169-.135,1.306,1.306,0,0,1,.1-.271h.068a.328.328,0,0,1,.068-.169c.045-.068.022-.1-.068-.1,0,.091-.011.136-.034.136S55.777,67.352,55.777,67.442ZM55.71,50.589q.066,0,.1-.1c.022-.068-.012-.1-.1-.1a.2.2,0,0,0-.068.135A.06.06,0,0,0,55.71,50.589Zm-.068,21.658a.389.389,0,0,0,.135-.271c0-.09.068-.112.2-.067a.369.369,0,0,0-.136.237Q55.845,72.247,55.642,72.247Zm.2-21.861v.067c.09.091.146.079.169-.034s-.011-.146-.1-.1A.06.06,0,0,1,55.845,50.386Zm.136,21.388h.135v.068h-.135Zm.068-4.738q.135.068.169-.169t-.1-.169c0,.091-.023.147-.067.169S56,66.945,56.048,67.035Zm.2-16.65a.277.277,0,0,0,.068-.2.842.842,0,0,0,.2-.372.835.835,0,0,1,.2-.372,1.8,1.8,0,0,1-.2.812,6.169,6.169,0,0,0-.338.812.2.2,0,0,1,0-.3A.375.375,0,0,0,56.251,50.386Zm-.068,21.252c.09-.135.124-.146.1-.034S56.228,71.729,56.184,71.638Zm.068-1.083h.136c0,.091-.012.113-.034.068A.111.111,0,0,0,56.251,70.555Zm.2-3.926a.415.415,0,0,1,.068-.237c.044-.068,0-.1-.135-.1a.227.227,0,0,1,0,.237C56.341,66.6,56.363,66.629,56.454,66.629Zm.135,4.535c0,.091-.034.135-.1.135s-.079.045-.034.136a.151.151,0,0,1,.135-.271Zm0-5.009c.044,0,.068-.044.068-.135C56.612,66.02,56.59,66.066,56.59,66.155Zm.2-.068Zm-.067,4.738c.09-.044.135-.011.135.1s-.046.147-.135.1Zm.135-21.794c.09,0,.124.034.1.1s-.057.1-.1.1a.06.06,0,0,1-.068-.068A.2.2,0,0,1,56.86,49.032Zm-.068,16.65v.135C56.883,65.727,56.883,65.682,56.793,65.682Zm.237,4.23c-.023.113-.079.125-.169.034v-.068l.068-.068Q57.063,69.744,57.03,69.912Zm.034-4.027c0-.09.022-.146.068-.169s.045-.078,0-.169h-.2a.245.245,0,0,1,.034.2C56.939,65.795,56.973,65.84,57.063,65.885Zm0,3.723c.044.135.034.169-.034.1S56.973,69.607,57.063,69.607Zm.135.609c.09,0,.112.034.068.1a.222.222,0,0,0,0,.237c-.091-.045-.125-.09-.1-.136A.471.471,0,0,0,57.2,70.216Zm0-4.873c.044,0,.068.012.068.034s.022.034.068.034a.2.2,0,0,1,.067-.135l-.135-.068c0,.045-.011.068-.034.068S57.2,65.3,57.2,65.343Zm0,4.129q.135-.135.1,0T57.2,69.472Zm.271-.271c.09.181.044.226-.135.136.044,0,.056-.034.034-.1S57.379,69.157,57.469,69.2ZM57.4,47.678c.044,0,.068-.034.068-.1s.044-.1.136-.1a.222.222,0,0,1-.068.271C57.446,47.837,57.4,47.813,57.4,47.678Zm.068,22.268c.09,0,.112.012.068.034a.109.109,0,0,0-.068.1Zm.2-22.674c.044.091.034.113-.034.068S57.582,47.272,57.673,47.272Zm0,22.336a.12.12,0,0,1,.135.135.06.06,0,0,0-.068.068C57.695,69.81,57.673,69.743,57.673,69.607Zm.44-5.178a1.692,1.692,0,0,0,.3-.44.793.793,0,0,0-.372.339,3.793,3.793,0,0,1-.237.406Zm-.169,4.907c.044,0,.068.045.068.135a.06.06,0,0,0-.068-.068Zm.2-.339h.136c.09.091.067.147-.068.169s-.181-.011-.136-.1A.06.06,0,0,1,58.146,69Zm.136-5.279c.044.091.067.079.067-.034S58.326,63.584,58.282,63.719Zm.135-.339v.068q-.2.271,0,.068C58.552,63.38,58.552,63.336,58.417,63.38Zm.068-18.207c.044.135.068.147.068.034S58.529,45.084,58.485,45.174Zm.135,21.861c-.045.226-.057.26-.034.1S58.62,66.945,58.62,67.035Zm0-3.858v.068c.09.091.146.079.169-.034s-.012-.146-.1-.1A.06.06,0,0,1,58.62,63.178Zm.271.474q-.068.271,0,.034C58.935,63.528,58.935,63.516,58.891,63.651Zm.135-.474a.908.908,0,0,0,.2-.3.889.889,0,0,1,.2-.3c-.091-.09-.159-.136-.2-.136a1,1,0,0,1-.068.372C59.116,62.918,59.071,63.042,59.026,63.178Zm.271,4.332c.135-.044.18,0,.135.135s-.113.2-.2.2q-.068-.135.034-.169C59.331,67.656,59.341,67.6,59.3,67.509Zm.2-5.279c0-.18-.045-.271-.135-.271-.046,0-.057.045-.034.135A.159.159,0,0,0,59.5,62.23Zm.745-.88v-.271a.4.4,0,0,0-.271.068c.136-.044.18-.011.136.1S60.109,61.4,60.245,61.35Zm-.271,1.015c.044,0,.068-.044.068-.135C60,62.23,59.974,62.276,59.974,62.365Zm.136-.914c.044-.022.022-.034-.068-.034v.135A.109.109,0,0,1,60.109,61.452Zm.068.3a.328.328,0,0,1,.068-.169c.044-.068.022-.1-.068-.1a.334.334,0,0,1-.068.169C60.064,61.722,60.086,61.756,60.177,61.756Zm0,.271c.044.135.068.147.068.034S60.221,61.937,60.177,62.027Zm.2-1.218c.09.046.146.023.169-.068a.165.165,0,0,0-.1-.2A.22.22,0,0,0,60.38,60.808Zm0,.981c.044.023.068.012.068-.034C60.357,61.756,60.334,61.768,60.38,61.79Zm.068,4.23h.068v.135h-.068Zm.136-4.738c0-.09.01-.135.034-.135s.034-.022.034-.068h-.135C60.424,61.17,60.448,61.238,60.583,61.282Zm0,.068v.068c-.136.135-.125.147.034.034S60.763,61.306,60.583,61.35Zm.2-.542h-.068q-.2.2,0,.2a.278.278,0,0,0,.068-.2c.135.046.169.034.1-.034S60.786,60.719,60.786,60.808Zm.068-.372c.09-.022.135-.1.135-.237a.286.286,0,0,0-.237.169c-.068.113-.057.192.034.237C60.741,60.516,60.763,60.46,60.854,60.436Zm0,3.892h.135v-.135h-.135Zm.2-3.858c-.091,0-.1.034-.034.1s.078.034.034-.1c.09.045.136.034.136-.034a.229.229,0,0,1,.067-.169A.179.179,0,0,0,61.057,60.47Zm0,.338c.09.091.136.079.136-.034S61.147,60.673,61.057,60.808Zm.372-1.015c.068-.09.146-.2.237-.339l-.135-.135a.439.439,0,0,1-.237.406c-.158.091-.192.2-.1.338A2.488,2.488,0,0,0,61.429,59.793Zm.034.338a1.562,1.562,0,0,0,.237-.3,1.593,1.593,0,0,1,.237-.3.831.831,0,0,0-.372.271C61.451,59.929,61.417,60.042,61.463,60.132Zm.135,3.114c0-.09.022-.112.068-.068l-.135-.136A.273.273,0,0,0,61.6,63.245Zm.2-3.114a.2.2,0,0,1,.135.068c0-.18-.045-.247-.135-.2Zm.135.812c.044.135.068.147.068.034S61.981,60.854,61.937,60.944ZM62,62.636c.044.135.068.147.068.034S62.049,62.546,62,62.636Zm.2-.339a.06.06,0,0,0-.067.068c-.091,0-.1.034-.034.1s.078.034.034-.1a.06.06,0,0,0,.067-.068h.068v-.2A.275.275,0,0,0,62.207,62.3Zm-.067-2.572a.151.151,0,1,0,.135-.271c0,.091-.034.136-.1.136S62.094,59.636,62.14,59.726Zm0,2.166c.09.045.135.012.135-.1s-.045-.146-.135-.1Zm.338.2c-.045-.044-.034-.09.034-.135s.056-.068-.034-.068a.2.2,0,0,0-.068.135A.06.06,0,0,0,62.478,62.095Zm.135-.88c.09,0,.18-.136.271-.406h-.2a.277.277,0,0,1-.068.2Q62.545,61.08,62.613,61.215Zm.2.406a.06.06,0,0,0,.067-.068c0-.09-.023-.135-.067-.135s-.079.034-.1.1S62.726,61.621,62.817,61.621Zm0,1.354c.044-.135.067-.146.067-.034S62.861,63.065,62.817,62.974Zm.2-5.008c.09,0,.124.045.1.135s-.079.113-.169.068v-.135A.06.06,0,0,0,63.02,57.966Zm-.068,2.775q.338.068.406-.3t.2-.1a.365.365,0,0,1,.136-.169c.044-.022.044-.078,0-.169h-.2a.572.572,0,0,1-.237.372A.872.872,0,0,0,62.952,60.741Zm.068.474a3.247,3.247,0,0,0,.474-.406c.18-.18.2-.315.068-.406a1.587,1.587,0,0,1-.271.406A1.572,1.572,0,0,0,63.02,61.215Zm.406-2.437c-.045.181-.057.192-.034.034S63.426,58.643,63.426,58.778Zm.271.778c.044-.022.022-.034-.068-.034v.135A.109.109,0,0,1,63.7,59.556Zm.135.237c.045,0,.068.011.068.034s.022.034.068.034a.2.2,0,0,1,.068-.135c-.045,0-.068-.011-.068-.034s-.023-.034-.068-.034c0,.045-.011.068-.034.068S63.832,59.749,63.832,59.793Zm.2-2.437q0,.2-.1.1T64.035,57.357Zm0-.812a1.928,1.928,0,0,1,.2-.169c.09-.068.044-.124-.135-.169a.134.134,0,0,1-.068.2C63.944,56.455,63.944,56.5,64.035,56.545Zm-.068,3.046c.044.091.068.079.068-.034S64.012,59.455,63.967,59.59Zm.068-2.775c.09,0,.1.034.034.1S63.989,56.951,64.035,56.815Zm.338,1.015-.2.2a.179.179,0,0,0,.2-.2,1.042,1.042,0,0,0,.271-.2C64.463,57.583,64.373,57.651,64.373,57.83Zm.135-1.354a.538.538,0,0,0,.068-.338c-.135-.044-.2,0-.2.135S64.417,56.477,64.508,56.477Zm-.068,2.64q-.068-.27.271-.44t0-.372a.482.482,0,0,1-.2.372A.326.326,0,0,0,64.441,59.116Zm.271-3.79v.136C64.8,55.372,64.8,55.326,64.712,55.326Zm0,2.234c.044,0,.067-.044.067-.135a.893.893,0,0,0,.237-.169c.067-.068.056-.124-.034-.169a.365.365,0,0,1-.135.169c-.046.023-.068.079-.068.169C64.824,57.424,64.8,57.47,64.712,57.56Zm.2-2.234a.328.328,0,0,1,.068-.169c.044-.068.022-.1-.068-.1a.2.2,0,0,0-.068.136C64.847,55.282,64.869,55.326,64.915,55.326Zm.068,2.369c-.045-.044-.068-.022-.068.068h0l.068-.068.068-.068c.09,0,.1-.034.034-.1s-.079-.034-.034.1A.06.06,0,0,0,64.982,57.7Zm.339,1.286c0,.181-.046.271-.136.271q-.2.068-.2-.1a.33.33,0,0,1,.068-.237c.09-.044.135-.044.135,0S65.23,58.981,65.321,58.981Zm-.068-2.843c-.091-.044-.113-.078-.068-.1a.109.109,0,0,0,.068-.1Zm-.068-1.286c.09,0,.136-.068.136-.2h-.136c0,.091.011.125.034.1S65.23,54.763,65.185,54.852Zm.474,3.113a.3.3,0,0,1-.1.271,1.656,1.656,0,0,0-.237.2c-.091-.09-.079-.192.034-.3A.467.467,0,0,1,65.659,57.966Zm-.338,1.015a.227.227,0,0,0,0-.237.222.222,0,0,1,0-.237c.09,0,.124.045.1.136s.011.113.1.068Q65.524,59.05,65.321,58.981Zm.338-3.283a.228.228,0,0,1-.2.1c.09-.09.136-.158.136-.2C65.681,55.6,65.7,55.631,65.659,55.7Zm0,2.268c0-.18.044-.247.135-.2a.277.277,0,0,1-.068.2Zm.406-.068a.324.324,0,0,1-.1.237.888.888,0,0,0-.169.237.168.168,0,0,1,0-.271A1.065,1.065,0,0,1,66.065,57.9Zm-.2.474c.136-.045.169-.022.1.068a.416.416,0,0,0-.1.2c-.091-.044-.113-.09-.068-.136A.2.2,0,0,0,65.862,58.372Zm.068-1.828c.09.045.135.045.135,0s.044-.044.135,0q-.136-.744.406-.745a.563.563,0,0,1-.034.169c-.023.068-.012.057.034-.034a.188.188,0,0,1,.034.271.187.187,0,0,0,.034.271.274.274,0,0,1-.2.068c-.091,0-.113.068-.068.2q-.271-.135-.3-.034a.31.31,0,0,1-.169.169q-.068-.135,0-.169C65.974,56.692,65.974,56.635,65.93,56.545Zm0-2.234V54.04a.608.608,0,0,0,.542-.372,1.483,1.483,0,0,1,.541-.575,1.366,1.366,0,0,1-.406.745A2.057,2.057,0,0,1,65.93,54.311Zm0,1.963a.12.12,0,0,1,.135.136.06.06,0,0,0-.067.068c-.046-.044-.057-.078-.034-.1S65.974,56.319,65.93,56.274Zm.609.609a.785.785,0,0,1-.237.474,4.685,4.685,0,0,0-.372.339A2.156,2.156,0,0,1,66.539,56.883Zm-.406-3.249c.136.045.158.1.068.169S66.087,53.815,66.133,53.634Zm.136,4.2c0-.09-.012-.056-.034.1S66.223,58.057,66.268,57.83Zm.271-.948a.179.179,0,0,1,.2-.2A.179.179,0,0,1,66.539,56.883Zm0,.745c.09-.135.135-.146.135-.034S66.629,57.718,66.539,57.627Zm.88-2.707-.2.406c.044.091.09.079.135-.034s.112-.169.2-.169c0-.135-.045-.2-.135-.2a1.063,1.063,0,0,0,.2-.271,1.045,1.045,0,0,1,.2-.271c.09.091.078.181-.034.271a.367.367,0,0,0-.169.271c.18,0,.271-.068.271-.2q.135.271-.3.474t-.3.541c0,.091-.091.136-.271.136a.339.339,0,0,1-.067.338c-.091,0-.125-.044-.1-.136s-.012-.135-.1-.135c0-.044.034-.067.1-.067s.1-.044.1-.136c-.046-.09-.079-.1-.1-.034s-.079.079-.169.034a.778.778,0,0,1,.3-.508Q67.215,55.056,67.419,54.92Zm-.068-.474a2.679,2.679,0,0,0-.237.44.551.551,0,0,1-.44.3.811.811,0,0,0,.3-.406A.514.514,0,0,1,67.351,54.446Zm-.474-.068a.06.06,0,0,1,.068-.068A.06.06,0,0,1,66.877,54.379Zm.271,2.166a.273.273,0,0,1,.169.034.134.134,0,0,0,.1.034.411.411,0,0,1-.237.271c-.113.045-.147.159-.1.339-.135-.044-.158-.146-.068-.3A.834.834,0,0,0,67.148,56.545Zm-.136-1.015a.06.06,0,0,0,.068-.068C66.99,55.507,66.967,55.529,67.013,55.529Zm.339.474a.228.228,0,0,0-.068.169c0,.068-.045.079-.135.034A.179.179,0,0,1,67.351,56Zm.271.339c.044-.135.067-.146.067-.034S67.666,56.432,67.622,56.342Zm.2-2.5c.09.045.112.125.068.237s-.113.125-.2.034c-.045-.09-.034-.135.034-.135S67.825,53.928,67.825,53.837Zm.135,1.9c.09.091.078.169-.034.237a.285.285,0,0,0-.17.237c-.091-.09-.079-.169.034-.237A.286.286,0,0,0,67.96,55.732Zm.338-1.354c-.091.091-.135.159-.135.2-.091-.044-.113-.1-.068-.169S68.208,54.334,68.3,54.379Zm.271.812c.044.091.034.135-.034.135s-.1.023-.1.068c-.091,0-.113-.044-.068-.136A.134.134,0,0,1,68.57,55.191Zm-.068-.474c.09.045.1.091.034.135s-.1.091-.1.135c-.091-.044-.1-.078-.034-.1A.156.156,0,0,0,68.5,54.717Zm.609-1.218a1.2,1.2,0,0,1-.3.406,4.724,4.724,0,0,0-.372.339c.045-.09.124-.225.237-.406A.72.72,0,0,1,69.111,53.5Zm-.338,1.083a.276.276,0,0,1,.068-.2v.2Zm.745-1.489q0,.271-.406.406a1.663,1.663,0,0,0,.2-.237A.5.5,0,0,1,69.517,53.093Zm-.068.812c-.091.181-.2.271-.339.271C69.2,54,69.314,53.9,69.45,53.9Zm-.136.541h.136v.136h-.136Zm.339-1.556c0-.044.022-.056.068-.034S69.742,52.89,69.653,52.89Zm.2-.136Zm10.491-3.181a3.525,3.525,0,0,0,.88.542,1.109,1.109,0,0,1,.609.88,2.179,2.179,0,0,0-.135.812,1.108,1.108,0,0,1-.339.812.389.389,0,0,0,.068.271.457.457,0,0,1-.1.474.779.779,0,0,0-.237.474q-.136,0-.1-.1c.022-.068.011-.1-.034-.1a5.7,5.7,0,0,1-.44,1.151q-.3.609-.643,1.151a.843.843,0,0,1-.474.677,39.76,39.76,0,0,1-1.557,4.163,14,14,0,0,0-1.083,4.569,6.5,6.5,0,0,0,1.117-.778,6.233,6.233,0,0,0,.914-.981q1.962-1.894,3.756-3.959a44.378,44.378,0,0,1,3.824-3.892.366.366,0,0,1-.1.406c-.113.091-.125.181-.034.271.09,0,.135-.068.135-.2s.045-.2.136-.2c.18,0,.225.113.135.339q-.2-.2-.3.2c-.068.271-.125.474-.169.609H86.1v.068l-.068.068h-.068a.464.464,0,0,1,.034-.2q.033-.067-.169,0a.137.137,0,0,1,.034-.1.139.139,0,0,0,.034-.1.06.06,0,0,0,.067-.067c-.045,0-.023-.044.068-.136-.046,0-.068.045-.068.136a.06.06,0,0,0-.067.067.12.12,0,0,0-.135.136.279.279,0,0,1,.068.2c0,.091.044.113.135.068v.135c-.091,0-.135.012-.135.034s-.023.034-.068.034c0-.135-.023-.18-.068-.135l-.135.135c.044.091.078.113.1.068a.109.109,0,0,1,.1-.068c.044.091.034.135-.034.135s-.1.046-.1.136c-.045,0-.057.012-.034.034s.011.033-.034.033a.317.317,0,0,0-.237.237.6.6,0,0,1-.169.3c-.045,0-.113.045-.2.135q.066.137.1,0c.022-.09.056-.135.1-.135a.315.315,0,0,0,.237-.237.589.589,0,0,1,.17-.3l.067-.067a.435.435,0,0,0,.338-.339c.044,0,.068-.045.068-.135.045,0,.068-.045.068-.135h.068a.413.413,0,0,0,.271-.372.426.426,0,0,1,.2-.372h.068c0,.045.011.068.034.068s.034.023.034.068c.045-.09.022-.135-.068-.135q.135-.406.406-.2a.357.357,0,0,1-.135.3q-.137.1,0,.3c-.045,0-.113-.044-.2-.136a.673.673,0,0,1-.2.237q-.136.1,0,.3a.234.234,0,0,0-.169-.068c-.068,0-.1.045-.1.135.136.091.09.226-.135.406s-.338.338-.338.474a.857.857,0,0,0,.474-.406,3.584,3.584,0,0,1,.338-.542c.136,0,.192.045.17.135a1.079,1.079,0,0,0-.034.271.273.273,0,0,0,.135-.271c.09,0,.146-.056.169-.169s-.012-.169-.1-.169v-.136a.18.18,0,0,1,.2.2.554.554,0,0,0,.2-.339.276.276,0,0,0,.2-.068c-.091-.09-.125-.169-.1-.237a.652.652,0,0,1,.169-.237c.09,0,.1.057.034.169s-.057.169.034.169c0,.181-.045.294-.135.338a.439.439,0,0,0-.2.2c0,.045.034.057.1.034s.1.011.1.1c-.091.045-.135.091-.135.135a.2.2,0,0,1-.068.135.59.59,0,0,1-.3.169c-.113.023-.169.125-.169.3-.135,0-.158.045-.068.135s.112.046.068-.135a.632.632,0,0,0,.474-.474c.135,0,.2-.09.2-.271q.2,0,.169-.2a.364.364,0,0,1,.1-.339.218.218,0,0,1,.135.2,1.545,1.545,0,0,0,.237-.3,1.6,1.6,0,0,1,.237-.3q.135.137-.068.3a.548.548,0,0,0-.2.44c-.091.045-.147.045-.169,0a.378.378,0,0,0-.169-.136c-.091.091-.079.147.034.169s.124.079.034.169a1.024,1.024,0,0,0-.474.542.6.6,0,0,0,.3-.2,2.583,2.583,0,0,1,.237-.271.223.223,0,0,1,.068.271q-.068.137-.2,0a4.528,4.528,0,0,1-.846,1.185,4.054,4.054,0,0,0-.778,1.049q.135.136.2-.2t.406-.2a6.078,6.078,0,0,1-.914,1.083,7.8,7.8,0,0,0-.914,1.015h-.135q.135.271.135,0a.3.3,0,0,1-.067.406,1.06,1.06,0,0,1-.406.271c0-.09.022-.146.068-.169a.366.366,0,0,0,.135-.169A9.589,9.589,0,0,1,83.6,63.279q-.677.711-1.286,1.455c-.045.091-.045.147,0,.169s.068.079.068.169q-.609.543-1.219,1.151a3.85,3.85,0,0,1-1.286.88.539.539,0,0,1-.609.44.456.456,0,0,0-.541.44c-.136,0-.215-.011-.237-.034a.838.838,0,0,0-.169-.1v.2a3.122,3.122,0,0,1-.609.067h-.541a.707.707,0,0,1-.372-.1.729.729,0,0,0-.508-.034,1.86,1.86,0,0,0-.88-.474,1.5,1.5,0,0,1-.88-.609,1.843,1.843,0,0,1-1.151-1.387,5.733,5.733,0,0,1-.034-2.064,10.956,10.956,0,0,1,.575-2.166q.406-1.082.609-1.692a6.908,6.908,0,0,1,.271-.88l.271-.677a2.367,2.367,0,0,1,.3-.812,3.872,3.872,0,0,0,.372-.88.378.378,0,0,0-.2.3c0,.113-.113.169-.339.169.18.316.136.519-.135.609-.045-.09-.034-.146.034-.169s.056-.078-.034-.169l-.1.2q-.035.068-.1.2c-.091,0-.181.091-.271.271.09.091.135.079.135-.034s.044-.124.136-.034a25.916,25.916,0,0,1-3.012,3.621A35.131,35.131,0,0,0,68.7,64.937a.607.607,0,0,0-.406.406,2.729,2.729,0,0,0-.406.339,1.8,1.8,0,0,0-.338.474q.135-.135.372-.338a1.515,1.515,0,0,0,.372-.474.607.607,0,0,0,.406-.406,12.673,12.673,0,0,0,1.489-1.624,10.578,10.578,0,0,1,1.557-1.624q-.746.949-1.523,1.794a18.642,18.642,0,0,0-1.455,1.794L67.69,66.358a9.416,9.416,0,0,1-1.151.981,5.485,5.485,0,0,1-1.354.711,4.056,4.056,0,0,1-1.692.2,3.688,3.688,0,0,1-1.184-.44q-.508-.3-1.049-.643a.137.137,0,0,0-.034-.1.268.268,0,0,1-.034-.169c0-.044-.044-.056-.135-.034s-.135.012-.135-.034a6.341,6.341,0,0,1,.271-3.215,24.33,24.33,0,0,0,.88-2.876,14.51,14.51,0,0,0,.677-1.9,21.644,21.644,0,0,0,1.117-2.3q.508-1.218,1.083-2.369a13.466,13.466,0,0,1,1.32-2.132,5.669,5.669,0,0,1,1.9-1.591,11.9,11.9,0,0,1,1.489.88A4.269,4.269,0,0,1,70.8,52.551a.958.958,0,0,0-.135.541,1.766,1.766,0,0,0-.778.44,7.774,7.774,0,0,1-.643.575q-1.218,2.167-2.335,4.4a32.832,32.832,0,0,0-1.929,4.805c-.09.045-.112.012-.068-.1s.023-.146-.068-.1a.2.2,0,0,0-.068.136.511.511,0,0,1-.067.2q.2-.135.2.1a.771.771,0,0,1-.135.44A38.76,38.76,0,0,0,68.265,60.3q1.657-2,3.35-3.993t3.519-3.824A23.741,23.741,0,0,1,79.2,49.235a3.688,3.688,0,0,0,.609.237A2,2,0,0,0,80.346,49.573Zm-15.7,14.247c0-.112-.022-.1-.068.034C64.622,63.945,64.644,63.934,64.644,63.821Zm0,.271c0-.112-.022-.124-.068-.034C64.622,64.193,64.644,64.2,64.644,64.091Zm.339-1.455c.045.135.068.147.068.034S65.028,62.546,64.982,62.636Zm.135-.135a.325.325,0,0,1,.1-.237c.068-.068.056-.146-.034-.237a.324.324,0,0,1-.1.237C65.016,62.331,65.028,62.411,65.117,62.5Zm.237-.677c.067-.044.056-.09-.034-.136a.421.421,0,0,0-.1.169c-.023.068.011.125.1.169C65.275,61.937,65.287,61.869,65.355,61.824Zm-.034-.271q.135.068.2-.1c.044-.112.022-.169-.068-.169a.108.108,0,0,1-.068.1C65.343,61.407,65.321,61.463,65.321,61.553Zm.271-.338c.136-.136.136-.247,0-.338a.525.525,0,0,1-.068.2C65.478,61.17,65.5,61.215,65.591,61.215Zm.068-.406q.135-.2.3-.474a.685.685,0,0,0,.1-.542,3.562,3.562,0,0,0-.2.474C65.817,60.4,65.749,60.583,65.659,60.808Zm.88-2.1a.639.639,0,0,1-.169.406.4.4,0,0,0-.034.474.66.66,0,0,1,.135-.474.551.551,0,0,0,.136-.406c.09,0,.112-.034.068-.1s-.068-.034-.068.1Zm.2-.338c-.091.045-.1.091-.034.135s.078,0,.034-.135c.09,0,.112-.011.068-.034S66.742,58.328,66.742,58.372Zm0,8.46c.136,0,.2-.044.2-.135C66.9,66.7,66.832,66.742,66.742,66.832Zm.2-8.63c.044-.022.022-.056-.068-.1a.108.108,0,0,1-.068.1c-.046.023-.023.057.068.1A.109.109,0,0,1,66.945,58.2Zm.2,8.291c.045,0,.136-.067.271-.2-.091,0-.147.023-.169.068A.536.536,0,0,1,67.148,66.494Zm.2-9.2a.06.06,0,0,0,.068-.068c0-.09-.023-.135-.068-.135.045.045.034.091-.034.135S67.26,57.289,67.351,57.289Zm.136-.339h.135v-.135h-.135Zm.338-.744c0,.181.011.192.034.034S67.869,56.071,67.825,56.206Zm1.827,4.6c0,.181.011.193.034.034S69.7,60.673,69.652,60.808Zm0,2.5c.044.136.068.147.068.034S69.7,63.223,69.652,63.313Zm1.286-3.925c.09-.044.112-.068.068-.068A.06.06,0,0,0,70.938,59.387Zm.745,1.624q-.068.271,0,.067T71.683,61.012Zm.135.541c0,.091-.023.135-.068.135C71.751,61.6,71.773,61.553,71.818,61.553Zm.2-.135c0,.091-.068.135-.2.135C71.818,61.463,71.886,61.418,72.021,61.418ZM73.1,60.2c-.181.226-.35.44-.508.643a3.489,3.489,0,0,1-.575.575,2.579,2.579,0,0,1,.474-.677A7.319,7.319,0,0,1,73.1,60.2Zm-.948.406c.09-.044.112-.068.068-.068A.06.06,0,0,0,72.157,60.605Zm.068-2.707h.068a.06.06,0,0,1,.068-.068v-.067C72.269,57.718,72.224,57.763,72.224,57.9Zm.406-.541c.09.135.136.147.136.034S72.72,57.267,72.63,57.357Zm.136,2.5c-.091,0-.1.034-.034.1s.078.034.034-.1c.09,0,.1-.034.034-.1S72.72,59.726,72.766,59.861Zm.1-2.707c.068.045.078.023.034-.068C72.81,57.086,72.8,57.109,72.867,57.154Zm.237,2.369h.135v-.135H73.1Zm.068.474v.2H73.1A.274.274,0,0,1,73.172,60Zm.068-3.317Zm.135-.271v.068c-.135.181-.125.2.034.068S73.555,56.365,73.375,56.409Zm0,2.707a.133.133,0,0,0,.2-.067c.044-.09.022-.136-.068-.136C73.51,58.959,73.465,59.027,73.375,59.116Zm.339-2.91V56a.109.109,0,0,1-.068.1C73.6,56.128,73.622,56.162,73.713,56.206Zm0,3.249c.044-.135.067-.146.067-.034S73.758,59.546,73.713,59.455Zm.135-3.587c.09.091.136.079.136-.034S73.939,55.732,73.849,55.868Zm.271-.271a.179.179,0,0,0,.2-.2c-.091,0-.136.023-.136.068A.2.2,0,0,1,74.119,55.6Zm.474,2.268c0-.112-.046-.124-.136-.034C74.548,57.966,74.593,57.977,74.593,57.864Zm0-.508h.135v-.135h-.135Zm.474.068c0,.091-.012.135-.034.135S75,57.605,75,57.7c-.046,0-.068-.011-.068-.034s-.023-.034-.068-.034v-.135A.274.274,0,0,0,75.067,57.424Zm.068-.745c-.091,0-.135.023-.135.068C75.089,56.748,75.135,56.725,75.135,56.68Zm.474,3.452c-.091,0-.1.023-.034.068s.078.023.034-.068h.068a.138.138,0,0,1,.034-.1c.022-.022.011-.078-.034-.169C75.631,59.861,75.609,59.952,75.609,60.132ZM75.676,56l.135.068c0-.044.011-.068.034-.068s.034-.022.034-.068h-.135A.06.06,0,0,1,75.676,56Zm.2-.406c.09.136.135.147.135.034S75.969,55.507,75.879,55.6Zm1.015,7.649c-.046.226-.034.26.034.1S76.984,63.155,76.895,63.245Zm.067-.2a.433.433,0,0,0,.1-.169c.022-.068-.012-.124-.1-.169.044.091.034.159-.034.2S76.871,63,76.962,63.042Zm.068-10.558c.045.135.068.147.068.034S77.074,52.394,77.03,52.484Zm.271,9.408c.135-.136.135-.247,0-.339a.721.721,0,0,1-.169.474c-.113.135-.1.249.034.338A.47.47,0,0,1,77.3,61.892Zm.068-10.965c.045.091.068.079.068-.034S77.413,50.791,77.368,50.927Zm.135,9.679c-.045-.09-.034-.146.034-.169s.056-.056-.034-.1a.419.419,0,0,0-.1.169C77.379,60.572,77.413,60.605,77.5,60.605Zm0,.609c-.091.045-.1.1-.034.169s.078.012.034-.169c.09-.044.1-.1.034-.169S77.458,61.035,77.5,61.215Zm.135-.406c-.045-.044-.034-.09.034-.135s.056-.068-.034-.068a.2.2,0,0,0-.067.135A.059.059,0,0,0,77.639,60.808Zm.2,7.107h-.136a.06.06,0,0,0-.068.068q-.068.068.1,0C77.853,67.939,77.886,67.915,77.842,67.915Zm-.068-17.395c.044.136.068.147.068.034S77.819,50.431,77.774,50.521Zm.2,8.7c0-.112-.023-.124-.068-.034C77.954,59.32,77.977,59.331,77.977,59.218Zm.068.711q-.068-.135,0-.2c.045-.044.022-.09-.068-.135C77.977,59.816,78,59.929,78.045,59.929Zm.2-.541c.044,0,.044-.044,0-.136-.091-.044-.147-.022-.169.068a.2.2,0,0,0,.034.2C78.157,59.433,78.2,59.387,78.248,59.387Zm.2-.406a.134.134,0,0,0-.068-.2.323.323,0,0,1-.1.237c-.067.068-.057.125.034.169A.786.786,0,0,0,78.451,58.981Zm.135-.474v-.135h-.135v.135Zm0-.2h.136v-.135h-.136Zm.542-1.049c0-.112-.023-.124-.068-.034C79.1,57.357,79.128,57.368,79.128,57.255ZM79.094,64.9q.1.1.1-.1c.09,0,.1-.034.034-.1s-.079-.034-.034.1Q78.992,64.8,79.094,64.9Zm.508-8.562v-.2a.276.276,0,0,0-.2.068c.09,0,.135.023.135.067A.06.06,0,0,0,79.6,56.342Zm.338-.812c.045.135.068.147.068.034S79.985,55.439,79.94,55.529Zm.406-5.956c-.091,0-.1-.034-.034-.1S80.391,49.438,80.346,49.573Zm.406,16.718c.135,0,.2-.045.2-.135A.216.216,0,0,0,80.753,66.291Zm.338-3.519c.044.135.067.147.067.034S81.135,62.681,81.091,62.771Zm.067-9.543h.068v-.136h-.068Zm.2,9.273q.2,0,.1-.1T81.362,62.5Zm.271,2.978a.06.06,0,0,0-.068.067q-.2,0-.1.1t.1-.1l.068-.067a.12.12,0,0,0,.135-.136A.12.12,0,0,0,81.632,65.479Zm-.2-12.589c0-.09.01-.136.033-.136s.034-.022.034-.068q.2,0,0,.2Zm.2,10.8c0-.112-.023-.1-.068.034C81.609,63.81,81.632,63.8,81.632,63.685Zm0-12.623c.045.091.068.079.068-.034S81.677,50.927,81.632,51.062Zm.135,11.032c-.091.045-.113.068-.068.068a.06.06,0,0,0,.068-.068c.09,0,.1-.034.034-.1S81.722,61.959,81.768,62.095Zm.135.406a.2.2,0,0,0-.135.068C81.857,62.478,81.9,62.456,81.9,62.5Zm-.135,1.083c.044.135.067.135.067,0S81.812,63.448,81.768,63.584ZM82.174,65q.135-.067,0-.2a.44.44,0,0,1-.2.2q-.137.068,0,.2A.439.439,0,0,1,82.174,65Zm-.2-3.113c.044.091.068.079.068-.034S82.015,61.756,81.971,61.892Zm.2,2.64q.067.136.1,0T82.174,64.531Zm.068-1.489h.136v-.135h-.136Zm.136-1.624q.066.136.1-.034C82.5,61.272,82.467,61.282,82.377,61.418Zm.744,2.64a1.818,1.818,0,0,1-.744.812A2.549,2.549,0,0,1,83.121,64.057Zm-.677-1.421v.2Q82.579,62.7,82.444,62.636Zm.2-1.489c-.091,0-.136.023-.136.068C82.6,61.215,82.648,61.192,82.648,61.147Zm.474,2.91a.2.2,0,0,0,.068-.135c0-.044.044-.067.136-.067A.179.179,0,0,1,83.121,64.057Zm.136-3.587a.06.06,0,0,0-.068.068C83.279,60.493,83.3,60.47,83.257,60.47Zm0,3.012c0-.112-.023-.124-.068-.034C83.233,63.584,83.257,63.6,83.257,63.482Zm.068-1.658c.044.091.067.079.067-.034S83.369,61.688,83.324,61.824Zm.135-.136a.06.06,0,0,0,.068-.067C83.436,61.666,83.414,61.688,83.46,61.688Zm.068,1.9v.2c-.091-.044-.113-.078-.068-.1A.109.109,0,0,0,83.527,63.584Zm.068-3.452c.09,0,.135-.068.135-.2-.091-.044-.125-.034-.1.034A.155.155,0,0,1,83.6,60.132Zm0,2.91c.044.091.068.079.068-.034S83.639,62.907,83.6,63.042Zm.271.2c.045.091.034.135-.034.135s-.1.046-.1.136C83.685,63.471,83.73,63.38,83.866,63.245Zm0,0c0-.045.022-.045.068,0C83.934,63.291,83.91,63.291,83.866,63.245Zm.2-1.9q.135-.338-.135-.338C83.934,61.192,83.978,61.306,84.069,61.35Zm0,.88v-.135h-.135v.135Zm-.135,1.015c0-.09.011-.124.034-.1S83.978,63.2,83.934,63.245Zm.271-.88c-.046,0-.068.068-.068.2-.135-.044-.169-.034-.1.034s.1.057.1-.034a.277.277,0,0,0,.068-.2c.09-.044.112-.068.068-.068A.06.06,0,0,0,84.2,62.365Zm-.136.677c.044-.135.068-.146.068-.034S84.113,63.133,84.069,63.042Zm.136-1.083a.06.06,0,0,0-.068.068c0-.044.011-.056.034-.034S84.2,62,84.2,61.959Zm.135.745c0,.135-.045.2-.135.2C84.2,62.862,84.249,62.795,84.34,62.7Zm0,0,.135-.135c.09,0,.112.034.068.1S84.43,62.749,84.34,62.7Zm.135-3.079c0-.112-.023-.124-.068-.034C84.452,59.726,84.475,59.737,84.475,59.624Zm0,.169c.044.135.068.147.068.034S84.519,59.7,84.475,59.793Zm.2-.88a.217.217,0,0,0,.2-.135c.044-.09.022-.135-.068-.135,0,.091-.034.135-.1.135S84.633,58.824,84.678,58.913Zm.068,2.369c-.135.135-.125.181.034.135S84.925,61.328,84.746,61.282Zm.068-1.9q-.2,0-.1.1t.1-.1q.135,0,.034-.1C84.78,59.218,84.768,59.252,84.813,59.387Zm0,2.91a.06.06,0,0,1-.068.068C84.7,62.365,84.722,62.343,84.813,62.3Zm0,0c-.045-.135-.034-.169.034-.1S84.9,62.3,84.813,62.3Zm.339-1.354a.156.156,0,0,0-.169.1.44.44,0,0,1-.1.169.239.239,0,0,0,.271-.271c.135,0,.2-.044.2-.136C85.219,60.764,85.152,60.808,85.152,60.944Zm-.2-3.317c.135,0,.18-.034.135-.1S84.993,57.492,84.949,57.627Zm.2-.2h.135v-.135h-.135Zm.135,1.76c-.091,0-.135.023-.135.068C85.242,59.252,85.287,59.229,85.287,59.184Zm-.068-.271c.044.091.068.079.068-.034S85.264,58.778,85.219,58.913Zm.068-1.354q.135.137.1,0T85.287,57.56Zm.135,1.218V58.71c0-.09-.023-.136-.068-.136C85.355,58.71,85.377,58.778,85.422,58.778Zm0,.812q-.068.068,0,.1t0-.1c.09,0,.112-.011.068-.034S85.422,59.546,85.422,59.59Zm0,1.151c.09.045.136.012.136-.1s-.046-.146-.136-.1Zm0,.406c.044,0,.068.045.068.135l-.068.068Zm.068-4.129a2.962,2.962,0,0,1,.372-.3c.157-.112.214-.237.169-.372a3.72,3.72,0,0,1-.3.271A.723.723,0,0,0,85.49,57.018Zm0,1.556c.09.046.135.012.135-.1s-.045-.146-.135-.1Zm.271,2.3c0,.045-.046.113-.136.2-.091,0-.113-.034-.067-.1A.226.226,0,0,1,85.761,60.876Zm-.2-.406a.151.151,0,1,0,.135-.271A.39.39,0,0,1,85.558,60.47Zm.406-1.286a.323.323,0,0,0-.237.1c-.068.068-.057.125.034.169,0-.09.022-.135.068-.135s.09-.044.135-.136c.09-.044.1-.1.034-.169S85.918,59,85.964,59.184Zm-.2,1.692c0-.09.022-.136.068-.136a.068.068,0,0,1,0,.136Zm.068-.677a2.014,2.014,0,0,1,.237-.1c.068-.022.078-.1.034-.237C85.918,59.861,85.829,59.974,85.829,60.2Zm.2-3.249c.09.091.135.079.135-.034S86.122,56.815,86.032,56.951Zm.135,1.388c0-.112-.045-.1-.135.034C86.122,58.463,86.167,58.451,86.167,58.338ZM86.1,60.4h.136v.136H86.1Zm.136-2.233q.135.068.169-.1c.022-.112-.012-.17-.1-.17,0,.091-.012.136-.034.136S86.235,58.079,86.235,58.169Zm0,.609c.09.045.135.012.135-.1s-.045-.146-.135-.1ZM86.3,58.3c.044.091.068.079.068-.034S86.347,58.169,86.3,58.3Zm.068-2.572a.179.179,0,0,1,.2-.2V55.8c-.091,0-.135-.011-.135-.034S86.414,55.732,86.37,55.732Zm.068,2.843h.135c0-.044.01-.068.034-.068s.034-.044.034-.135h-.2Zm.1-.778c.022-.158.034-.17.034-.034C86.528,57.944,86.516,57.955,86.539,57.8Zm.034-1.049a.06.06,0,0,0,.067-.068C86.55,56.725,86.528,56.748,86.573,56.748Zm.067-1.286c.09-.09.136-.09.136,0S86.731,55.553,86.641,55.462Zm.339,1.557v.135h-.2v-.135Zm-.135,2.369c0-.044-.011-.068-.034-.068s-.034-.044-.034-.136c.225-.09.338-.2.338-.338.135.091.146.181.034.271a.368.368,0,0,0-.169.271Zm.339-3.452c0,.091-.068.135-.2.135a.2.2,0,0,0,.068-.135C87.047,55.891,87.091,55.891,87.182,55.935Zm.135.2a.222.222,0,0,1-.068.271c-.091,0-.125-.056-.1-.169S87.227,56.094,87.318,56.139Zm-.135.677c.044-.09.067-.078.067.034S87.227,56.951,87.182,56.815Zm.067.406-.067.068v.135c.044,0,.067-.068.067-.2.09,0,.112-.011.068-.034S87.25,57.177,87.25,57.221Zm0-1.489c.045-.09.09-.136.136-.136s.068-.044.068-.135c.09.091.1.159.034.2A.417.417,0,0,1,87.25,55.732Zm.136,1.015c-.091,0-.136-.068-.136-.2A.218.218,0,0,1,87.385,56.748Zm-.068,1.9c0,.091-.023.135-.068.135v-.135Zm.068-.034c.044.023.022.034-.068.034C87.318,58.6,87.34,58.587,87.385,58.609Zm0-2.741c.044-.136.068-.146.068-.034S87.43,55.959,87.385,55.868Zm.474,2.233c.044.091.034.135-.034.135s-.1.045-.1.136a.151.151,0,0,1,.135-.271Zm-.135-1.557c.044,0,.056-.034.034-.1s.011-.078.1-.034Q87.994,56.68,87.724,56.545ZM82.106,70.352c.045-.135.067-.146.067-.034S82.151,70.443,82.106,70.352Zm.135.812q-.2,0-.068-.271C82.309,70.893,82.332,70.984,82.241,71.164Zm-.068-2.1a.78.78,0,0,1,.136.2.133.133,0,0,1-.068.2A.709.709,0,0,1,82.173,69.066Zm.136,1.828c-.09-.225-.112-.361-.068-.406C82.287,70.487,82.309,70.623,82.309,70.893Zm.034.339c.023.045-.011.067-.1.067v-.135A.109.109,0,0,1,82.343,71.232Zm-.1.338c.046-.135.068-.146.068-.034S82.287,71.661,82.241,71.57Zm.068-.677a.06.06,0,0,1,.068.068A.06.06,0,0,1,82.309,70.893ZM96.049,40.91c.044,0,.068-.044.068-.135-.045,0-.068.045-.068.135a.833.833,0,0,0-.2.372.844.844,0,0,1-.2.372.155.155,0,0,1-.169-.1.151.151,0,0,1,.034-.169c-.091,0-.135.012-.135.034s-.046.034-.135.034a16.886,16.886,0,0,0-.981,2.03,23.479,23.479,0,0,0-.778,2.234c-.091-.135-.147-.157-.169-.068s-.057.068-.1-.067a.732.732,0,0,0-.2.541,5.049,5.049,0,0,0-.44,1.015c-.113.362-.215.677-.3.948a.179.179,0,0,0-.2.2c-.135,0-.159-.068-.068-.2a.163.163,0,0,0-.1.2.387.387,0,0,1-.034.271c.136.091.124.237-.034.44a.829.829,0,0,0-.1.778c-.091.045-.136.045-.136,0s-.045-.045-.135,0q-.271.745-.44,1.32t-.3,1.185q.2,0,.508-.474t.508-.339a15.057,15.057,0,0,1,2.4-2.4,5.251,5.251,0,0,1,3.418-1.184,6.392,6.392,0,0,0,1.828.948,2.745,2.745,0,0,1,1.557,1.286,2.551,2.551,0,0,1,1.015,2.1q-.136-.406-.271-.914a1.306,1.306,0,0,0-.542-.778q.2.609.406,1.252a4.061,4.061,0,0,1,.135,1.523c-.181,0-.249.046-.2.135q-.271,1.287-.541,2.775a5.464,5.464,0,0,1-1.015,2.437.551.551,0,0,1-.1.609,1.473,1.473,0,0,0-.3.474c0-.09-.012-.112-.034-.068s-.079.023-.169-.068c-.091,0-.113.045-.068.135a.537.537,0,0,1,.068.2.231.231,0,0,0,.068-.169c0-.067.044-.078.135-.034a3.8,3.8,0,0,1-.2.474c-.091.181-.181.226-.271.135a1.461,1.461,0,0,1-.406.88.863.863,0,0,0-.2.88.06.06,0,0,1-.068-.068.061.061,0,0,0-.068-.068,4.142,4.142,0,0,0-.575.914,2.417,2.417,0,0,1-.643.846q0-.338.2-.406t.2-.406a.584.584,0,0,0,.2-.609q-.406.271-.2.609a.06.06,0,0,0-.068.068.06.06,0,0,1-.068-.068.06.06,0,0,0-.068-.068.9.9,0,0,1-.237.609,1.328,1.328,0,0,0-.3.677.06.06,0,0,0-.068.068.732.732,0,0,0-.271.338,1.052,1.052,0,0,1-.271.2q-.137.068-.068.339a1.2,1.2,0,0,0,.338-.542.429.429,0,0,0,.271-.338.06.06,0,0,0,.068-.068.242.242,0,0,0,.135-.237c0-.112.067-.169.2-.169a.626.626,0,0,1-.271.575.786.786,0,0,0-.339.575.856.856,0,0,0-.406.474.384.384,0,0,1-.474.271q-.068-.2.1-.2t.034-.2h.068l.136.135c0-.135-.045-.18-.136-.135V65a.877.877,0,0,0-.3.338,3.92,3.92,0,0,1-.237.406,13.878,13.878,0,0,0-.88,1.117q-.406.576-.812,1.117-.2,0-.339.406c.135,0,.214-.045.237-.135a1.289,1.289,0,0,1,.1-.271.814.814,0,0,0,.541-.508.623.623,0,0,1,.474-.44q-.137-.338.1-.474a1.084,1.084,0,0,0,.372-.338c.09-.044.124-.034.1.034s-.012.1.034.1a2.713,2.713,0,0,1-.508.711,2.461,2.461,0,0,0-.508.778.119.119,0,0,1-.135-.135,5.167,5.167,0,0,0-.508.778.883.883,0,0,1-.575.508.292.292,0,0,1,.135-.237.409.409,0,0,1,.2-.1q.066-.135,0-.1c-.045.023-.068-.011-.068-.1a1.525,1.525,0,0,0-.541.542c-.091-.044-.136.045-.136.271a.333.333,0,0,0-.406.169c-.091.159-.181.3-.271.44h-.068c-.091,0-.135.012-.135.034s-.023.034-.068.034a.441.441,0,0,1,.1.169.413.413,0,0,0,.1.17c-.091.091-.158.135-.2.135,0-.09-.045-.124-.135-.1s-.113-.011-.068-.1c-.091.046-.135.1-.135.169s-.068.079-.2.034c0,.136.112.2.338.2v.135a.277.277,0,0,0-.2.068q0-.2-.338-.2a.593.593,0,0,0-.169.271.316.316,0,0,1-.237.2,1,1,0,0,0,.034.3.313.313,0,0,1-.034.237,1.257,1.257,0,0,0-.88.745q-.271-.135-.271.068c0,.135-.045.159-.135.068a.553.553,0,0,1-.575.406.476.476,0,0,0-.507.474.107.107,0,0,1-.1-.068.111.111,0,0,0-.1-.068q-.2,0,0,.2a2.149,2.149,0,0,0-1.083.271,1.175,1.175,0,0,1-1.151-.068c-.09-.044-.136-.022-.136.068s-.045.113-.135.068q-.2,0-.067-.2a2.484,2.484,0,0,1-1.557-.1,2.088,2.088,0,0,1-1.151-.914c0-.135.023-.146.068-.034s.113.147.2.1a.613.613,0,0,1-.2-.44c0-.158-.09-.237-.271-.237q.068-.338.1-.541a.777.777,0,0,0-.1-.474q.271-.135.237.3c-.022.294.079.44.3.44.091-.09.079-.18-.034-.271a.286.286,0,0,1-.1-.339c.045,0,.068-.044.068-.135.135.135.226.135.271,0s.113-.09.2.135a2.424,2.424,0,0,0,.1-.44.629.629,0,0,0-.034-.372q.136.068.271.474v-.914A1.146,1.146,0,0,0,83.324,69a23.115,23.115,0,0,1,.169-2.843,12.021,12.021,0,0,1,.575-2.5Q85.017,60,86.1,56.545t2.1-7.039q.744-2.165,1.523-4.3t1.591-4.23q.541-1.082,1.049-2.233a4.863,4.863,0,0,1,1.455-1.9c0-.225.056-.361.169-.406s.169-.18.169-.406a2.35,2.35,0,0,1,.474.169.443.443,0,0,1,.2.44c.09.045.135.012.135-.1s.044-.146.135-.1a2.016,2.016,0,0,0,.136.406,1.009,1.009,0,0,0,.2.271c.18,0,.271-.045.271-.136.09.045.136.159.136.339.044,0,.112-.044.2-.135a.364.364,0,0,1,.271.406.3.3,0,0,0,.338.338,8.365,8.365,0,0,0-.135,1.624,2.431,2.431,0,0,1-.406,1.489c0-.044-.012-.068-.034-.068S96.049,40.955,96.049,40.91ZM82.715,68.8c.046-.09.068-.078.068.034S82.761,68.931,82.715,68.8Zm0,.271c.046-.09.068-.09.068,0v.2c-.044.091-.068.091-.068,0Zm.068.542c0-.136-.011-.124-.034.034S82.738,69.788,82.783,69.607Zm.068.541c.045-.09.068-.078.068.034S82.9,70.284,82.85,70.149Zm0,.271c.045-.135.068-.146.068-.034S82.9,70.51,82.85,70.419Zm.406-1.151c.091.046.125.135.1.271a.553.553,0,0,0,.034.339c-.09-.09-.124-.169-.1-.237A.765.765,0,0,0,83.257,69.269Zm.948,1.286c-.045.135-.034.181.034.135s.057-.09-.034-.135a.628.628,0,0,0,.034-.372c-.022-.158-.078-.169-.169-.034v-.271a.084.084,0,0,0,.136,0V69.54a.173.173,0,0,1-.237-.068c-.068-.09-.146-.09-.237,0a.6.6,0,0,1,.135.44v.507q.137-.066.1.1c-.022.113.012.169.1.169A.12.12,0,0,1,84.2,70.555Zm-.136-.88c.046,0,.068.045.068.135s-.044.113-.135.068v-.136A.06.06,0,0,1,84.069,69.675Zm.271,1.421a.272.272,0,0,0-.135-.271.3.3,0,0,1,.034.237C84.216,71.13,84.249,71.142,84.339,71.1Zm6.227-17.733v-.135a.179.179,0,0,0-.2.2c-.046.045-.057.079-.034.1s.034-.011.034-.1a.137.137,0,0,0,.1-.034.138.138,0,0,1,.1-.034,1.811,1.811,0,0,1-.406.609c.045-.135.022-.2-.067-.2a.221.221,0,0,0,0,.237.425.425,0,0,1,.067.237q-.136.068-.2,0a.9.9,0,0,1-.135.812.779.779,0,0,0-.135.745,2.045,2.045,0,0,1,.338-.575,2.045,2.045,0,0,0,.339-.575c-.046.181-.046.271,0,.271a.543.543,0,0,1,.2.068.367.367,0,0,1-.169.271c-.113.091-.125.181-.034.271a.31.31,0,0,0,.169-.169.156.156,0,0,1,.169-.1.2.2,0,0,1-.068.136c-.045.045-.023.091.068.135a.326.326,0,0,1,.1-.237c.068-.068.056-.1-.034-.1-.045-.18-.012-.3.1-.372s.124-.17.034-.3a.389.389,0,0,0,.271-.068.277.277,0,0,1,.2-.068,1.658,1.658,0,0,0-.575,1.015,1.563,1.563,0,0,1-.643,1.015v-.2a.216.216,0,0,0-.135.2c0,.091.044.091.135,0,0,.181-.045.271-.135.271,0-.18-.068-.271-.2-.271,0,.091.011.248.034.474s-.079.339-.3.339a.449.449,0,0,1,.034.44,1.558,1.558,0,0,1-.237.3.187.187,0,0,1,.034-.237q.1-.1-.034-.1a2.321,2.321,0,0,0-.338.677c.09,0,.146-.056.169-.169s.078-.169.169-.169a18.632,18.632,0,0,1-.745,1.793,7.862,7.862,0,0,0-.609,1.862c-.045,0-.068.067-.068.2q-.136.068-.1.169c.022.068-.012.147-.1.237q.2,0,.2-.406c.044,0,.068-.068.068-.2q.676-1.691,1.354-3.317a12.327,12.327,0,0,1,1.76-2.978,3.05,3.05,0,0,1-.271.542,2.932,2.932,0,0,0-.271.541c.135-.044.18-.022.135.068a.22.22,0,0,0,.068.271q.27-.067.135-.541a.111.111,0,0,1,.1.067.107.107,0,0,0,.1.068,1.123,1.123,0,0,1,.2-.44,1.209,1.209,0,0,0,.2-.372c-.046-.09-.091-.1-.135-.034s-.068.057-.068-.034q.067-.135.3-.1a.411.411,0,0,0,.372-.1c-.091.091-.113.159-.068.2a.4.4,0,0,1,.068.271.3.3,0,0,0-.339.338q0,.34-.338.2a2.562,2.562,0,0,0-.237.271.676.676,0,0,0-.1.406.411.411,0,0,0-.271.508.544.544,0,0,1-.2.575.246.246,0,0,1,.068-.3q.135-.1,0-.169a1.737,1.737,0,0,0-.406.88,1.048,1.048,0,0,0-.2.271.432.432,0,0,1-.271.2,4.02,4.02,0,0,1,.575-1.117,2.3,2.3,0,0,0,.44-1.117.3.3,0,0,0-.271.3c0,.159-.091.237-.271.237a.851.851,0,0,1,.2-.406.862.862,0,0,0,.2-.339,4.88,4.88,0,0,0-.643.812,1.845,1.845,0,0,0-.3,1.015c-.135-.044-.192,0-.169.136s.056.2.1.2v.135c-.091-.044-.135-.09-.135-.135s-.046-.022-.136.068a.509.509,0,0,1-.135.3c-.091.113-.068.192.068.237a.39.39,0,0,1,.135-.271,24.958,24.958,0,0,0-.846,2.4q-.373,1.253-.778,2.471.406-.135.406-.745c0-.406.135-.586.406-.541,0,.091.022.135.068.135-.045-.09-.034-.146.034-.169l-.1.034V62.23a.111.111,0,0,1,.1.068.107.107,0,0,0,.1.068,1.134,1.134,0,0,0-.034-.271c-.023-.09.034-.135.169-.135.045.226.022.372-.067.44s-.113.192-.068.372c-.091.091-.147.1-.17.034s-.079-.056-.169.034a.6.6,0,0,1-.068.271.133.133,0,0,0,.068.2.551.551,0,0,0,.068-.237c0-.068.044-.1.135-.1a4.989,4.989,0,0,1-.338,1.354,2.524,2.524,0,0,0-.135,1.421q.406-.135.44-.88a1.884,1.884,0,0,1,.372-1.151,3.259,3.259,0,0,1-.237,1.252,2.309,2.309,0,0,0-.1,1.32,1.5,1.5,0,0,1-.3.339,3.8,3.8,0,0,0-.3.271c-.045-.044-.079-.068-.1-.068s-.057-.022-.1-.068l-.2.2a.9.9,0,0,0-.508-.135,1.256,1.256,0,0,1-.575-.135,7.519,7.519,0,0,0,0,2.843c-.136,0-.214-.011-.237-.034s-.078.011-.169.1a.137.137,0,0,0-.034-.1.138.138,0,0,1-.034-.1c-.09.135-.18.159-.271.068s-.158-.068-.2.068c-.09-.09-.136-.124-.136-.1s-.044.079-.135.169c-.045-.136-.1-.192-.169-.169s-.146-.011-.237-.1c-.09.045-.1.1-.034.169s.057.125-.034.169a.373.373,0,0,1-.135-.237c0-.068-.045-.123-.136-.169a8.241,8.241,0,0,1,.034,1.32,2.12,2.12,0,0,0,.3,1.252.659.659,0,0,0-.068-.508q-.135-.236,0-.372a.65.65,0,0,1,.2.474.454.454,0,0,0,.2.406,1.664,1.664,0,0,0,.271-.169.479.479,0,0,1,.406-.034,1.192,1.192,0,0,1,.744-.542,19.472,19.472,0,0,0,3.181-2.91q1.421-1.624,2.775-3.249.812-1.353,1.759-2.707a29.932,29.932,0,0,0,1.76-2.843A20.76,20.76,0,0,0,97.5,56.24a13.989,13.989,0,0,0,.711-3.621,7.815,7.815,0,0,0,.068-1.083,2.264,2.264,0,0,0-.2-1.015c-.091.181-.181.271-.271.271s-.113.068-.068.2c-.045,0-.068-.034-.068-.1s-.046-.1-.136-.1c-.091.136-.169.2-.237.2s-.147.091-.237.271q-.2.068-.2-.271c.09,0,.112-.022.067-.068s-.067-.022-.067.068c-.091.046-.113.1-.068.169a.425.425,0,0,1,.068.237.485.485,0,0,0-.338.2.272.272,0,0,1-.271.135c-.091-.135-.068-.237.068-.3s.112-.124-.068-.169q-.068.2-.44.339t-.1.406a.635.635,0,0,1,.339-.406c.044.226,0,.372-.135.44l-.338.169c0-.136-.046-.2-.136-.2a.773.773,0,0,1-.2.135c-.091.046-.091.091,0,.136a.06.06,0,0,1,.067-.068.06.06,0,0,1,.068.068.541.541,0,0,0-.068.237.372.372,0,0,1-.135.237c-.091-.09-.159-.112-.2-.068s-.135.023-.271-.068a2.524,2.524,0,0,0-.846.846,1.338,1.338,0,0,1-.778.643,2.013,2.013,0,0,0-.2.372.909.909,0,0,1-.2.3c-.045,0-.057-.022-.034-.068s.011-.068-.034-.068a5.546,5.546,0,0,0-.474.812c-.091,0-.113-.044-.067-.136s.022-.112-.068-.068a.53.53,0,0,0,.068-.2c0-.044.044-.068.135-.068a1.134,1.134,0,0,0-.034-.271.377.377,0,0,1,.034-.271c.09,0,.124.046.1.136s.011.113.1.067c0-.18.056-.281.169-.3s.146-.123.1-.3q-.34,0-.2-.2c.09-.044.136-.034.136.034s.022.1.068.1V53.7c.09,0,.135-.067.135-.2q.406,0,.271-.271a.119.119,0,0,0-.135.135.12.12,0,0,1-.136.135h-.068a.139.139,0,0,1-.034.1.137.137,0,0,0-.034.1c-.045,0-.068-.01-.068-.034s-.023-.034-.068-.034a.242.242,0,0,0-.135.237c0,.113-.045.169-.135.169h-.136q.067-.27-.067-.1c-.091.113-.068.147.067.1a1.712,1.712,0,0,1-.406.677l-.609.609a.567.567,0,0,1,.237-.372.571.571,0,0,0,.237-.372c-.135,0-.214.045-.237.135a.3.3,0,0,1-.17.2.4.4,0,0,1,.17-.372.572.572,0,0,0,.237-.372,2,2,0,0,0,.3-.575,2.129,2.129,0,0,1,.372-.643.16.16,0,0,0-.169.135.16.16,0,0,1-.169.136.355.355,0,0,1,.135-.3.358.358,0,0,0,.135-.3c.135-.09.259-.18.372-.271a1.211,1.211,0,0,0,.3-.406c.135,0,.169-.045.1-.135a.241.241,0,0,1-.034-.271.222.222,0,0,1,.271-.068,1.113,1.113,0,0,1,.677-.778.7.7,0,0,0,.474-.778.79.79,0,0,1-.541.474,1.049,1.049,0,0,0-.609.406v-.135c-.091.091-.125.169-.1.237s-.011.1-.1.1a3.724,3.724,0,0,0-1.117.948q-.576.677-1.117,1.218a.188.188,0,0,1,.034-.237c.068-.068.056-.124-.034-.169a.531.531,0,0,0-.1.136.545.545,0,0,1-.1.135.273.273,0,0,0,.068.2C90.678,53.274,90.656,53.319,90.566,53.363Zm-5.888,11.3c0,.181.012.193.034.034S84.723,64.531,84.678,64.666Zm.067,5.821c.136-.044.2,0,.2.135s-.068.181-.2.135Zm.339-6.7c0-.271-.044-.406-.135-.406a.305.305,0,0,1,.034.237C84.96,63.685,84.994,63.742,85.084,63.787Zm0-1.827v.135c.091.091.135.079.135-.034s-.022-.146-.068-.1C85.152,62,85.129,62,85.084,61.959Zm0,1.218c.045.091.068.079.068-.034S85.129,63.042,85.084,63.178Zm.2-.542c-.045.226-.056.26-.034.1S85.287,62.546,85.287,62.636Zm.135-.711c.045-.158.045-.17,0-.034C85.378,62.072,85.378,62.084,85.422,61.925Zm0-.914c.091,0,.1-.034.034-.1S85.378,60.876,85.422,61.012Zm.068-.609c-.045.227-.045.339,0,.339s.079-.044.1-.135.046-.191.068-.3.012-.169-.034-.169A.384.384,0,0,1,85.49,60.4Zm.068,1.083q-.067.34,0,.1T85.558,61.485Zm0,8.054c.091-.044.147-.022.169.068s-.011.135-.1.135a.137.137,0,0,0-.034-.1A.138.138,0,0,1,85.558,69.54Zm.135-8.257a.547.547,0,0,0,.136-.406c-.136-.044-.191-.011-.169.1A1.51,1.51,0,0,1,85.693,61.282Zm.2-.474a.286.286,0,0,1,.1-.338q.17-.135-.1-.271a1.019,1.019,0,0,1-.1.372C85.727,60.73,85.761,60.808,85.9,60.808Zm-.068-1.455c-.045.113-.022.169.068.169a.477.477,0,0,1,.034-.2.46.46,0,0,0,.034-.2c.091,0,.1-.034.034-.1s-.078-.034-.034.1A.759.759,0,0,0,85.828,59.353Zm.135.508c.045.136.068.136.068,0S86.009,59.726,85.964,59.861Zm.135-.338c0,.226.023.26.068.1S86.19,59.433,86.1,59.523Zm.237,7.343c.022-.022-.012-.034-.1-.034-.136.135-.112.2.067.2A.264.264,0,0,1,86.336,66.866Zm-.169,1.185c.046.135.068.147.068.034S86.212,67.961,86.167,68.051Zm.068-10.017c-.045.181-.056.192-.034.034S86.235,57.9,86.235,58.034Zm0,9.2c.045.091.067.079.067-.034S86.28,67.1,86.235,67.238Zm.1-9.374q.033-.236.034-.1C86.324,57.989,86.313,58.023,86.336,57.864Zm.169.3c0,.181.022.249.068.2s.022-.112-.068-.2c.09-.044.146-.022.169.068s.056.091.1,0a.163.163,0,0,1-.1-.2.166.166,0,0,0-.1-.2.3.3,0,0,1-.034.136A.46.46,0,0,0,86.505,58.169Zm.237,2.877c.022-.158.011-.214-.034-.169C86.708,61.147,86.719,61.2,86.742,61.045Zm.169-.44a.389.389,0,0,1,.135-.271.151.151,0,1,0-.135.271Zm0-2.369a.417.417,0,0,1,.1-.2c.068-.09.034-.136-.1-.136.044.091.034.159-.034.2S86.82,58.192,86.912,58.237Zm0-.812Zm0-.609v.135c.09.046.135.023.135-.068s-.023-.135-.068-.135A.06.06,0,0,1,86.912,56.815Zm.271.474a.151.151,0,0,1-.034-.169.156.156,0,0,0-.034-.17,1.122,1.122,0,0,1-.034.271C87.057,57.312,87.091,57.334,87.182,57.289Zm0,5.685c.044-.09.1-.192.169-.3s.034-.191-.1-.237a.448.448,0,0,1-.1.271A.187.187,0,0,0,87.182,62.974Zm-.068-6.9c.044.136.068.147.068.034S87.159,55.981,87.115,56.071Zm0,2.775v.271a.6.6,0,0,0,.068.271.188.188,0,0,0,.034-.271.242.242,0,0,1-.034-.271h.068c.044-.09.09-.18.135-.271a.222.222,0,0,0-.068-.271.6.6,0,0,0-.067.271.609.609,0,0,1-.068.271Zm.135,3.384c-.045.181-.045.192,0,.034S87.294,62.095,87.25,62.23Zm.067-6.43a.453.453,0,0,1,.1-.271.188.188,0,0,0-.034-.271.448.448,0,0,1-.1.271A.187.187,0,0,0,87.317,55.8Zm0,6.227c.045.135.068.147.068.034S87.362,61.937,87.317,62.027Zm.068-3.723c.09.046.135,0,.135-.135s-.023-.2-.068-.2A.537.537,0,0,1,87.385,58.3Zm.135,3.452a.328.328,0,0,1,.068-.169c.044-.068.022-.124-.068-.169.044.091.034.159-.034.2S87.43,61.712,87.52,61.756Zm.068-6.667c0-.112-.023-.1-.068.034C87.565,55.214,87.588,55.2,87.588,55.089ZM87.52,61.35c.044,0,.112-.044.2-.135C87.588,61.215,87.52,61.26,87.52,61.35Zm.068-2.843c-.045.181-.057.2-.034.068S87.588,58.418,87.588,58.507Zm.068-.812c-.091.045-.113.091-.068.135s.068,0,.068-.135h.068c-.091-.09-.113-.136-.068-.136Zm0,5.008c.045.135.068.147.068.034S87.7,62.614,87.656,62.7Zm.068-2.369v.135c.09.045.146.023.169-.068s-.012-.135-.1-.135A.06.06,0,0,1,87.724,60.335Zm0,.474c.044.136.068.147.068.034S87.768,60.719,87.724,60.808Zm0,1.76c.044.091.068.079.068-.034S87.768,62.433,87.724,62.568Zm.136-8.6c-.091,0-.1.023-.034.068s.078.023.034-.068a.861.861,0,0,0,.2-.338c.044-.136.022-.225-.068-.271a.607.607,0,0,1-.068.271A.751.751,0,0,0,87.859,53.973Zm0-1.083q-.068.339,0,.1T87.859,52.89Zm.135,3.519a.912.912,0,0,1,.1-.643,1.2,1.2,0,0,0,.169-.575,4.1,4.1,0,0,0-.3.575A.6.6,0,0,0,87.994,56.409Zm.068,3.384a.723.723,0,0,1,.135-.406.34.34,0,0,0,0-.406.683.683,0,0,1-.135.44A.287.287,0,0,0,88.062,59.793Zm0-5.144c.044.091.068.079.068-.034S88.107,54.514,88.062,54.649Zm0,5.347c.044.091.068.079.068-.034S88.107,59.861,88.062,60Zm.068-7.851c.044.091.068.079.068-.034S88.174,52.01,88.13,52.145Zm0,9.814c.044.135.068.147.068.034S88.174,61.869,88.13,61.959Zm.338-6.836a.372.372,0,0,1,.068-.372c.09-.112.044-.191-.135-.237a.306.306,0,0,1-.034.3Q88.265,54.988,88.468,55.123Zm-.135-3.79.068.068c0-.136-.023-.2-.068-.2Zm.2,10.9c-.045,0-.079.046-.1.135s-.057.091-.1,0a3.33,3.33,0,0,0,.237-.677q.1-.406.3-.474a1.663,1.663,0,0,0-.169.508A1.69,1.69,0,0,1,88.536,62.23Zm0-3.181a.33.33,0,0,1,.068-.17c.044-.068,0-.078-.135-.034C88.468,58.981,88.49,59.049,88.536,59.049Zm.135-7.851c0-.18-.045-.247-.135-.2C88.536,51.13,88.58,51.2,88.671,51.2Zm-.135,8.19c.044.091.068.079.068-.034S88.58,59.252,88.536,59.387Zm.406,7.174a.661.661,0,0,0-.169.237c-.023.068-.1.1-.237.1a.355.355,0,0,1,.135-.3A.244.244,0,0,1,88.942,66.561Zm-.2-6.362a1.048,1.048,0,0,0-.136.169c-.045.067-.023.125.068.169a.537.537,0,0,0,.068-.338c.09.045.146,0,.169-.136s.011-.225-.034-.271A1.034,1.034,0,0,0,88.739,60.2Zm-.068-1.083c-.091,0-.1.034-.034.1s.078.034.034-.1c.09-.09.1-.169.034-.237S88.626,58.891,88.671,59.116ZM88.6,50.453c.044,0,.068.012.068.034s.022.034.068.034c0-.135-.046-.18-.136-.135Zm0,3.384c.044.091.068.079.068-.034S88.648,53.7,88.6,53.837Zm.271,4.2a.276.276,0,0,1-.067.2c-.045.045-.023.068.067.068a.2.2,0,0,0,.068-.135c0-.09-.023-.135-.068-.135a.343.343,0,0,1,.136-.406c0,.091.022.136.068.136a.06.06,0,0,0,.068-.068c0-.044-.045-.068-.135-.068,0-.135-.023-.2-.068-.2a3.156,3.156,0,0,1-.237.372.358.358,0,0,0-.034.44.23.23,0,0,0,.068-.169C88.739,58,88.783,57.989,88.874,58.034Zm0-1.218h-.067a.425.425,0,0,0-.1.2c-.023.091.011.135.1.135-.045-.09-.045-.146,0-.169s.067-.078.067-.169c.09-.044.146-.158.169-.339a.468.468,0,0,0-.1-.406.405.405,0,0,1-.068.406C88.783,56.568,88.783,56.68,88.874,56.815Zm0-4.738q-.068.34.034.1T88.874,52.077Zm.136,14.416a.229.229,0,0,0-.1-.2c-.067-.045-.057-.112.034-.2.09-.045.135-.045.135,0s.044.091.135.135C89.213,66.269,89.145,66.358,89.01,66.494Zm-.068-16.108Zm-.068,8.257c.045.135.068.135.068,0S88.919,58.507,88.874,58.643Zm.406,2.4a3.5,3.5,0,0,0-.338.643.748.748,0,0,1,.1-.711,4.369,4.369,0,0,0,.372-.711A1.089,1.089,0,0,1,89.28,61.045Zm-.2-.711c.09.045.112.125.068.237a.729.729,0,0,1-.135.237c-.091-.044-.1-.112-.034-.2A.447.447,0,0,0,89.077,60.335Zm-.068,2.843c.135.045.169.1.1.169a.325.325,0,0,0-.1.237c-.091-.045-.1-.1-.034-.169A.188.188,0,0,0,89.01,63.178Zm-.068,3.384.068-.068A.06.06,0,0,1,88.942,66.561Zm.271-11.1v-.034c0-.068-.023-.056-.068.034-.045.226-.045.316,0,.271A.4.4,0,0,0,89.213,55.462Zm-.068,1.9v.135h.135a.12.12,0,0,0-.135-.135c.044-.135.078-.18.1-.135s.078.068.169.068a.326.326,0,0,1,.1-.237.414.414,0,0,0,.1-.3h-.068a1.549,1.549,0,0,1,.474-.88.275.275,0,0,1-.068.2c-.045.046-.023.091.068.136a.485.485,0,0,0,.068-.406.476.476,0,0,1,.067-.406c-.091,0-.2.1-.338.3a4.781,4.781,0,0,0-.372.677,6.948,6.948,0,0,0-.271.677C89.111,57.255,89.1,57.357,89.145,57.357Zm.068-7.107a.327.327,0,0,1,.068-.169c.044-.068.022-.1-.068-.1a.334.334,0,0,1-.068.169C89.1,50.216,89.122,50.25,89.213,50.25Zm-.068-1.421c.044.135.068.147.068.033S89.189,48.739,89.145,48.829Zm.339,10.694a.277.277,0,0,1-.068.3.509.509,0,0,0-.136.3.2.2,0,0,1,0-.3A1.757,1.757,0,0,0,89.483,59.523Zm-.034,2.91a.59.59,0,0,1-.237.339,1.248,1.248,0,0,0,.1-.339,1.025,1.025,0,0,1,.169-.406A.535.535,0,0,1,89.449,62.433Zm.034-5.617a.755.755,0,0,1-.034.237c-.023.068-.079.079-.169.034Q89.212,56.951,89.483,56.815Zm0-8.054h-.068c.044.091.034.158-.034.2s-.057.113.034.2a.466.466,0,0,1,.034-.2.47.47,0,0,0,.034-.2c.044,0,.09-.044.135-.136a.135.135,0,0,0-.068-.2c0,.091-.023.147-.067.169S89.438,48.671,89.483,48.761Zm-.068,1.015c.044.045.068.023.068-.068C89.392,49.709,89.37,49.732,89.416,49.776Zm0,5.55c.09.046.135.023.135-.068v-.2C89.46,55.011,89.416,55.1,89.416,55.326Zm.068.406c-.045.181-.057.193-.034.034S89.483,55.6,89.483,55.732Zm0,1.083a.06.06,0,0,1,.067-.068Zm.067,15.025a.06.06,0,0,0-.067.068A.06.06,0,0,0,89.551,71.841Zm0-21.794c.045.135.068.147.068.034S89.6,49.957,89.551,50.047Zm0,9.069c.136-.044.192.012.169.169s-.079.215-.169.169a.3.3,0,0,1,.034-.135A.245.245,0,0,0,89.551,59.116Zm.339,1.76c.09.091.09.2,0,.338a3.093,3.093,0,0,0-.2.338q-.137-.135,0-.338A3.427,3.427,0,0,0,89.889,60.876Zm.271-2.437c.09.045.135.023.135-.068s.022-.09.068,0a2.827,2.827,0,0,0-.3.711.939.939,0,0,1-.44.575,4.556,4.556,0,0,1,.271-.575A3.73,3.73,0,0,0,90.16,58.44Zm-.474-1.421c.045.091.068.079.068-.034S89.731,56.883,89.686,57.018Zm.1-9.307c.067.068.078.012.034-.169C89.731,47.588,89.72,47.644,89.788,47.712Zm.1-.778c0-.135.022-.2.068-.2-.091-.044-.147-.022-.169.068S89.8,46.934,89.889,46.934Zm.135,9.746c0,.091-.023.136-.068.136C89.957,56.725,89.979,56.68,90.025,56.68ZM89.957,57.7c.045-.09.068-.078.068.034S90,57.83,89.957,57.7Zm.136,13.875c-.091,0-.113.012-.068.034s.068.012.068-.034c.135,0,.2-.09.2-.271C90.16,71.3,90.093,71.39,90.093,71.57ZM90.16,59.32c.09.091.1.169.034.237a.326.326,0,0,0-.1.237.187.187,0,0,1-.034-.271A.408.408,0,0,0,90.16,59.32Zm-.067-6.295c.09,0,.157-.078.2-.237a.309.309,0,0,0-.135-.372q.067.271-.067.3T90.093,53.025Zm0,7.377c.044,0,.067.046.067.136s-.045.113-.135.068V60.47A.06.06,0,0,0,90.093,60.4Zm0-3.046c.044,0,.067.045.067.135v.068C90.115,57.56,90.093,57.492,90.093,57.357Zm.135,2.5c.09.045.112.1.068.169a.328.328,0,0,0-.068.169c-.091-.044-.1-.09-.034-.136S90.272,59.952,90.228,59.861Zm-.068-9.408c.045.136.068.147.068.034S90.2,50.363,90.16,50.453Zm0,5.212V55.8h.068a.06.06,0,0,1,.068-.068V55.6H90.16Zm.271.135c-.091-.044-.136-.022-.136.068a.215.215,0,0,1-.135.2c.09,0,.18-.09.271-.271.135-.044.169-.09.1-.135S90.431,55.665,90.431,55.8ZM90.3,49.167q-.068.34,0,.1T90.3,49.167Zm.136-3.316c.135-.136.135-.247,0-.339.044.091.034.159-.034.2S90.34,45.806,90.431,45.851Zm0,8.663v.068l-.068.067C90.363,54.56,90.386,54.514,90.431,54.514ZM90.5,59.32q.2,0,.1.1a.279.279,0,0,0-.1.169c-.091,0-.1-.022-.034-.068S90.543,59.41,90.5,59.32Zm.068-.677q0,.2-.1.1T90.566,58.643ZM90.5,48.9v-.3c0-.112-.023-.124-.067-.034v.271C90.431,48.964,90.453,48.987,90.5,48.9Zm.068-2.707a.2.2,0,0,0,.068-.135c0-.09-.023-.135-.068-.135.044.091.034.158-.034.2S90.475,46.189,90.566,46.189Zm.609,24.637a1.074,1.074,0,0,1-.609.474c-.046-.09-.034-.135.034-.135s.1-.045.1-.136q.135.137.2-.1C90.949,70.769,91.04,70.736,91.175,70.826ZM90.769,58.3c0,.091-.023.147-.068.169s-.068.079-.068.169h-.068c-.046-.09,0-.2.135-.339Zm-.2-6.7c.044.135.068.147.068.034S90.611,51.514,90.566,51.6Zm0,3.046a3.333,3.333,0,0,1,.169-.507c.067-.158.146-.237.237-.237.044.091.011.215-.1.372A2.973,2.973,0,0,1,90.566,54.649Zm.135.609c0-.09.022-.112.068-.067Zm.271,2.031c0,.045-.045.113-.135.2-.091-.044-.113-.1-.068-.169S90.881,57.245,90.972,57.289Zm-.2-13c.044.091.068.079.068-.034S90.814,44.158,90.769,44.294Zm.135,6.092h-.068a.06.06,0,0,1-.068.067v.136c.09.045.135-.022.135-.2.09,0,.1-.022.034-.068S90.859,50.3,90.9,50.386ZM90.769,58.3a1.315,1.315,0,0,1,.271-.677c.09.091.09.2,0,.339A2.274,2.274,0,0,1,90.769,58.3Zm.135-2.234v.136a.068.068,0,0,1,0-.136Zm-.068,2.572c.044-.136.068-.136.068,0S90.881,58.778,90.837,58.643Zm.068-2.572c0-.044.022-.056.068-.034S90.994,56.071,90.9,56.071Zm.474.474a.6.6,0,0,0-.169.271.6.6,0,0,1-.169.271c-.046,0-.068-.044-.068-.136h.068A.635.635,0,0,1,91.378,56.545Zm-.338-.812q.2,0,.067.136T91.04,55.732Zm.2,1.557a.151.151,0,1,1-.136.271c-.045-.09-.034-.135.034-.135S91.243,57.38,91.243,57.289Zm.271-5.212a.179.179,0,0,0-.2.2c-.091,0-.136.023-.136.068a.2.2,0,0,1-.068.135c.09.045.136.034.136-.034a.229.229,0,0,1,.068-.169.2.2,0,0,1,.135-.068c.044,0,.068-.044.068-.136.09-.044.112-.067.068-.067A.06.06,0,0,0,91.514,52.077Zm0,1.692a.9.9,0,0,0-.2.3.426.426,0,0,1-.2.237.527.527,0,0,1,.2-.474,3.312,3.312,0,0,1,.338-.2c0,.045-.011.067-.034.067s-.034.023-.034.068Zm-.339,1.151a.138.138,0,0,1-.034.1c-.023.023-.034.012-.034-.034A.06.06,0,0,1,91.175,54.92Zm.068-1.218a.06.06,0,0,1-.068.068C91.13,53.769,91.152,53.747,91.243,53.7Zm0,4.332a.06.06,0,0,1-.068.068C91.13,58.1,91.152,58.079,91.243,58.034Zm.135-4.535c0,.136-.045.2-.135.2a.276.276,0,0,1,.068-.2Zm.2,16.921a.179.179,0,0,1-.2.2c-.045-.09-.034-.135.034-.135A.228.228,0,0,0,91.581,70.419Zm-.2-16.988q0-.2.1-.1T91.378,53.431Zm.068.745c0,.135-.023.2-.068.2C91.378,54.244,91.4,54.176,91.446,54.176Zm.2,2.369c.135.045.158.113.068.2a1.044,1.044,0,0,0-.2.271q-.137-.135,0-.237A.293.293,0,0,0,91.649,56.545Zm-.068-2.775a.12.12,0,0,1,.136.136c0,.045-.034.079-.1.1s-.079.079-.034.169h-.135a.274.274,0,0,1,.068-.2A.277.277,0,0,0,91.581,53.769ZM91.514,49.3c.044.135.068.147.068.034S91.558,49.213,91.514,49.3Zm.271,3.655c0,.091-.023.147-.067.169s-.068.079-.068.169c-.091,0-.113-.056-.068-.169S91.694,52.957,91.784,52.957Zm-.135,1.489c-.091.136-.091.125,0-.034S91.739,54.267,91.649,54.446Zm.068-2.64Zm-.068,3.113h.135v.135h-.135Zm.135,15.364q.135-.135,0-.2t0-.2h.2v-.136c.09-.044.135.023.135.2-.091,0-.135.068-.135.2S91.92,70.33,91.784,70.284ZM91.717,53.3h.2c-.091.091-.159.135-.2.135Zm.2.88-.068.068c-.091.045-.113.067-.068.067a55.6,55.6,0,0,0,.136-.135c.09,0,.1-.022.034-.068S91.874,54.086,91.92,54.176Zm-.136-1.218c0-.09.068-.136.2-.136A.217.217,0,0,1,91.784,52.957Zm.2,3.249c.044.091.044.135,0,.135s-.068.045-.068.135a.163.163,0,0,1-.1-.2C91.841,56.184,91.9,56.162,91.988,56.206Zm-.136,11.066c.045.023.068.012.068-.034C91.829,67.238,91.807,67.25,91.852,67.272Zm.339-15.939a.119.119,0,0,0-.135.135.06.06,0,0,0-.068.068V51.6q-.2,0-.1.1t.1-.1v-.068l.068-.068.135-.135a.157.157,0,0,0,.169-.1.658.658,0,0,1,.169-.237C92.394,50.995,92.281,51.108,92.191,51.333Zm-.2,2.436c0-.09.022-.146.068-.169s.022-.056-.068-.1a.333.333,0,0,1-.068.169C91.874,53.736,91.9,53.769,91.988,53.769Zm-.068-4.061c.045-.136.068-.146.068-.034S91.965,49.8,91.92,49.709Zm.068,4.873c.044-.136.068-.146.068-.034S92.032,54.673,91.988,54.582Zm.135,1.286c.09.045.112.1.068.169s-.113.079-.2.034C92.077,55.981,92.123,55.913,92.123,55.868Zm-.067-6.836c.044-.136.056-.124.034.034S92.055,49.213,92.055,49.032Zm0,3.655a.06.06,0,0,1,.067-.068A.06.06,0,0,1,92.055,52.687Zm0,15.3c.044.091.067.079.067-.034S92.1,67.848,92.055,67.983Zm.1-15.432c.022,0,.034.023.034.068h-.068C92.123,52.574,92.134,52.551,92.157,52.551Zm.3.406a.275.275,0,0,0-.068.2.406.406,0,0,0-.271.271c.18-.044.271-.135.271-.271.09,0,.135-.068.135-.2ZM92.123,66.9c.044.135.068.147.068.034S92.167,66.81,92.123,66.9Zm.542,2.369a.857.857,0,0,1-.2.339l-.271.271a.228.228,0,0,1,.1-.2c.068-.045.078-.136.034-.271q.2.136.2,0A.12.12,0,0,1,92.665,69.269Zm-.339-20.914c0-.136-.011-.124-.034.034S92.281,48.536,92.326,48.355Zm.542,3.587c-.136,0-.237.091-.3.271s-.147.226-.237.135c.09-.135.169-.247.237-.338s.146-.2.237-.339c0,.091.011.135.034.135S92.868,51.852,92.868,51.942Zm-.339-4.061c0-.135-.011-.124-.034.034S92.484,48.062,92.529,47.881Zm0,.2c.045,0,.068.068.068.2a.061.061,0,0,0-.068-.068Zm.136-.474ZM92.6,53.431c.044.136.068.147.068.034S92.641,53.341,92.6,53.431Zm.135,13.807h-.067l-.068.068C92.687,67.306,92.732,67.284,92.732,67.238ZM92.8,46.8q.27.137.1.3a.467.467,0,0,0-.169.3c-.135-.09-.147-.169-.034-.237S92.844,46.979,92.8,46.8ZM92.665,69H92.8c0,.181-.045.271-.135.271ZM92.8,53.025l-.068.068a.06.06,0,0,0,.068-.068q.2,0,.1-.1T92.8,53.025Zm.136,1.083a.8.8,0,0,0,.135-.2A.222.222,0,0,0,93,53.634a.719.719,0,0,0-.135.237C92.822,53.984,92.844,54.063,92.935,54.108ZM93,46.121a.311.311,0,0,0,.169-.169c.022-.068.078-.078.169-.034a.615.615,0,0,0-.2.44.413.413,0,0,1-.271.372.551.551,0,0,1,.068-.3A.561.561,0,0,0,93,46.121Zm.2,5.482c-.181.091-.2.135-.068.135S93.3,51.695,93.206,51.6Zm-.068,14.281a.536.536,0,0,1,.034-.169q.033-.1-.1-.1C93.071,65.795,93.093,65.885,93.138,65.885Zm.542-21.455a.519.519,0,0,0-.237.372q-.035.238-.1.508c-.091.091-.135.158-.135.2.09.046.135-.022.135-.2.09,0,.135.012.135.034s.022.034.068.034a.385.385,0,0,1,0-.44.8.8,0,0,0,.135-.508c.044-.09.1-.192.169-.3a.328.328,0,0,0-.034-.372.547.547,0,0,1-.1.338A.351.351,0,0,0,93.68,44.429Zm.609,7.716a1.182,1.182,0,0,0-.237.372.425.425,0,0,1-.44.237v.2c-.045.091-.1.135-.169.135a.553.553,0,0,0-.237.068c.09-.044.112-.011.068.1s-.023.169.068.169a.512.512,0,0,1,.169-.2.3.3,0,0,0,.1-.271,1.572,1.572,0,0,0,.406-.271,3.935,3.935,0,0,1,.406-.338c-.135-.135-.181-.2-.135-.2q.066-.269-.1-.1T94.289,52.145Zm-1.083,0v.136C93.3,52.191,93.3,52.145,93.206,52.145Zm.068,13.266c0,.181.011.192.034.034S93.318,65.276,93.274,65.411Zm.2-14.112c-.091-.068-.113-.011-.068.169C93.544,51.424,93.567,51.367,93.477,51.3Zm0,2.944c.044.135.034.169-.034.1S93.386,54.244,93.477,54.244Zm0,0a.275.275,0,0,1,.068-.2q.067.136,0,.2Zm.339-.406a.11.11,0,0,0-.034.135c.022.045-.011.068-.1.068a.155.155,0,0,0,.034-.169C93.69,53.8,93.724,53.793,93.815,53.837Zm.2-1.624c0-.18-.023-.271-.068-.271a.16.16,0,0,1-.135.169c-.091.023-.113.079-.068.169.09.045.135.034.135-.034S93.927,52.168,94.018,52.213ZM93.815,65a.888.888,0,0,1,.034-.2c.022-.09-.012-.112-.1-.068C93.747,64.915,93.77,65,93.815,65Zm0,.812q.067.136.1,0T93.815,65.817Zm.2-22.336c-.091.046-.1.1-.034.17s.078.011.034-.17h.068q.2-.2,0-.2a.138.138,0,0,1-.034.1A.138.138,0,0,0,94.018,43.482Zm0,8.257c.044.091.068.113.068.068a.06.06,0,0,0-.068-.068c.044-.09.034-.112-.034-.068S93.927,51.739,94.018,51.739Zm.2-.88a.12.12,0,0,0-.136-.135c0,.135.022.2.068.2A.06.06,0,0,1,94.221,50.859Zm-.068-6.565c.044-.09.068-.078.068.034S94.2,44.429,94.153,44.294Zm.136,19.763c-.091,0-.136.023-.136.068C94.243,64.125,94.289,64.1,94.289,64.057Zm.135-21.591a.275.275,0,0,0-.068.2c-.091.045-.113.068-.067.068a.06.06,0,0,0,.067-.068c-.045,0-.023-.068.068-.2.09-.044.112-.09.068-.135S94.424,42.331,94.424,42.466Zm0,1.083a.134.134,0,0,1,.068.2.217.217,0,0,1-.2.135A1.192,1.192,0,0,0,94.424,43.549Zm0,20.237c.044,0,.068.012.068.034s.022.034.068.034c-.091-.09-.1-.17-.034-.237s.034-.1-.1-.1c.044.091.044.135,0,.135S94.379,63.7,94.424,63.787Zm.2-13.807c.044-.09,0-.136-.135-.136.045.091.034.159-.034.2s-.057.091.034.135A.785.785,0,0,0,94.627,49.979Zm-.2,2.234h.135v-.068h-.135Zm0,.812a.12.12,0,0,1,.135.136c0,.091-.045.113-.135.068v-.2Zm.135-10.9c.09,0,.112-.011.068-.034S94.56,42.084,94.56,42.128Zm.068,21.185a.173.173,0,0,0,.237-.067c.068-.09.056-.158-.034-.2A1.05,1.05,0,0,0,94.627,63.313ZM94.9,51.942a.06.06,0,0,1,.067-.068.12.12,0,0,0-.135-.135C94.83,51.874,94.852,51.942,94.9,51.942Zm0,14.619a.06.06,0,0,0,.067-.068C94.875,66.539,94.852,66.561,94.9,66.561Zm.067-14.213q-.068.271.068.169C95.123,52.45,95.1,52.394,94.966,52.348Zm.135-2.707c.045.091.068.079.068-.034S95.145,49.505,95.1,49.641Zm.136,16.109c.09.045.135.091.135.135s.044.068.135.068l-.135.271a.217.217,0,0,1-.2.135.508.508,0,0,1-.034-.3Q95.168,65.952,95.236,65.75Zm0-3.317c.044.091.067.079.067-.034S95.281,62.3,95.236,62.433Zm.339,3.181q-.068.137,0,.2c.044.045.022.091-.068.135.044-.09.022-.146-.068-.169s-.113-.078-.068-.169Zm-.136-2.234c.045.136.068.147.068.034S95.484,63.291,95.439,63.38Zm.609,1.151Zm.135-13.672c-.091.091-.091.135,0,.135S96.274,50.95,96.184,50.859ZM96.252,40.5c-.091,0-.113.012-.068.034s.068.012.068-.034c.09-.044.1-.1.034-.169S96.206,40.324,96.252,40.5Zm0,23.689c.044.091.068.079.068-.034S96.3,64.057,96.252,64.193Zm.271-12.928h.135c0-.044.011-.068.034-.068s.034-.044.034-.135h-.2Zm.338.339a.276.276,0,0,1-.2.068C96.658,51.627,96.725,51.6,96.861,51.6Zm0-13.2H97q.067.137,0,.2a.765.765,0,0,0-.135.2c-.091-.044-.113-.1-.068-.169A.422.422,0,0,0,96.861,38.405Zm.406,12.928c-.045,0-.113.045-.2.135v-.2C97.2,51.265,97.267,51.289,97.267,51.333Zm.338,11.845c.136.091.146.135.034.135S97.514,63.268,97.605,63.178Zm.068-.948a.281.281,0,0,1,.2.068v-.2q0,.136-.1.1C97.707,62.174,97.673,62.185,97.673,62.23Zm.406.135c.18.091.18.2,0,.339a.433.433,0,0,0-.2.474c-.135-.09-.135-.214,0-.372A.7.7,0,0,0,98.079,62.365Zm-.2-.338.338-.508a.829.829,0,0,0,.136-.643,2.641,2.641,0,0,1-.339.609A.623.623,0,0,0,97.876,62.027Zm.609-1.286Zm.271.609a.223.223,0,0,1-.068.271c-.045,0-.068-.044-.068-.136a.2.2,0,0,1,.068-.135Zm0,0c-.045-.135-.034-.18.034-.135S98.846,61.306,98.756,61.35Zm.135-1.286q-.068-.135.034-.169c.068-.022.056-.056-.034-.1a.334.334,0,0,1-.068.169C98.778,60.03,98.8,60.064,98.891,60.064Zm.2-.338c-.045-.09-.034-.158.034-.2s.056-.068-.034-.068c-.045,0-.079.046-.1.136S99,59.726,99.094,59.726Zm-.068,1.015q.135-.135.068.1T99.027,60.741Zm.237-4.163c.068-.022.056-.056-.034-.1a.418.418,0,0,0-.1.169q-.035.1.1.1C99.184,56.658,99.2,56.6,99.263,56.578Zm.643,1.658a.692.692,0,0,1,.034-.271.244.244,0,0,0-.034-.2.421.421,0,0,0-.135.3C99.771,58.181,99.816,58.237,99.906,58.237Zm.542.068c0-.135-.012-.124-.034.034S100.4,58.485,100.448,58.3Zm.271-.812c.044-.135.067-.146.067-.034S100.763,57.583,100.719,57.492Zm.271-.948c.135.091.146.192.034.3a.342.342,0,0,0-.1.372c-.136-.09-.147-.18-.034-.271A.366.366,0,0,0,100.989,56.545Zm.2-.609c.044.226.034.3-.034.237S101.1,56.026,101.192,55.935Zm0,0a.417.417,0,0,1,.068-.237.226.226,0,0,0,0-.237.2.2,0,0,1,.1.237.472.472,0,0,1-.1.237Zm.271-2.5h.2a7.3,7.3,0,0,1-.068,1.015,7.173,7.173,0,0,1-.2.948,1.682,1.682,0,0,1,0-.948A2.538,2.538,0,0,0,101.463,53.431Zm.271-2.843c-.091,0-.125-.011-.1-.034S101.688,50.544,101.734,50.589Zm0,4.467c0-.135-.011-.124-.034.034S101.688,55.236,101.734,55.055Zm0-4.467a.085.085,0,0,1,0,.135A.084.084,0,0,1,101.734,50.589Zm0,.135c.09,0,.124.012.1.034S101.778,50.769,101.734,50.724Zm.136.271c-.045,0-.057-.022-.034-.068S101.869,50.9,101.869,50.995Zm0,0c.09.046.1.091.034.135S101.824,51.13,101.869,50.995Z" transform="translate(0)" fill="url(#linear-gradient)"/>
  </g>
</svg>
