<svg xmlns="http://www.w3.org/2000/svg" xmlns:xlink="http://www.w3.org/1999/xlink" width="171.653" height="64.828" viewBox="0 0 171.653 64.828">
  <defs>
    <linearGradient id="linear-gradient" x1="0.5" y1="-0.584" x2="0.5" y2="1.786" gradientUnits="objectBoundingBox">
      <stop offset="0" stop-color="#25cede"/>
      <stop offset="0.325" stop-color="#21cadf"/>
      <stop offset="0.622" stop-color="#17bfe3"/>
      <stop offset="0.907" stop-color="#07acea"/>
      <stop offset="1" stop-color="#00a5ee"/>
    </linearGradient>
    <linearGradient id="linear-gradient-2" x1="0.5" y1="-0.123" x2="0.5" y2="1.347" xlink:href="#linear-gradient"/>
    <linearGradient id="linear-gradient-3" x1="0.5" y1="-0.587" x2="0.5" y2="1.74" xlink:href="#linear-gradient"/>
    <linearGradient id="linear-gradient-4" x1="0.5" y1="-0.326" x2="0.5" y2="1.014" xlink:href="#linear-gradient"/>
    <linearGradient id="linear-gradient-5" x1="0.5" y1="-0.191" x2="0.5" y2="1.424" xlink:href="#linear-gradient"/>
    <linearGradient id="linear-gradient-6" x1="0.5" y1="-0.131" x2="0.5" y2="1.403" xlink:href="#linear-gradient"/>
    <linearGradient id="linear-gradient-7" x1="0.5" y1="-1.966" x2="0.5" y2="12.874" xlink:href="#linear-gradient"/>
  </defs>
  <g id="Group_401" data-name="Group 401" transform="translate(-88.036 -140.711)">
    <path id="Path_370" data-name="Path 370" d="M257.79,175.022l-.014-.017-.014-.016-.015-.018-.014-.017-.014-.017-.015-.018-.013-.016-.015-.018-.014-.017-.014-.018-.014-.017-.014-.017-.015-.018-.014-.017-.014-.017-.014-.018-.014-.016-.015-.018-.015-.018-.014-.017-.014-.016-.015-.018-.014-.018-.014-.017-.014-.017-.014-.017-.014-.017-.014-.017-.015-.018-.014-.017-.014-.017-.015-.018-.014-.017-.014-.017-.015-.017-.014-.017-.015-.017-.014-.017-.015-.018-.014-.017-.014-.016-.015-.018-.014-.017-.014-.017-.015-.018-.013-.016-.015-.018-.014-.017-.015-.018-.014-.017-.014-.017-.015-.018-.014-.017-.014-.017-.014-.018-.014-.016-.015-.018-.015-.018-.014-.017-.014-.016-.015-.018-.015-.018-.014-.017-.014-.017-.014-.017-.014-.017-.014-.017-.014-.018-.014-.017-.014-.017-.015-.018-.014-.017-.014-.017-.014-.017-.014-.017-.014-.017-.014-.017-.015-.018-.014-.017-.014-.016-.015-.018-.014-.017-.014-.017-.014-.017-.014-.017-.014-.017-.014-.017-.015-.018-.014-.017-.014-.017-.015-.018-.014-.017-.014-.017-.014-.017-.014-.017-.014-.017-.014-.017-.015-.018-.014-.016-.015-.018-.015-.018-.014-.017-.014-.017-.014-.017-.015-.017-.014-.017-.015-.018-.014-.017-.014-.017-.015-.018-.015-.018-.014-.017-.014-.017-.014-.017-.014-.017-.014-.017-.015-.018L256.1,173l-.014-.016-.015-.018-.014-.017-.014-.017-.014-.017-.014-.017-.015-.017-.014-.017-.015-.018-.014-.017-.014-.017-.015-.018-.014-.017-.014-.017-.014-.017-.014-.017-.014-.017-.014-.017-.014-.018-.014-.016-.015-.018-.015-.018-.014-.017-.014-.017-.014-.017-.014-.017-.014-.017-.015-.018-.014-.017-.014-.017-.015-.018-.014-.018a10.9,10.9,0,0,0-.874-.922,9.125,9.125,0,0,0-1.519-1.169c.022-.19.043-.38.051-.568a5.28,5.28,0,0,0-1.432-3.245l-.014-.016-.014-.016-.016-.019-.014-.016-.014-.017-.015-.018-.013-.015-.015-.018-.014-.017-.015-.018-.014-.016-.013-.016-.016-.019-.014-.016-.014-.017-.015-.018-.013-.015-.015-.018-.015-.018-.014-.016-.014-.016-.015-.018-.015-.018-.014-.016-.014-.017-.014-.017-.014-.017-.014-.017-.015-.018-.014-.016-.013-.016-.016-.019-.014-.016-.014-.017-.014-.017-.014-.017-.014-.017-.014-.017-.015-.018-.014-.016-.014-.016-.016-.019-.014-.016-.014-.017-.015-.018-.013-.016-.015-.018-.014-.017-.015-.018-.014-.016-.014-.016-.016-.019-.014-.016-.014-.017-.015-.018-.013-.015-.015-.018-.015-.018-.014-.016-.014-.016-.015-.018-.015-.018-.014-.016-.014-.017-.014-.017-.014-.017-.014-.017-.015-.018-.014-.016-.014-.016-.016-.019-.014-.016-.014-.017-.014-.017-.014-.017-.014-.017-.014-.017-.015-.018-.014-.016-.014-.016-.016-.019-.014-.016-.014-.017-.014-.017-.014-.017-.014-.017-.014-.017-.015-.018-.014-.016-.014-.016-.016-.019-.014-.016-.014-.017-.014-.017-.014-.017-.014-.017-.014-.017-.015-.018-.013-.016-.015-.018-.015-.018-.014-.016-.014-.017-.014-.017-.014-.017-.014-.017-.015-.018-.014-.016-.014-.016-.015-.018-.015-.018-.014-.016-.014-.017-.014-.017-.015-.017-.014-.017-.015-.018-.014-.016-.013-.016-.016-.019-.014-.016-.014-.017-.014-.017-.014-.017-.014-.017-.014-.017-.015-.018-.014-.016-.014-.016-.016-.019-.014-.016-.014-.017-.014-.017-.014-.017-.014-.017-.014-.017-.015-.018-.013-.015-.015-.018-.015-.018-.014-.016-.014-.017-.014-.017-.014-.017-.014-.017-.015-.018-.014-.016-.014-.016-.015-.018-.015-.018c-.078-.092-.146-.168-.2-.224a8.146,8.146,0,0,0-5.838-2.6l-.1,0h-.28a4.279,4.279,0,0,0-1.186.173l-.12.031a4.43,4.43,0,0,0-1.073.4l-.034.018-.043.022-.043.022-.043.022-.043.022-.043.022-.043.022-.043.022-.043.022-.043.022-.044.022-.043.022-.043.022-.044.022-.043.022-.043.022-.043.022-.043.022-.043.022-.043.022-.043.022-.043.022-.043.022-.043.022-.043.022-.043.022-.043.022-.043.022-.043.022-.044.022-.043.022-.043.022-.043.022-.044.022-.043.022-.043.022-.043.022-.043.022-.043.022-.043.022-.043.022-.043.022-.043.022-.043.022-.043.022-.043.022-.043.022-.043.022-.044.022-.043.022-.043.022-.043.022-.044.022-.043.022-.043.022-.043.022-.043.022-.043.022-.043.022-.043.022-.043.022-.043.022-.043.022-.043.022-.043.022-.043.022-.043.022-.043.022-.043.022-.043.022-.043.022-.044.022-.043.022-.043.022-.043.022-.035.017,0,0-.014-.017-.014-.017-.014-.017-.014-.017-.015-.017-.014-.017-.014-.017-.015-.017-.014-.017a5.19,5.19,0,0,0-.57-.526,2.724,2.724,0,0,0-.423-.761l-.014-.017-.014-.017-.015-.017-.014-.017-.014-.017-.014-.017-.014-.017-.014-.017-.014-.017-.014-.017-.014-.017-.014-.017-.014-.018-.014-.017-.014-.017-.014-.017-.014-.017-.014-.017-.014-.017-.014-.017-.014-.017-.014-.017-.014-.017-.014-.017-.014-.017-.014-.017-.014-.017-.014-.017-.015-.017-.014-.017-.014-.017-.015-.018-.014-.017-.014-.017-.014-.017-.014-.017-.014-.017-.014-.017-.014-.017-.014-.017-.014-.017-.015-.017-.014-.017-.015-.017-.014-.017-.014-.017-.015-.017-.014-.017-.014-.017-.014-.017-.014-.017-.014-.018-.014-.017-.014-.017-.014-.017-.014-.017-.015-.017-.014-.017-.014-.017-.014-.017-.014-.018-.014-.017-.014-.017-.014-.017-.014-.017-.014-.017-.014-.017-.014-.017-.014-.017-.014-.017-.014-.018-.014-.017-.014-.017-.014-.017-.014-.017-.014-.017-.014-.017-.014-.017-.014-.017-.014-.017-.014-.017-.014-.017-.014-.017-.014-.017-.014-.017-.014-.017-.014-.017-.014-.017-.014-.017-.014-.017-.015-.018-.014-.017-.014-.017-.014-.017-.014-.017-.014-.017-.014-.017-.014-.017-.014-.017-.015-.018-.014-.017-.014-.017-.014-.017-.014-.017-.014-.017-.014-.017-.014-.017-.014-.017-.014-.017-.014-.017-.014-.017-.014-.017-.014-.017-.014-.017-.014-.017-.014-.017-.014-.017-.014-.017-.014-.017-.014-.018-.014-.017-.014-.017-.014-.017-.014-.017-.014-.017-.014-.017-.014-.017-.014-.017-.014-.017-.015-.018-.014-.017-.014-.017-.014-.017-.014-.017-.014-.017-.014-.017-.014-.017-.014-.017-.014-.017-.014-.017-.014-.017-.014-.017-.014-.017-.014-.017-.014-.017-.014-.017-.014-.017-.014-.017-.014-.017-.015-.017c-.054-.07-.11-.135-.166-.2a9.64,9.64,0,0,0-2.92-1.947,2.845,2.845,0,0,0-.9-.145,2.9,2.9,0,0,0-1.354.34l-.012.008-.031.014-.012.007-.031.014-.012.007-.032.015-.012.007-.031.014-.012.007-.031.014-.012.008-.031.014-.012.007-.031.014-.012.008-.031.014-.012.007-.031.014-.012.007-.031.014-.012.007-.031.014-.012.007-.031.014-.012.007-.032.014-.012.007-.031.014-.012.007-.031.014-.012.007-.031.014-.012.008-.031.014-.012.007-.031.014-.012.007-.031.014-.012.008-.032.014-.012.007-.031.014-.012.007-.031.014-.012.007-.031.014-.012.007-.031.014-.012.007-.031.014-.012.007-.032.014-.012.008-.031.014-.012.007-.031.014-.012.008-.031.014-.012.007-.031.014-.012.007-.031.014-.012.007-.032.014-.012.007-.032.014-.012.008-.031.014-.012.007-.031.014-.012.007-.031.014-.012.007-.031.014-.012.007-.031.014-.012.007-.031.014-.012.007-.031.014-.012.007-.031.014-.012.007-.031.014-.012.007-.031.014-.012.007-.031.014-.012.007-.031.014-.012.008-.031.014-.012.007-.031.014-.012.008-.031.014-.012.007-.031.014-.012.007-.031.014-.012.007-.032.014-.012.007-.031.014-.012.008-.032.014-.012.007-.031.014-.012.007-.031.014-.012.007-.031.014-.012.007-.031.014-.012.007-.031.014-.012.007-.032.014-.012.008-.031.014-.012.007-.031.014-.012.007-.031.014-.012.007-.031.014-.012.007-.031.014-.012.008-.032.014-.012.007-.031.014-.012.008-.031.014-.012.007-.031.014-.012.007-.031.014-.012.007-.032.014-.012.007-.031.014-.012.008-.032.014-.012.007-.031.014-.012.007-.031.014-.012.007-.031.014-.012.007-.031.014-.012.007-.031.014-.012.007-.031.014-.012.008-.031.014-.012.007-.031.014-.012.007-.031.014-.012.007-.031.014-.012.007-.031.014-.012.008-.031.014-.012.007-.031.014-.012.008-.031.014-.012.007-.031.014-.012.007-.031.014-.012.007-.031.014-.012.007-.032.014-.012.008-.031.014-.012.007-.032.014-.012.008-.031.014-.012.007-.031.014-.012.007-.031.014-.012.007-.031.014-.012.007-.031.014-.012.008-.032.014-.012.007-.032.014-.012.008-.031.014-.012.007-.031.014-.012.007-.031.014-.012.007-.031.014-.012.007-.031.014-.012.008-.032.014-.012.007-.031.014-.012.008-.031.014-.012.007-.031.014-.012.007-.032.015-.012.007-.031.014-.012.007-.032.014-.012.008-.031.014-.012.007-.031.014-.012.008-.031.014-.012.007-.031.014-.012.007-.031.014-.012.007-.031.014-.012.007-.031.014-.012.007-.031.014-.012.007-.031.014-.012.007-.031.014-.012.007-.031.014-.012.007-.031.014-.012.007-.031.014-.012.007-.031.014-.012.008-.031.014-.012.007-.031.014-.012.007-.032.014-.012.007-.031.014-.012.007-.031.014-.012.008-.032.014-.012.007-.031.014-.012.008-.031.014-.012.007-.031.014-.012.007-.031.014-.012.007-.031.014-.012.007-.032.014-.012.007-.032.014-.012.007-.031.014-.012.007-.031.014-.012.007-.031.014-.012.007-.031.014-.012.008-.031.014-.012.007-.032.014-.012.008-.031.014-.012.007-.031.014-.012.007-.032.014-.012.007-.031.014-.012.007-.031.014-.012.008-.032.014-.012.007-.031.014a3.116,3.116,0,0,0-.443.3c-.231-.017-.463-.028-.7-.028q-.287,0-.58.017l-.108.006a8.037,8.037,0,0,0-1.7.23,3.525,3.525,0,0,0-.615-1.077l-.014-.017-.014-.017-.015-.018-.014-.017-.014-.017-.014-.017-.014-.017-.014-.017-.014-.017L218.2,160l-.014-.017-.014-.017-.014-.018-.014-.017-.014-.017-.014-.017-.014-.017-.014-.017-.014-.017-.014-.017-.014-.017-.015-.017-.014-.017-.014-.017-.014-.017-.014-.017-.014-.017-.014-.017-.015-.017-.014-.017-.014-.017-.015-.018-.014-.017-.014-.017-.014-.017-.014-.017-.014-.017-.014-.017-.014-.017-.014-.017-.014-.017-.015-.018-.014-.017-.014-.017-.015-.017-.014-.017-.015-.017-.014-.017-.014-.017-.014-.017-.014-.017-.014-.018-.014-.017-.014-.017-.014-.017-.014-.017-.014-.018-.014-.017-.014-.017-.014-.017-.014-.017-.015-.017-.014-.017-.014-.017-.014-.017-.014-.017-.014-.017-.014-.017-.014-.017-.014-.017-.014-.018-.014-.017-.014-.017-.014-.017-.014-.017-.014-.017-.015-.017-.014-.017-.014-.017-.014-.017-.015-.018-.014-.017-.014-.017-.014-.017-.014-.017-.014-.017-.014-.017-.014-.017-.014-.017-.014-.017-.015-.018-.014-.017-.014-.017-.014-.017-.014-.017-.014-.017-.014-.017-.014-.017-.014-.017-.014-.017-.014-.017-.014-.017-.014-.017-.014-.017-.014-.017-.014-.017-.015-.017-.014-.017-.014-.017-.015-.017-.014-.017-.014-.017-.014-.017-.014-.017-.014-.017-.014-.017-.014-.017-.014-.017-.014-.017-.015-.018-.014-.017-.014-.017-.014-.017-.014-.017-.014-.017-.014-.017-.014-.017-.014-.017-.014-.017-.015-.018-.014-.017-.014-.017-.014-.017-.014-.017-.014-.017-.014-.017-.014-.017-.014-.017-.014-.017-.014-.017-.014-.017-.014-.017-.014-.017-.014-.017-.014-.017-.014-.017-.014-.017-.014-.017-.014-.017-.014-.017a6.4,6.4,0,0,0-2.394-1.727,5.714,5.714,0,0,0-2.269-.5h0a4.1,4.1,0,0,0-1.71.353c-.017.007-.027.015-.043.022s-.027.014-.043.022-.027.014-.043.022-.027.014-.043.022-.027.014-.043.022-.027.014-.043.022l-.044.022c-.016.007-.027.014-.043.022s-.027.014-.043.022-.027.014-.043.022-.027.014-.043.022-.027.014-.043.022-.027.014-.043.022-.027.014-.043.022-.027.014-.043.022-.027.015-.044.022-.027.014-.043.022-.027.014-.043.022-.027.014-.043.022-.027.014-.043.022l-.043.022c-.016.007-.027.014-.043.022s-.027.014-.043.022-.027.014-.043.022-.027.014-.043.022l-.044.022c-.016.007-.027.014-.043.022l-.043.022c-.016.007-.027.014-.043.022s-.027.014-.043.022-.027.014-.043.022-.027.014-.043.022-.027.014-.043.022-.027.014-.043.022-.027.014-.043.022-.027.014-.043.022-.027.014-.043.022-.027.014-.043.022-.027.014-.043.022l-.043.022c-.016.007-.027.014-.043.022s-.027.014-.043.022-.027.014-.043.022-.027.014-.043.022l-.01.005c-1.867-1.856-5.22-2.842-8.188-2.842q-.282,0-.564.012a12.352,12.352,0,0,0-5.567,1.5l-.016.008-.043.021-.044.022-.043.022-.043.022-.043.022-.043.022-.044.022-.043.022-.043.022-.043.022-.043.022-.044.022-.043.021-.043.022-.043.022-.043.022-.044.022-.043.022-.043.022-.043.021-.044.022-.044.022-.043.021-.043.022-.043.022-.044.022-.043.022-.043.022L192.3,156l-.043.022-.044.022-.043.021-.043.022-.043.022-.043.022-.044.022-.043.022-.043.022-.043.022-.043.022-.044.022-.043.021-.043.022-.043.022-.043.022-.044.022-.043.022-.043.022-.043.022-.044.022-.044.022-.043.022-.043.022-.043.022-.044.022-.043.022-.043.022-.006,0c.083-.286.156-.6.224-.959s.117-.706.146-1.028a6.3,6.3,0,0,0-1.164-4.607l-.013-.015,0,0-.013-.014,0,0-.013-.014,0,0-.013-.015,0,0-.013-.015,0,0-.013-.015,0,0-.013-.015,0,0-.012-.014,0,0-.013-.015,0,0-.013-.015,0,0-.013-.015,0,0-.013-.015,0,0-.012-.014,0,0-.013-.015,0,0-.013-.015,0,0-.013-.015,0,0-.013-.015,0,0-.012-.014,0,0-.013-.014,0,0-.013-.015,0,0-.013-.014,0,0-.013-.015,0,0-.013-.015,0,0-.013-.015,0,0-.013-.015,0,0-.013-.015,0,0-.013-.014,0,0-.013-.015,0,0-.013-.015,0,0-.013-.015,0,0-.013-.015,0,0-.012-.014,0,0-.013-.015,0,0-.013-.015,0,0-.013-.015,0,0-.013-.015,0,0-.013-.014,0,0-.013-.014,0,0-.013-.014,0,0-.013-.015,0,0-.013-.014,0,0-.013-.014,0,0-.013-.015,0,0-.013-.014,0,0-.013-.015,0,0-.013-.015,0,0-.013-.014,0,0-.013-.015,0,0-.013-.015,0,0-.013-.015,0,0-.013-.015,0,0-.012-.014,0,0-.013-.015v0l-.013-.015,0,0-.013-.015,0,0-.013-.015,0,0-.012-.014,0,0-.013-.014,0,0-.013-.015,0,0-.013-.014,0,0-.013-.014,0,0-.013-.014,0,0-.013-.015,0,0-.013-.014,0,0-.013-.015,0,0-.013-.014,0,0-.013-.015,0,0-.013-.015,0,0-.013-.015,0,0-.013-.015,0,0-.012-.014,0,0-.013-.015,0,0-.013-.015,0,0-.013-.015,0,0-.013-.015,0,0-.013-.015,0,0-.013-.015,0,0-.013-.014,0,0-.013-.015,0,0-.013-.014,0,0-.012-.014,0,0-.013-.015,0,0-.013-.014,0,0-.013-.015,0,0-.013-.015,0,0-.013-.014,0,0-.013-.015,0,0-.013-.015,0,0-.013-.015,0,0-.013-.015,0,0-.012-.014,0,0-.013-.015,0,0-.013-.015,0,0-.013-.015,0,0-.013-.015,0,0-.013-.015,0,0-.013-.015,0,0-.013-.014,0,0-.013-.015,0,0-.013-.014,0,0-.013-.014,0,0-.013-.015,0,0-.013-.014,0,0-.013-.015,0,0-.013-.014,0,0-.013-.015,0,0-.013-.015,0,0-.013-.015,0,0-.013-.015,0,0-.012-.015,0,0-.013-.015,0,0-.013-.015,0,0-.013-.015,0,0-.013-.015,0,0-.013-.015,0,0-.013-.015,0,0-.013-.015,0,0L188.6,148l0,0-.013-.015,0,0-.012-.014,0,0-.013-.015,0,0-.013-.014,0,0-.013-.014,0,0-.013-.015,0,0-.013-.014,0,0-.013-.015,0,0-.013-.015,0,0-.013-.015,0,0-.013-.015,0,0-.013-.014,0,0-.013-.015,0,0-.013-.015,0,0-.013-.015,0,0-.013-.015,0,0-.013-.015,0,0-.013-.015,0,0-.013-.015,0,0-.013-.015,0,0-.012-.014,0,0-.013-.014,0,0-.013-.015,0,0-.013-.014,0,0-.013-.014,0,0-.013-.015,0,0-.013-.014,0,0-.013-.015,0,0-.013-.015,0,0-.013-.015,0,0-.013-.014,0,0-.013-.015,0,0-.013-.015,0,0a5.316,5.316,0,0,0-4.388-1.993,6.484,6.484,0,0,0-2.92.714l-.019.011-.025.011-.019.011-.025.011-.018.011-.025.011-.019.011-.025.011-.019.011-.025.011-.018.011-.025.011-.019.011-.025.011-.019.011-.025.011-.019.011-.025.011-.019.011-.025.011-.019.011-.025.011-.018.011-.025.011-.018.011-.025.011-.019.011-.025.011-.019.011-.025.011-.019.011-.025.011-.019.011-.025.011-.019.011-.025.011-.018.011-.025.011-.018.011-.025.011-.019.011-.025.011-.018.011-.025.011-.019.011-.025.011-.019.011-.025.011-.018.011-.025.011-.018.011-.025.011-.019.011-.025.011-.019.011-.025.011-.019.011-.025.011-.019.011-.025.011-.019.011-.025.011-.018.011-.025.011-.018.011-.025.011-.019.011-.025.011-.019.011-.025.011-.019.011-.025.011-.019.011-.025.011-.019.011-.025.011-.018.011-.022.009-.006-.007h0l-.013-.016h0l-.013-.016h0l-.013-.016v0l-.013-.016h0l-.013-.016h0l-.013-.016h0l-.013-.016h0l-.013-.016a4.187,4.187,0,0,0-.6-.523,2.656,2.656,0,0,0-.663-2.173l0,0-.012-.015,0,0-.012-.015,0,0-.012-.015,0,0-.012-.015,0,0-.012-.015,0,0-.012-.015,0,0-.012-.015,0,0-.012-.015,0,0-.012-.015,0,0-.012-.015,0,0-.012-.015,0,0-.012-.015,0,0-.012-.015,0,0-.012-.015,0,0-.012-.015,0,0-.012-.015,0,0-.012-.015,0,0-.012-.015,0,0-.012-.015,0,0-.012-.015,0,0-.012-.015,0,0-.012-.015,0,0-.012-.015,0,0-.012-.015,0,0-.012-.015,0,0-.012-.015,0,0-.012-.015,0,0-.012-.015,0,0-.012-.015,0,0-.012-.015,0,0-.012-.015,0,0-.012-.016,0,0-.012-.015,0,0-.012-.015,0,0-.012-.015,0,0-.012-.015,0,0-.012-.015,0,0-.012-.015,0,0-.012-.015,0,0-.012-.015,0,0-.012-.015,0,0-.013-.015,0,0-.012-.015,0,0-.012-.015,0,0-.012-.015,0,0-.012-.015,0,0-.012-.015,0,0-.012-.015,0,0-.012-.015,0,0-.012-.015,0,0-.012-.015,0,0-.012-.016,0,0-.012-.015,0,0-.012-.015,0,0-.012-.015,0,0-.012-.015,0,0-.012-.015,0,0-.012-.015,0,0-.012-.015,0,0-.012-.015,0,0-.013-.015,0,0-.012-.015,0,0-.012-.015,0,0-.012-.015,0,0-.012-.015,0,0-.012-.015,0,0-.012-.015,0,0-.012-.015,0,0-.012-.015,0,0-.012-.015,0,0-.012-.016,0,0-.012-.015,0,0-.012-.015,0,0-.012-.015,0,0-.012-.015,0,0-.012-.015,0,0-.012-.015,0,0-.012-.015,0,0-.012-.015,0,0-.012-.015,0,0-.013-.015,0,0-.012-.015,0,0-.012-.015,0,0-.012-.015,0,0-.012-.015,0,0-.012-.015,0,0-.012-.015,0,0-.012-.015,0,0-.012-.015,0,0-.012-.015,0,0-.012-.016,0,0-.012-.015,0,0-.012-.015,0,0-.012-.015,0,0-.012-.015,0,0-.012-.015,0,0-.012-.015,0,0-.012-.015,0,0-.012-.015,0,0-.013-.015,0,0-.012-.015,0,0-.012-.015,0,0-.012-.015,0,0-.012-.015,0,0-.012-.015,0,0-.012-.015,0,0-.012-.015,0,0-.012-.015,0,0-.012-.015,0,0-.012-.016,0,0-.012-.015,0,0-.012-.015,0,0-.012-.015,0,0-.012-.015,0,0-.012-.015,0,0-.012-.015,0,0-.012-.015,0,0-.012-.015,0,0-.012-.015,0,0-.012-.015,0,0-.012-.015,0,0-.012-.015,0,0-.012-.015,0,0-.012-.015,0,0-.012-.015,0,0-.012-.015,0,0-.012-.015,0,0-.012-.015,0,0-.012-.015,0,0-.012-.016,0,0-.012-.015,0,0-.012-.015,0,0-.012-.015,0,0-.012-.015,0,0-.012-.015,0,0-.012-.015,0,0-.012-.015,0,0-.012-.015,0,0-.012-.015,0,0-.012-.015,0,0-.012-.015,0,0-.012-.015,0,0-.012-.015,0,0-.012-.015,0,0-.012-.015,0,0-.012-.015,0,0-.012-.015,0,0-.012-.015,0,0-.012-.016,0,0-.012-.015,0,0-.012-.015a2.661,2.661,0,0,0-2.377-.835l-1.8.282a2.655,2.655,0,0,0-.772.248l-.043.022-.043.022-.043.022-.043.022-.043.022-.043.022-.044.022-.043.022-.043.022-.043.022-.043.022-.043.022-.043.022-.043.022-.043.022-.043.022-.043.022-.043.022-.043.022-.043.022-.043.022-.043.022-.043.022-.043.022-.043.022-.043.022-.043.022-.043.022-.043.022-.043.022-.043.022-.044.022-.043.022-.043.022-.043.022-.043.022-.043.022-.043.022-.043.022-.043.022-.043.022-.043.022-.043.022-.043.022-.043.022-.043.022-.043.022-.043.022-.043.022-.043.022-.044.022-.043.022-.043.022-.043.022h0a2.6,2.6,0,0,0-1.524-.239l-1.815.262a2.658,2.658,0,0,0-.786.244l-.043.022-.043.022-.043.022L164,142.8l-.043.022-.043.022-.043.022-.043.022-.043.022-.043.022-.043.022-.043.022-.044.022-.043.022-.043.022-.043.022-.043.022-.043.022-.043.022-.043.022-.043.022-.043.022-.043.022-.043.022-.043.022-.043.022L163,143.3l-.043.022-.043.022-.043.022-.043.022-.044.022-.043.022-.043.022-.043.022-.043.022-.043.022-.043.022-.043.022-.043.022-.043.022-.043.022-.043.022-.043.022-.043.022-.043.022-.043.022-.043.022-.043.022L162,143.8l-.043.022-.043.022-.043.022-.043.022-.043.022-.043.022-.043.022-.043.022-.043.022-.043.022-.043.022-.043.022-.043.022-.043.022-.043.022-.043.022-.043.022-.043.022-.043.022-.043.022-.043.022-.043.022L161,144.3l-.044.022-.043.022-.043.022-.043.022-.043.022-.043.022-.043.022-.043.022-.043.022-.043.022-.043.022-.043.022-.043.022-.043.022-.043.022-.043.022-.043.022-.043.022-.043.022-.044.022-.043.022-.043.022L160,144.8l-.043.022-.043.022-.043.022-.043.022-.043.022-.043.022-.043.022-.043.022-.043.022-.043.022-.043.022-.043.022-.043.022-.043.022-.043.022-.043.022-.044.022-.043.022-.043.022-.043.022-.043.022-.043.022L159,145.3l-.043.022-.043.022-.043.022-.043.022-.043.022-.043.022-.043.022-.043.022-.043.022-.043.022-.043.022-.043.022-.044.022-.043.022-.043.022-.043.022-.043.022-.043.022-.043.022-.043.022-.043.022-.043.022-.043.022-.043.022-.043.022-.043.022-.043.022-.043.022-.043.022-.043.022-.043.022a2.658,2.658,0,0,0-1.458,1.769l-.309,1.244-.021.011-.043.022-.043.022-.043.022-.044.022-.043.022-.043.022-.043.022a2.658,2.658,0,0,0-1.5,1.769l-.373,1.449a2.659,2.659,0,0,0,.473,2.292l.011.012,0,0,.011.012,0,0,.011.012,0,0,.011.012,0,0,.011.012,0,0,.011.012,0,0,.011.012,0,0,.011.012,0,0,.011.012,0,0,.011.012,0,0,.011.012,0,0,.011.012,0,0,.011.012,0,0,.011.012,0,0,.011.012,0,0,.011.012,0,0,.011.012,0,0,.006.007-.282,1.131a5.056,5.056,0,0,0-.762-.067,4.007,4.007,0,0,0-2,.5h0l-.043.021h0l-.043.021h0c-.013.007-.031.014-.043.022h0l-.043.021h0l-.043.021h0l-.043.021h0l-.043.021h0l-.043.021h0l-.043.021h0c-.013.007-.031.014-.043.021h0l-.043.021h0l-.043.021h0c-.013.007-.031.014-.043.021h0l-.043.021h0c-.013.007-.031.015-.043.022h0l-.043.021h0c-.013.007-.031.014-.043.021h0l-.043.021h0l-.043.021h0l-.043.021h0l-.043.021h0c-.013.007-.031.014-.043.021h0l-.043.021h0l-.043.021h0l-.043.021h0l-.043.021h0l-.043.021h0l-.043.021h0c-.013.007-.031.014-.043.021h0l-.043.021h0l-.043.022h0l-.043.021h0l-.043.021h0c-.013.007-.031.014-.043.021h0l-.043.021h0c-.013.007-.031.014-.043.021h0l-.043.021h0c-.013.007-.031.014-.043.021h0l-.043.021h0l-.043.021h0c-.013.007-.031.014-.043.021h0l-.043.021h0c-.013.007-.031.015-.043.022h0l-.043.021h0l-.043.021h0l-.043.021h0l-.043.021h0c-.013.007-.031.014-.043.021h0l-.043.021h0l-.043.021h0l-.043.021h0l-.043.021h0l-.043.021h0l-.043.021h0c-.013.007-.031.014-.043.021h0l-.043.021h0l-.043.021h0l-.043.021h0l-.043.021h0l-.043.021h0l-.043.021h0c-.013.007-.031.014-.043.022h0l-.043.021h0l-.043.021h0l-.043.021h0l-.043.021h0l-.043.021h0l-.043.021h0l-.043.021h0l-.043.021h0l-.043.021h0l-.043.021h0l-.043.021h0c-.013.007-.031.014-.043.022h0l-.043.021h0l-.043.021h0l-.043.021h0l-.043.021h0l-.043.021h0l-.043.021h0c-.013.007-.031.014-.043.021h0l-.043.021h0l-.043.021h0l-.043.021h0l-.043.021h0l-.043.021h0l-.043.021h0c-.013.007-.031.014-.043.021h0l-.043.021h0l-.043.021h0l-.043.021h0l-.043.021h0c-.013.007-.031.014-.043.021h0l-.043.021h0c-.013.007-.031.014-.043.021h0l-.043.021h0l-.043.021h0l-.043.021h0l-.043.021h0c-.013.007-.031.014-.043.021h0l-.043.021h0l-.043.022h0l-.043.021h0l-.043.021h0l-.043.021h0l-.043.021h0c-.013.007-.031.014-.043.021h0l-.043.021h0l-.043.022h0l-.043.021h0l-.043.021h0c-.013.007-.031.014-.043.021h0l-.043.021h0c-.013.007-.031.014-.043.021h0l-.043.021h0c-.013.007-.031.014-.043.021h0l-.043.021h0l-.043.021h0c-.013.007-.031.014-.043.021h0l-.043.021h0c-.013.007-.031.014-.043.022h0l-.043.021h0l-.043.021h0l-.043.021h0l-.043.021h0l-.043.021h0l-.043.021h0l-.043.021h0l-.043.021h0l-.043.021h0l-.043.021h0l-.043.021h0l-.043.021h0l-.043.021h0l-.043.021h0l-.043.021h0l-.043.021h0c-.013.007-.031.014-.043.021h0l-.043.021h0c-.013.007-.031.014-.043.021h0l-.043.021h0l-.043.021h0l-.043.021h0l-.043.021h0l-.043.021h0l-.043.021h0c-.013.007-.031.014-.043.021h0l-.043.021h0l-.043.021h0l-.043.021h0l-.043.021a2.793,2.793,0,0,0-1.174,1.333,6.721,6.721,0,0,0-2.669.632l-.043.022-.043.022-.043.022-.043.022-.043.022-.043.022-.043.022-.043.022-.043.022-.043.022-.043.022-.043.022-.044.022-.043.022-.043.022-.044.022-.043.022-.043.022-.043.022-.043.022-.043.022-.043.022-.043.022-.043.022-.043.022-.043.022-.043.022-.043.022-.043.022-.043.022-.043.022-.044.022-.043.022-.043.022-.043.022-.044.022-.043.022-.043.022-.043.022-.043.022-.043.022-.043.022-.043.022-.043.022-.043.022-.043.022-.043.022-.043.022-.043.022-.043.022-.043.022-.043.022-.043.022-.043.022-.044.022-.043.022-.043.022-.043.022-.043.022-.043.022-.043.022-.043.022-.043.022-.011,0A7.835,7.835,0,0,0,135.4,161.6a11.024,11.024,0,0,0-2.241-.4l-.175-.016c-.239-.022-.547-.051-.886-.051a4.528,4.528,0,0,0-2.1.476l-.043.022-.043.022-.043.022-.043.022-.043.022-.043.022-.043.022-.043.022-.043.022-.043.022-.043.022-.043.022-.043.022-.043.022-.043.022-.044.022-.043.022-.043.022-.043.022-.043.022-.043.022-.043.022L129,162.1l-.043.022-.043.022-.043.022-.043.022-.043.022-.043.022-.043.022-.043.022-.043.022-.043.022-.043.022-.043.022-.044.022-.043.022-.043.022-.043.022-.043.022-.044.022-.043.022-.043.022-.043.022-.043.022L128,162.6l-.043.022-.043.022-.043.022-.043.022-.043.022-.043.022-.043.022-.043.022-.044.022-.043.022-.043.022-.043.022-.043.022-.043.022-.043.022-.043.022-.043.022-.043.022-.043.022-.043.022-.043.022-.043.022L127,163.1l-.043.022-.043.022-.043.022-.043.022-.043.022-.043.022-.043.022-.043.022-.043.022-.043.022-.044.022-.043.022-.043.022-.043.022-.043.022-.043.022-.043.022-.043.022-.043.022-.043.022-.043.022-.043.022L126,163.6l-.043.022-.043.022-.043.022-.043.022-.043.022-.043.022-.044.022-.043.022-.043.022-.03.014-.005-.006-.014-.017-.014-.017-.015-.018-.014-.017-.014-.017-.014-.017-.014-.017-.014-.017-.015-.017-.014-.017-.014-.017-.014-.017-.014-.017-.014-.017-.014-.017-.014-.017-.014-.017-.014-.017-.014-.017-.014-.017-.014-.017-.015-.018-.014-.017-.014-.017-.014-.017-.014-.017-.014-.017-.014-.017-.014-.017-.014-.017-.014-.017-.015-.018-.014-.017-.014-.017-.014-.017-.014-.017-.015-.017-.014-.017-.014-.017-.014-.017-.014-.017-.015-.018-.014-.017-.014-.017-.014-.017-.014-.017L124.9,163l-.014-.017-.014-.017-.014-.017-.014-.017-.014-.017-.014-.017-.014-.017-.014-.017-.014-.017-.014-.017-.014-.017-.014-.017-.014-.017-.015-.018-.014-.017-.014-.017-.014-.017-.014-.017-.014-.017-.014-.017-.014-.017-.014-.017-.014-.017-.014-.018-.014-.017-.014-.017-.014-.017-.014-.017-.014-.017-.014-.017-.015-.017-.014-.017-.014-.017-.015-.018-.014-.017-.014-.017-.014-.017-.015-.017-.014-.017-.014-.017-.014-.017-.014-.017-.014-.017-.014-.017-.014-.017-.014-.017-.014-.017-.014-.017-.014-.017-.014-.017-.014-.017-.014-.017-.014-.017-.014-.017-.014-.017-.014-.017-.014-.017-.014-.017-.014-.017-.015-.017-.014-.017-.014-.017-.015-.018-.014-.017-.014-.017-.014-.017-.014-.017-.014-.017-.014-.017-.014-.017-.014-.017-.014-.017-.015-.018-.014-.017-.014-.017-.014-.017-.014-.017-.014-.017-.014-.017-.014-.017-.014-.017-.014-.017-.014-.017-.014-.017-.014-.017-.014-.017-.014-.017-.014-.017-.014-.017-.014-.017-.014-.017-.014-.017-.014-.017a20.4,20.4,0,0,0-14.641-7.4c-.283-.018-.577-.03-.875-.037l-.129-.011c-.269-.022-.542-.045-.847-.045a5.34,5.34,0,0,0-1.306.158,7.286,7.286,0,0,0-1.646.654l-.043.022-.043.022L104,154.8l-.043.022-.043.022-.043.022-.044.022-.043.022-.043.022-.043.022-.043.022-.043.022-.044.022-.043.022-.043.022-.044.022-.043.022-.043.022-.043.022-.043.022-.043.022-.044.022-.043.022-.043.022-.043.022L103,155.3l-.043.022-.043.022-.043.022-.043.022-.043.022-.044.022-.043.022-.043.022-.043.022-.044.022-.043.021-.043.022-.043.022-.043.022-.044.022-.043.022-.043.022-.043.022-.044.022-.043.022-.043.022-.043.022L102,155.8l-.043.021-.044.022-.043.022-.043.022-.043.022-.044.022-.043.022-.043.022-.043.022-.043.022-.043.022-.044.022-.043.022-.043.022-.043.022-.044.022-.043.022-.043.022-.043.022-.043.021-.044.022-.043.022L101,156.3l-.043.022-.043.022-.043.022-.043.022-.043.022-.043.022-.043.022-.044.022-.043.022-.043.022-.043.022-.044.022-.043.022-.043.022-.043.022-.043.022-.043.022-.044.022-.043.022-.043.022-.044.022-.043.022L100,156.8l-.043.022-.043.022-.043.022-.044.022-.043.022-.043.022-.043.022-.044.022-.043.022-.043.022-.043.022-.043.022-.043.022-.044.022-.043.022-.043.022-.043.022-.043.022-.043.022-.043.022-.043.022-.043.022L99,157.3l-.044.022-.043.022-.043.022-.044.022-.043.022-.043.022-.043.022-.043.022-.043.022-.044.022-.043.022-.043.022-.043.022-.044.022-.043.022-.043.022-.043.022-.043.022-.043.022-.044.022-.043.022-.043.022-.043.022-.044.022-.043.022-.043.022-.043.022-.043.022-.044.022-.043.022-.043.022-.043.022c-.212.11-.432.232-.667.371-.035.021-.071.043-.1.066-1.016.667-3.395,2.229-2.553,4.583a2.881,2.881,0,0,0,.556.95l.014.017.014.017.014.017.014.017.014.017.014.017.014.017.014.017.014.017.014.017.014.017.014.017.014.018.014.017.014.017.014.017.014.017.014.017.014.017.014.017.014.017.014.017.014.017.014.017.014.017.014.017.014.017.014.017.014.017.014.017.014.017.014.017.014.017.014.017.014.017.014.017.014.017.014.017.014.017.014.017.014.017.014.017.014.017.014.017.014.017.014.017.014.017.014.017.014.017.014.017.014.017.014.017.014.017.014.017.014.017.014.017.014.017.014.017.014.017.014.017.014.017.014.017.014.017.014.017.014.017.014.017.014.017.014.017.014.017.014.017.014.017.014.017.014.017.014.017.014.017.014.017.014.017.014.017.014.017.014.017.014.017.014.017.014.017.014.017.014.017.014.017.014.017.014.017.014.017.014.017.014.017.014.017.014.017.014.017.014.018.014.017.014.017.014.017.014.017.014.017.014.017.014.017.014.017.014.017.014.017.014.017.014.017.014.017.014.017.014.017.014.017.014.017.014.017.014.017.014.017.014.017.014.017.014.017.014.017.014.017.014.017.014.017.014.017.014.017.014.017.014.017.014.017.014.017.014.017.014.017.014.017.014.017.014.017.014.018.014.017.014.017.014.017.014.017.014.017.014.017.014.017.014.017.014.017.015.017.014.017.014.017.014.017.014.017.014.017.014.017a4.138,4.138,0,0,0,3.163,1.106c.356,0,.736-.019,1.115-.045-.344.714-.693,1.467-1.041,2.247-.018,0-.035,0-.053,0a3.415,3.415,0,0,0-.818.27l-.043.022-.043.022-.044.022-.043.022-.043.022-.043.022-.044.022-.043.022-.043.022-.043.022-.043.022-.043.022-.043.022-.043.022-.043.022-.043.022-.043.022-.043.022-.043.022-.043.022-.043.022-.044.022-.043.022-.043.022-.043.022-.044.022-.043.022-.043.022-.043.022-.043.022-.043.022-.043.022-.043.022-.043.022-.043.022-.043.022-.043.022-.043.022-.043.022-.043.022-.044.022-.043.022-.043.022-.043.022-.044.022-.043.022-.043.022-.043.022-.043.022-.043.022-.043.022-.043.022-.043.022-.043.022-.043.022-.043.022-.043.022-.043.022-.043.022-.043.022-.044.022-.043.022-.043.022-.043.022-.044.022-.043.022-.043.022-.043.022-.043.022-.043.022-.043.022-.043.022-.043.022-.043.022-.043.022-.043.022-.043.022-.043.022-.043.022-.044.022-.043.022-.043.022-.043.022-.044.022-.043.022-.043.022-.043.022-.043.022-.043.022-.043.022-.043.022-.043.022-.044.022-.043.022-.043.022-.043.022-.043.022-.043.022-.043.022-.043.022-.043.022-.043.022-.044.022-.043.022-.043.022-.043.022-.043.022-.043.022-.043.022-.043.022-.043.022-.043.022-.043.022-.043.022-.043.022-.043.022-.043.022-.043.022-.043.022-.043.022-.043.022-.043.022-.043.022-.043.022-.043.022-.043.022-.043.022-.044.022-.043.022-.043.022-.043.022-.044.022-.043.022-.043.022-.043.022-.043.022-.043.022-.043.022-.043.022-.043.022-.043.022-.044.022-.043.022-.043.022-.043.022-.043.022-.044.022-.043.022-.043.022-.043.022a7.986,7.986,0,0,0-2.048,1.45c-.931.872-3.059,3.2-2.722,6a12.217,12.217,0,0,0,2.971,6.964l.014.017.014.017.014.017.014.017.014.017.014.017.014.017.014.017.014.017.014.017.014.017.014.017.015.017.014.017.014.017.014.017.014.017.014.017.014.017.014.017.014.017.014.017.014.017.014.017.014.017.014.017.014.017.014.017.014.017.014.017.014.017.014.017.014.017.014.017.014.017.014.017.014.017.014.017.014.017.014.017.014.017.014.017.014.017.014.017.014.017.014.017.014.017.014.017.014.017.014.017.014.017.015.017.014.017.014.017.014.017.014.017.014.017.014.017.014.017.014.017.014.017.014.017.014.017.014.017.014.017.014.017.014.017.014.017.014.017.014.017.014.017.014.017.014.017.014.017.014.017.014.017.014.017.014.017.014.017.014.017.014.017.014.017.014.017.014.017.014.017.014.017.014.017.014.017.014.017.014.017.014.017.014.017.014.017.014.017.015.017.014.017.014.017.014.017.014.017.014.017.014.017.014.017.014.017.014.017.014.018.014.017.014.017.014.017.014.017.014.017.014.017.014.017.014.017.014.017.014.017.014.017.014.017.014.017.014.017.014.017.014.017.014.017.014.017.014.017.014.017.014.017.014.017.014.017.014.017.014.017.014.017.014.017.014.017.015.017.014.017.014.017.014.017.014.017.014.017.014.017.014.017.014.017.014.017.015.018.014.017.014.017.014.017.014.017.014.017.014.017c2.078,2.281,5.158,3.611,9.1,3.864a6.547,6.547,0,0,0,.779.048c.093,0,.184,0,.275-.006l.042,0,.085,0c.073,0,.163,0,.256,0a6.723,6.723,0,0,0,.988-.074,20.755,20.755,0,0,0,7.208-1.937l.043-.022.043-.022.043-.022.043-.022.044-.022.043-.022.043-.022.044-.022.043-.022.043-.022.043-.022.043-.022.043-.022.044-.022.043-.022.043-.022.043-.022.044-.022.043-.022.043-.022.043-.022.043-.022.043-.022.044-.022.043-.022.043-.022.043-.022.044-.022.043-.022.043-.022.043-.022.043-.022.044-.022.043-.022.043-.022.043-.022.044-.022.043-.022.043-.022.043-.022.043-.022.043-.022.044-.022.043-.022.043-.022.043-.022.044-.022.043-.022.043-.022.043-.022.043-.022.043-.022.044-.022.043-.022.043-.022.043-.022.044-.022.043-.022.043-.022.043-.022.043-.022.044-.022.043-.022.043-.022.043-.022.044-.022.043-.022.043-.022.043-.022.043-.022.043-.022.044-.022.043-.022.043-.022.043-.022.044-.022.043-.021.043-.022.043-.022.043-.022.043-.021.044-.022.043-.022.043-.022.044-.022.043-.022.043-.022.043-.022.043-.022.043-.021.044-.022.043-.022.043-.022.043-.022.044-.022.043-.022.043-.022.043-.022.043-.022.043-.022.044-.022.043-.022.043-.022.043-.022.044-.022.043-.022.043-.022.043-.022.043-.022.043-.022.044-.022.043-.022.043-.022.044-.022.043-.022.043-.022.043-.022.043-.022.043-.022.044-.022.043-.022.043-.022.043-.022.044-.022.043-.022.043-.022.043-.022.043-.022.043-.022.044-.022.043-.022.043-.022.043-.022.044-.022.043-.022.043-.022.043-.022.043-.022.044-.022.043-.022.043-.022.043-.022.044-.022.043-.022.043-.022.043-.022.043-.022.043-.022.044-.022.043-.022a19.731,19.731,0,0,0,1.854-1.005l.012.014.014.017.014.017.015.018.014.017.014.017.014.017.014.017.014.017.014.017a9.053,9.053,0,0,0,3.27,2.382,8.306,8.306,0,0,0,.709,8.694l.014.016h0l.013.016h0l.013.016v0l.014.016h0l.013.016h0l.013.016h0l.013.016h0l.013.016h0l.013.016h0l.014.016h0l.014.016h0l.013.016h0l.013.016h0l.014.016h0l.013.016h0l.014.016h0l.014.016h0l.013.016h0l.013.016h0l.013.016h0l.014.016h0l.013.016h0l.014.016h0l.014.016h0l.014.016h0l.013.016h0l.013.016h0l.013.016h0l.014.016h0l.014.016h0l.014.016h0l.013.016h0l.013.016h0l.014.016h0l.014.016h0l.014.016h0l.013.016h0l.013.016h0l.013.016h0l.014.016h0l.014.016h0l.013.016h0l.014.016h0l.013.016h0l.014.016h0l.013.016h0l.013.016h0l.014.016h0l.014.016h0l.013.016h0l.013.016h0l.014.016h0l.014.016h0l.014.016h0l.014.016h0l.013.016h0l.013.016h0l.013.016h0l.013.016h0l.014.016h0l.013.016v0l.014.016h0l.013.016h0l.013.016h0l.014.016h0l.014.016h0l.014.016h0l.014.016h0l.013.016h0l.014.016h0l.013.016h0l.013.016h0l.014.016h0l.014.016h0l.013.016h0l.013.016h0l.013.016h0l.013.016h0l.013.016h0l.014.016h0l.013.016v0l.013.016h0l.014.016h0l.013.016h0l.013.016h0l.014.016h0l.014.016h0l.013.016h0l.014.016h0l.013.016h0l.013.016h0l.013.016h0l.014.016h0l.013.016h0l.013.016v0l.014.016h0l.013.016h0l.013.016h0l.014.016h0l.013.016v0l.013.016h0l.014.016h0l.013.016h0l.013.016h0l.013.016h0l.014.016h0l.014.016h0l.013.016h0l.014.016h0l.013.016h0l.013.016h0l.014.016h0l.013.016h0l.013.016h0l.013.016h0l.013.016h0l.013.016h0l.014.016h0l.013.016h0l.013.016v0l.013.016h0l.014.016h0l.013.016h0l.014.016h0l.014.016h0l.013.016h0l.014.016h0l.014.016h0l.013.016h0l.013.016h0l.014.016h0l.013.016h0l.013.016h0l.013.016h0l.014.016h0l.013.016h0l.014.016h0l.014.016h0l.013.016h0l.013.016h0l.014.016h0l.013.016h0l.014.016h0l.013.016v0l.013.016h0l.014.016h0l.014.016h0l.014.016h0l.013.016h0l.014.016h0l.014.016h0a9.878,9.878,0,0,0,6.4,3.422,20.787,20.787,0,0,0,3.577.307,28,28,0,0,0,12.7-3.386l.043-.022.043-.022.043-.022.043-.021.044-.022.043-.022.043-.022.044-.022.043-.021.043-.022.043-.022.043-.022.043-.021.044-.022.043-.022.043-.022.043-.022.044-.022.043-.022.043-.022.043-.022.043-.022.043-.021.044-.022.043-.022.043-.022.043-.022.044-.022.043-.021.043-.022.043-.022.043-.021.044-.022.043-.022.043-.022.043-.022.044-.022.043-.022.043-.022.043-.022.043-.022.043-.021.044-.022.043-.022.043-.022.043-.022.044-.022.043-.021.043-.022.043-.022.043-.022.043-.021.044-.022.043-.022.043-.022.043-.022.044-.022.043-.021.043-.022.043-.022.043-.021.044-.022.043-.022.043-.022.043-.022.044-.022.043-.021.043-.022.043-.022.043-.022.043-.021.044-.022.043-.022.043-.022.043-.022.044-.022.043-.021.043-.022.043-.022.043-.022.043-.022.044-.022.043-.022.043-.022.044-.022.043-.021.043-.022.043-.022.043-.022.043-.021.044-.022.043-.022.043-.022.043-.022.044-.022.043-.021.043-.022.043-.022.043-.022.043-.022.044-.022.043-.022.043-.022.043-.022.044-.022.043-.021.043-.022.043-.022.043-.022.043-.021.044-.022.043-.022.043-.022.044-.022.043-.021.043-.022.043-.022.043-.022.043-.022.044-.022.043-.022.043-.022.043-.022.044-.022.043-.021.043-.022.043-.022.043-.022.043-.021.044-.022.043-.022.043-.022.043-.022.044-.022.043-.022.043-.022.043-.022.043-.022.044-.022.043-.022.043-.022.043-.022.044-.022.043-.021.043-.022.043-.022.043-.022.043-.021.044-.022.043-.022.032-.016c2.528.794,6.573,2.044,9.306,2.786a99.393,99.393,0,0,0,15.615,3.3,52.99,52.99,0,0,0,5.894.339,42.257,42.257,0,0,0,10.9-1.364,36.321,36.321,0,0,0,7.195-2.714l.043-.022.043-.022.043-.022.043-.022.044-.022.043-.022.043-.022.044-.022.043-.022.043-.022.043-.022.043-.022.043-.022.044-.022.043-.022.043-.022.043-.022.044-.022.043-.021.043-.022.043-.022.043-.022.043-.022.044-.022.043-.022.043-.022.043-.022.044-.022.043-.021.043-.022.043-.022.043-.022.044-.022.043-.022.043-.022.043-.022.044-.022.043-.021.043-.022.043-.022.043-.022.043-.022.044-.022.043-.022.043-.022.043-.022.044-.022.043-.021.043-.022.043-.022.043-.022.043-.021.044-.022.043-.022.043-.022.043-.022.044-.022.043-.022.043-.022.043-.022.043-.021.044-.022.043-.022.043-.022.043-.022.044-.022.043-.022.043-.022.043-.022.043-.022.043-.021.044-.022.043-.022.043-.022.043-.022.044-.022.043-.022.043-.022.043-.022.043-.022.043-.021.044-.022.043-.022.043-.022.044-.022.043-.022.043-.022.043-.022.043-.022.043-.021.044-.022.043-.022.043-.022.043-.022.044-.022.043-.022.043-.022.043-.022.043-.022.043-.022.044-.022.043-.022.043-.022.043-.022.044-.022.043-.022.043-.022.043-.022.043-.022.043-.022.044-.022.043-.022.043-.022.044-.022.043-.022.043-.022.043-.022.043-.022.043-.022.044-.022.043-.022.043-.022.043-.022.044-.022.043-.022.043-.022.043-.022.043-.022.043-.022.044-.022.043-.022.043-.022.043-.022.044-.022.043-.021.043-.022.043-.022.043-.022.044-.022.043-.022.043-.022.043-.022.044-.022.043-.022.043-.022.043-.022.043-.022.043-.022.044-.022.043-.022q.467-.24.917-.492l.477-.27c2.158-1.234,6.64-3.8,6.326-8.378l.037-.019.043-.022.043-.022.044-.022.043-.022.043-.022.043-.022.043-.022.043-.022.044-.022.043-.022.043-.022.043-.022.043-.022.043-.022.043-.022.043-.022.043-.022.044-.022.043-.022.043-.022.043-.022.044-.022.043-.022.043-.022.043-.022.043-.022.043-.022.043-.022.043-.022.043-.022.043-.022.043-.022.043-.022.043-.022.043-.022.043-.022.043-.022.044-.022.043-.022.043-.022.044-.022.043-.022.043-.022.043-.022.043-.022.043-.022.043-.022.03-.014,0,0,.014.017.014.017.014.017.014.017.014.017.014.017.014.017.014.017.014.017.014.017.014.017.015.017.014.017.014.017.014.017.014.017.015.017.014.017.015.017.014.017.014.017.014.017.014.017.014.017.014.017.014.017.015.017.014.017.014.017.015.017.014.017.014.017.014.017.014.017.014.017.014.017.014.017.014.017.014.017.014.017.014.017.014.017.015.018.014.017.014.017.014.017.014.017.015.017.014.017.014.017.014.017.014.017.015.018.014.017.014.017.014.017.014.017.014.017.014.017.014.017.014.017.014.017.014.017.014.017.014.017.014.017.014.017.014.017.014.017.014.017.014.017.014.017.014.017.014.017.015.017.014.017.014.017.015.017.014.017.014.017.014.017.015.018.014.017.014.017.014.017.014.016.014.018.014.017.014.017.014.017.014.017.015.018.014.017.014.017.014.017.014.017.014.017.014.017a6.091,6.091,0,0,0,4.409,2.213,3.8,3.8,0,0,0,1.586-.361l.043-.022.043-.022.043-.022.043-.022.043-.022.043-.022.043-.022.043-.022.043-.022.043-.022.043-.022.043-.022.043-.022.044-.022.043-.022.043-.022c.015-.006.029-.015.043-.022l.044-.022.043-.022.043-.022.043-.022.043-.022.043-.022.043-.022.043-.022.043-.022.043-.022.043-.022.043-.022.043-.022.043-.022.043-.022.044-.022.044-.022.043-.022.043-.022.044-.022.043-.022.043-.022.043-.022.043-.022.043-.022.043-.022.043-.022.043-.022.043-.022.043-.022.043-.022.043-.022c.015-.006.029-.015.043-.022l.043-.022.043-.022.044-.022.043-.022.043-.022.043-.022.044-.022.043-.022.043-.022.043-.022.043-.022.043-.022.043-.022.043-.022.043-.022.043-.022.043-.022.043-.022.043-.022,0,0,.014.017.014.017.015.017.014.017.014.017.015.017.014.018.014.017.014.017.015.018.014.017.014.017.015.017.014.016.014.018.015.017.014.017.014.017.014.017.015.018.014.017.014.017.014.017.014.017.014.017.014.017c2.1,2.422,5.235,4.014,7.732,4.014a16.419,16.419,0,0,0,7.549-1.6l.043-.022.043-.022.043-.022.043-.022.043-.022.043-.022.043-.022.043-.022.043-.022.043-.022.043-.022.043-.022.043-.022.044-.022.043-.022.043-.022.043-.022.044-.022.043-.022.043-.022.043-.022.043-.022.043-.022.043-.022.043-.022.043-.022.043-.022.043-.022.043-.022.043-.022.043-.022.043-.022.043-.022.044-.022.043-.022.043-.022.044-.022.043-.022.043-.022.043-.022.043-.022.043-.022.043-.022.043-.022.043-.022.043-.022.043-.022.043-.022.043-.022.043-.022.043-.022.043-.022.044-.022.043-.022.043-.022.043-.022.044-.022.043-.022.043-.022.043-.022.043-.022.044-.022.043-.022.043-.022.043-.022.044-.022.043-.022.043-.022.043-.022.043-.022.043-.022.043-.022.043-.022.043-.022.043-.022.044-.022.043-.022.043-.022.043-.022.043-.022.043-.022.043-.022.043-.022.043-.022.044-.022.043-.022.043-.022.043-.022.043-.022.043-.022.043-.022.043-.022.043-.022.043-.022.043-.022.043-.022.043-.022.043-.022.044-.022.043-.022.044-.022.043-.022.043-.022.043-.022.044-.022.043-.022.043-.022.043-.022.043-.022.043-.022.043-.022.043-.022.043-.022.044-.022.043-.022.043-.022.043-.022.043-.022.043-.022.044-.022.043-.022.043-.022.043-.022.044-.022.043-.022.043-.022.043-.022.043-.022.043-.022.043-.022.043-.022.043-.022.043-.022.043-.022.043-.022.043-.022.043-.022.043-.022.044-.022.043-.022.043-.022.043-.022.044-.022.043-.022.043-.022.043-.022.043-.022.043-.022.043-.022.043-.022c3.425-1.743,5.511-4.9,6.037-9.284A6.878,6.878,0,0,0,257.79,175.022Z" transform="translate(0)" fill="#231f20" opacity="0.14" style="mix-blend-mode: multiply;isolation: isolate"/>
    <path id="Path_371" data-name="Path 371" d="M281.56,175.022l-.014-.017-.014-.016-.015-.018-.014-.017-.014-.017-.015-.018-.013-.016-.015-.018-.014-.017-.014-.018-.014-.017-.014-.017-.015-.018-.014-.017-.015-.017-.014-.018-.014-.016-.015-.018-.015-.018-.014-.017-.014-.016-.015-.018-.014-.018-.014-.017-.014-.017-.014-.017-.014-.017-.014-.017-.014-.018-.014-.017-.014-.017-.015-.018-.014-.017-.014-.017-.014-.017-.014-.017-.014-.017-.014-.017-.015-.018-.014-.017-.014-.016-.015-.018-.014-.017-.014-.017-.015-.018-.013-.016-.015-.018-.014-.017-.015-.018-.014-.017-.014-.017-.015-.018-.014-.017-.014-.017-.014-.018-.014-.016-.015-.018-.015-.018-.014-.017L280.7,174l-.015-.018-.015-.018-.014-.017-.014-.017-.014-.017-.014-.017-.014-.017-.014-.018-.014-.017-.014-.017-.015-.018-.014-.017-.014-.017-.014-.017-.014-.017-.014-.017-.014-.017-.015-.018-.014-.017-.014-.016-.015-.018-.014-.017-.014-.017-.014-.017-.014-.017-.014-.017-.014-.017-.015-.018-.014-.017-.014-.017-.015-.018-.014-.017-.014-.017-.014-.017-.014-.017-.014-.017-.014-.017-.015-.018-.014-.016-.015-.018-.015-.018-.014-.017-.014-.017-.014-.017-.014-.017-.014-.017-.015-.018-.014-.017-.014-.017-.015-.018-.015-.018-.014-.017-.014-.017-.014-.017-.014-.017-.014-.017-.015-.018-.014-.017-.014-.016-.015-.018-.014-.017-.014-.017-.014-.017-.014-.017-.014-.017-.014-.017-.015-.018-.014-.017-.014-.017-.015-.018-.014-.017-.014-.017-.014-.017-.014-.017-.014-.017-.014-.017-.014-.018-.014-.016-.015-.018-.015-.018-.014-.017-.014-.017-.014-.017-.014-.017-.014-.017-.015-.018-.014-.017-.014-.017-.015-.018-.015-.018a10.9,10.9,0,0,0-.874-.922,9.125,9.125,0,0,0-1.519-1.169c.022-.19.043-.38.051-.568a5.28,5.28,0,0,0-1.432-3.245l-.014-.016-.014-.016-.016-.019-.014-.016-.014-.017-.015-.018-.013-.015-.015-.018-.014-.017-.015-.018-.014-.016-.013-.016-.016-.019-.014-.016-.014-.017-.015-.018-.013-.015-.015-.018-.015-.018-.014-.016-.014-.016-.015-.018-.015-.018-.014-.016-.014-.017-.014-.017-.014-.017-.014-.017-.015-.018-.014-.016-.013-.016-.016-.019-.014-.016-.014-.017-.014-.017-.014-.017-.014-.017-.014-.017-.015-.018-.014-.016-.014-.016-.016-.019-.014-.016-.014-.017-.015-.018-.013-.016-.015-.018-.014-.017-.015-.018-.014-.016-.014-.016-.016-.019-.014-.016-.014-.017-.015-.018-.013-.015-.015-.018-.015-.018-.014-.016-.014-.016-.015-.018-.015-.018-.014-.016-.014-.017-.014-.017-.014-.017-.014-.017-.015-.018-.014-.016-.014-.016-.016-.019-.014-.016-.014-.017-.015-.017-.014-.017-.014-.017-.014-.017-.015-.018-.014-.016-.014-.016-.016-.019-.014-.016-.014-.017-.014-.017-.014-.017-.014-.017-.014-.017-.015-.018-.014-.016-.014-.016-.016-.019-.014-.016-.014-.017-.014-.017-.014-.017-.014-.017-.014-.017-.015-.018-.013-.016-.015-.018-.015-.018-.014-.016-.014-.017-.014-.017-.014-.017-.014-.017-.015-.018-.014-.016-.014-.016-.015-.018-.015-.018-.014-.016-.014-.017-.014-.017-.014-.017-.014-.017-.015-.018-.014-.016-.013-.016-.016-.019-.014-.016-.014-.017-.014-.017-.014-.017-.014-.017-.014-.017-.015-.018-.014-.016-.014-.016-.016-.019-.014-.016-.014-.017-.014-.017-.014-.017-.014-.017-.014-.017-.015-.018-.013-.015-.015-.018-.015-.018-.014-.016-.014-.017-.014-.017-.014-.017-.014-.017-.015-.018-.014-.016-.014-.016-.015-.018-.015-.018c-.078-.092-.146-.168-.2-.224a8.146,8.146,0,0,0-5.839-2.6l-.1,0h-.28a4.279,4.279,0,0,0-1.186.173l-.12.031a6.863,6.863,0,0,0-3.733,2.787l-.011-.013-.014-.017L262,164.1l-.014-.017-.014-.017-.014-.017-.014-.017-.014-.017-.014-.017-.014-.017-.014-.017-.014-.017-.014-.017-.014-.017-.014-.017-.014-.017-.014-.017-.014-.017-.014-.017-.015-.017-.014-.017-.014-.017-.015-.017-.014-.017-.014-.017-.014-.017-.014-.017-.014-.017-.014-.017-.014-.017-.014-.017-.014-.017-.014-.018-.014-.017-.014-.017-.014-.017-.014-.017-.014-.017-.014-.017-.014-.017-.014-.017-.014-.017-.014-.017-.014-.017-.014-.017-.014-.017-.014-.017-.014-.017-.014-.017-.014-.017-.014-.017-.014-.017-.014-.017a5.19,5.19,0,0,0-.57-.526,2.723,2.723,0,0,0-.423-.761l-.014-.017-.014-.017-.015-.017-.014-.017-.014-.017-.014-.017-.014-.017-.014-.017-.014-.017-.014-.017-.014-.017-.014-.017-.014-.018-.014-.017-.014-.017-.014-.017-.014-.017-.014-.017-.014-.017-.014-.017-.014-.017-.014-.017-.014-.017-.014-.017-.014-.017-.014-.017-.014-.017-.014-.017-.014-.017-.014-.017-.014-.017-.014-.018-.014-.017-.014-.017-.014-.017-.014-.017-.014-.017-.014-.017-.014-.017-.014-.017-.014-.017-.015-.017-.014-.017-.014-.017-.014-.017-.014-.017-.014-.017-.014-.017-.014-.017-.014-.017-.014-.017-.014-.018-.014-.017-.014-.017-.014-.017-.014-.017-.014-.017-.014-.017-.014-.017-.014-.017-.014-.018-.014-.017-.014-.017-.014-.017-.014-.017-.014-.017-.014-.017-.014-.017-.014-.017-.014-.017-.014-.018-.014-.017-.014-.017-.014-.017-.014-.017-.014-.017-.014-.017-.014-.017-.014-.017-.014-.017-.014-.017-.014-.017-.014-.017-.014-.017-.014-.017-.014-.017-.014-.017-.014-.017-.014-.017-.014-.017-.015-.018-.014-.017-.014-.017-.014-.017-.014-.017-.014-.017-.014-.017-.014-.017-.014-.017-.014-.018-.014-.017-.014-.017-.014-.017-.014-.017-.014-.017-.014-.017-.014-.017-.014-.017-.014-.017-.014-.017-.014-.017-.014-.017-.014-.017-.014-.017-.014-.017-.014-.017-.014-.017-.014-.017-.014-.017-.014-.018-.014-.017-.014-.017-.014-.017-.014-.017-.014-.017-.014-.017-.014-.017-.014-.017-.014-.017-.015-.018-.014-.017-.014-.017-.014-.017-.015-.017-.014-.017-.014-.017-.014-.017-.014-.017-.015-.017-.014-.017-.014-.017-.014-.017-.014-.017-.014-.017-.014-.017-.014-.017-.014-.017-.014-.017-.014-.017-.014-.017c-.054-.07-.11-.135-.166-.2a9.641,9.641,0,0,0-2.92-1.947,2.845,2.845,0,0,0-.9-.145,2.9,2.9,0,0,0-1.354.34,3.724,3.724,0,0,0-1.767,2.422c0,.008-.2.747-.519,1.8q-.146.487-.286.931a8.472,8.472,0,0,0-2.9-1.338,9.175,9.175,0,0,0-2.23-.268q-.287,0-.58.017l-.108.006a8.036,8.036,0,0,0-1.7.23,3.524,3.524,0,0,0-.615-1.077l-.014-.017-.014-.017-.015-.018-.014-.017-.014-.017-.015-.017-.014-.017-.014-.017-.014-.017-.014-.017-.014-.017-.014-.017-.014-.018-.014-.017-.014-.017-.014-.017-.014-.017-.014-.017-.014-.017-.014-.017-.014-.017-.014-.017-.014-.017-.014-.017-.014-.017-.014-.017-.014-.017-.014-.017-.015-.017-.014-.017-.014-.017-.015-.018-.014-.017-.014-.017-.014-.017-.014-.017-.014-.017-.014-.017-.014-.017-.014-.017-.014-.017-.015-.018-.014-.017-.014-.017-.014-.017-.014-.017-.014-.017-.014-.017-.015-.017-.014-.017-.014-.017-.014-.018-.014-.017-.014-.017-.014-.017-.014-.017-.014-.018-.014-.017-.014-.017-.014-.017-.014-.017-.014-.017-.014-.017-.014-.017-.014-.017-.014-.017-.014-.017-.014-.017-.014-.017-.014-.017-.014-.018-.014-.017-.014-.017-.014-.017-.014-.017-.014-.017-.015-.017-.014-.017-.014-.017-.014-.017-.015-.018-.014-.017-.014-.017-.014-.017-.014-.017-.014-.017-.014-.017-.014-.017-.014-.017-.014-.017-.015-.018-.014-.017-.014-.017-.014-.017-.014-.017-.014-.017-.014-.017-.014-.017-.014-.017-.015-.017-.014-.017-.014-.017-.014-.017-.014-.017-.014-.017-.014-.017-.014-.017-.014-.017-.014-.017-.014-.017-.014-.017-.014-.017-.014-.017-.014-.017-.014-.017-.014-.017-.014-.017-.014-.017-.014-.017-.015-.018-.014-.017-.014-.017-.014-.017-.014-.017-.014-.017-.014-.017-.014-.017-.014-.017-.014-.017-.015-.018-.014-.017-.014-.017-.014-.017-.014-.017-.014-.017-.014-.017-.014-.017-.014-.017-.014-.017-.014-.017-.014-.017-.014-.017-.014-.017-.014-.017-.014-.017-.015-.017-.014-.017-.014-.017-.015-.017-.014-.017a6.4,6.4,0,0,0-2.394-1.727,5.714,5.714,0,0,0-2.269-.5h0a4,4,0,0,0-2.02.509,2.656,2.656,0,0,0-1.018,1.058c-.046.087-.085.171-.129.258-1.729-2.188-5.421-3.353-8.652-3.353q-.282,0-.564.012a11.531,11.531,0,0,0-8.686,4.112,2.646,2.646,0,0,0,0-.272,2.656,2.656,0,0,0,.622-1.086c.083-.287.157-.6.225-.963s.117-.706.146-1.028a6.3,6.3,0,0,0-1.164-4.607l-.013-.015,0,0-.013-.014,0,0-.013-.014,0,0-.013-.015,0,0-.013-.015,0,0-.013-.015,0,0-.013-.015,0,0-.012-.014,0,0-.013-.015,0,0-.013-.015,0,0-.013-.015,0,0-.013-.015,0,0-.012-.014,0,0-.013-.015,0,0-.013-.015,0,0-.013-.015,0,0-.013-.015,0,0-.012-.014,0,0-.013-.014,0,0-.013-.015v0l-.013-.014,0,0-.013-.015,0,0-.013-.015,0,0-.013-.015,0,0-.013-.015,0,0-.013-.015,0,0-.013-.014,0,0-.013-.015,0,0-.013-.015,0,0-.013-.015,0,0-.013-.015,0,0-.012-.014,0,0-.013-.015v0l-.013-.015,0,0-.013-.015,0,0-.013-.015,0,0-.013-.014,0,0-.013-.014,0,0-.013-.014,0,0-.013-.015,0,0-.013-.014,0,0-.013-.014,0,0-.013-.015,0,0-.013-.014,0,0-.013-.015,0,0-.013-.015,0,0-.013-.014,0,0-.013-.015,0,0-.013-.015,0,0-.013-.015,0,0-.013-.015,0,0-.012-.014,0,0-.013-.015v0l-.013-.015,0,0-.013-.015,0,0-.013-.015,0,0-.012-.014,0,0-.013-.014,0,0-.013-.015,0,0-.013-.014,0,0-.013-.014,0,0-.013-.014,0,0-.013-.015,0,0-.013-.014,0,0-.013-.015,0,0-.013-.014,0,0-.013-.015,0,0-.013-.015,0,0-.013-.015,0,0-.013-.015,0,0-.012-.014,0,0-.013-.015,0,0-.013-.015,0,0-.013-.015,0,0-.013-.015,0,0-.013-.015,0,0-.013-.015,0,0-.013-.014,0,0-.013-.015,0,0-.013-.014,0,0-.012-.014,0,0-.013-.015,0,0-.013-.014,0,0-.013-.015,0,0-.013-.015,0,0-.013-.014,0,0-.013-.015,0,0-.013-.015,0,0-.013-.015,0,0-.013-.015,0,0-.012-.014,0,0-.013-.015,0,0-.013-.015,0,0-.013-.015,0,0-.013-.015,0,0-.013-.015,0,0-.013-.015,0,0-.013-.014,0,0-.013-.015v0l-.013-.014,0,0-.013-.014,0,0-.013-.015v0l-.013-.014,0,0-.013-.015,0,0-.013-.014,0,0-.013-.015,0,0-.013-.015,0,0-.013-.015,0,0-.013-.015,0,0-.012-.015,0,0-.013-.015,0,0-.013-.015,0,0-.013-.015,0,0-.013-.015,0,0-.013-.015,0,0-.013-.015,0,0-.013-.015,0,0-.013-.015,0,0-.013-.015,0,0-.012-.014,0,0-.013-.015v0l-.013-.014,0,0-.013-.014,0,0-.013-.015,0,0-.013-.014,0,0-.013-.015,0,0-.013-.015,0,0-.013-.015,0,0-.013-.015,0,0-.013-.014,0,0-.013-.015,0,0-.013-.015,0,0-.013-.015,0,0-.013-.015,0,0-.013-.015,0,0-.013-.015,0,0-.013-.015,0,0-.013-.015,0,0-.012-.014,0,0-.013-.014,0,0-.013-.015,0,0-.013-.014,0,0-.013-.014,0,0-.013-.015,0,0-.013-.014,0,0-.013-.015,0,0-.013-.015v0l-.013-.015,0,0-.013-.014,0,0-.013-.015,0,0-.013-.015,0,0a5.316,5.316,0,0,0-4.388-1.993,6.484,6.484,0,0,0-2.92.714,7.631,7.631,0,0,0-1.534,1.032l0-.006h0l-.013-.016h0l-.013-.016h0l-.013-.016h0l-.013-.016h0l-.013-.016h0l-.013-.016h0l-.013-.016h0l-.013-.016v0l-.013-.016h0l-.013-.016h0l-.013-.016h0l-.013-.016h0l-.013-.016h0l-.013-.016v0l-.013-.016h0l-.013-.016h0l-.013-.016h0l-.013-.016h0l-.013-.016a4.19,4.19,0,0,0-.6-.523,2.657,2.657,0,0,0-.663-2.173l0,0-.012-.015,0,0-.012-.015,0,0-.012-.015,0,0-.012-.015,0,0-.012-.015,0,0-.012-.015,0,0-.012-.015,0,0-.012-.015,0,0-.012-.015,0,0-.012-.015,0,0-.012-.015,0,0-.012-.015,0,0-.012-.015,0,0-.012-.015,0,0-.012-.015,0,0-.012-.015,0,0-.012-.015,0,0-.012-.015,0,0-.012-.015,0,0-.012-.015,0,0-.012-.015,0,0-.012-.015,0,0-.012-.015,0,0-.012-.015,0,0-.012-.015,0,0-.012-.015,0,0-.012-.015,0,0-.012-.015,0,0-.012-.015,0,0-.012-.015,0,0-.012-.015,0,0-.012-.016,0,0-.012-.015,0,0-.012-.015,0,0-.012-.015,0,0-.012-.015,0,0-.012-.015,0,0-.012-.015,0,0-.012-.015,0,0-.012-.015,0,0-.012-.015,0,0-.013-.015,0,0-.012-.015,0,0-.012-.015,0,0-.012-.015,0,0-.012-.015,0,0-.012-.015,0,0-.012-.015,0,0-.012-.015,0,0-.012-.015,0,0-.012-.015,0,0-.012-.016,0,0-.012-.015,0,0-.012-.015,0,0-.012-.015,0,0-.012-.015,0,0-.012-.015,0,0-.012-.015,0,0-.012-.015,0,0-.012-.015,0,0-.013-.015,0,0-.012-.015,0,0-.012-.015,0,0-.012-.015,0,0-.012-.015,0,0-.012-.015,0,0-.012-.015,0,0-.012-.015,0,0-.012-.015,0,0-.012-.015,0,0-.012-.016,0,0-.012-.015,0,0-.012-.015,0,0-.012-.015,0,0-.012-.015,0,0-.012-.015,0,0-.012-.015,0,0-.012-.015,0,0-.012-.015,0,0-.012-.015,0,0-.013-.015,0,0-.012-.015,0,0-.012-.015,0,0-.012-.015,0,0-.012-.015,0,0-.012-.015,0,0-.012-.015,0,0-.012-.015,0,0-.012-.015,0,0-.012-.015,0,0-.012-.016,0,0-.012-.015,0,0-.012-.015,0,0-.012-.015,0,0-.012-.015,0,0-.012-.015,0,0-.012-.015,0,0-.012-.015,0,0-.012-.015,0,0-.013-.015,0,0-.012-.015,0,0-.012-.015,0,0-.012-.015,0,0-.012-.015,0,0-.012-.015,0,0-.012-.015,0,0-.012-.015,0,0-.012-.015,0,0-.012-.015,0,0-.012-.016,0,0-.012-.015,0,0-.012-.015,0,0-.012-.015,0,0-.012-.015,0,0-.012-.015,0,0-.012-.015,0,0-.012-.015,0,0-.012-.015,0,0-.012-.015,0,0-.012-.015,0,0-.012-.015,0,0-.012-.015,0,0-.012-.015,0,0-.012-.015,0,0-.012-.015,0,0-.012-.015,0,0-.012-.015,0,0-.012-.015,0,0-.012-.015,0,0-.012-.016,0,0-.012-.015,0,0-.012-.015,0,0-.012-.015,0,0-.012-.015,0,0-.012-.015,0,0-.012-.015,0,0-.012-.015,0,0-.012-.015,0,0-.012-.015,0,0-.012-.015,0,0-.012-.015,0,0-.012-.015,0,0-.012-.015,0,0-.012-.015,0,0-.012-.015,0,0-.012-.015,0,0-.012-.015,0,0-.012-.015,0,0-.012-.016,0,0-.012-.015,0,0-.012-.015a2.661,2.661,0,0,0-2.377-.835l-1.8.282a2.659,2.659,0,0,0-2.168,1.984l-.037.15h0l0,0-.012-.015,0,0-.012-.015,0,0-.012-.015,0,0-.012-.015,0,0-.012-.015,0,0-.012-.015a2.658,2.658,0,0,0-2.351-.848l-1.815.262a2.659,2.659,0,0,0-2.2,1.992l-.32,1.291a2.66,2.66,0,0,0-1.816,1.885l-.373,1.449a2.659,2.659,0,0,0,.473,2.292l.011.012,0,0,.011.012,0,0,.011.012,0,0,.011.012,0,0,.011.012,0,0,.011.012,0,0,.011.012,0,0,.011.012,0,0,.011.012,0,0,.011.012,0,0,.011.012,0,0,.011.012,0,0,.011.012,0,0,.011.013,0,0,.011.012,0,0,.011.012,0,0,.011.012,0,0,.007.007-.738,2.96a5.98,5.98,0,0,0-.152.658c-.04.223-.07.444-.089.654a4.239,4.239,0,0,0,.909,3.209l.014.017.014.017.014.017.014.017.014.017.014.017.014.017.014.017.014.017.014.017.014.017.014.017.015.017.014.017.014.017.014.017.014.017.014.017.014.017.014.017.014.017.014.017.014.017.014.017.014.017.014.017.014.017.014.017.014.017.014.017.014.017.014.017.014.017.014.017.014.017.014.017.015.017.014.017.014.017.014.017.014.017.014.017.014.017.014.017.014.017.014.017.014.017.014.017.014.017.014.017.014.017.015.017.014.017.014.017.014.017.014.017.014.017.014.017.015.017.014.017.014.017.014.017.014.017.014.017.014.017.014.017.014.017.014.017.014.017.014.017.014.017.014.017.014.017.014.017.014.017.014.017.014.017.014.017.015.017.014.017.014.017.014.017.014.017.014.017.014.017.014.017.014.017.014.017.014.017.014.017.014.017.014.017.014.017.014.017.015.017.014.017.014.017.014.017.014.017.014.017.014.017.014.017.014.017.014.017.014.018.014.017.014.017.01.012a6.932,6.932,0,0,0-1.644.293l-.013,0a3,3,0,0,0-.473-.752l0,0-.012-.015,0,0-.012-.015,0,0-.012-.015,0,0-.012-.015,0,0-.012-.015,0,0L184,160.44l0,0-.012-.015,0,0-.012-.015,0,0-.012-.015,0,0-.012-.015,0,0-.012-.015,0,0-.012-.015,0,0-.012-.015,0,0-.012-.015,0,0-.012-.015,0,0-.012-.015,0,0-.012-.015,0,0-.012-.015,0,0-.012-.015,0,0-.012-.015,0,0-.012-.015,0,0-.012-.015,0,0-.012-.015,0,0-.012-.015,0,0-.012-.015,0,0-.012-.015,0,0-.012-.015,0,0-.012-.015,0,0-.012-.015,0,0-.012-.015,0,0-.012-.015,0,0-.012-.015,0,0-.012-.015,0,0-.012-.015,0,0-.012-.015,0,0-.012-.015,0,0-.012-.015,0,0-.012-.015,0,0-.012-.015,0,0-.012-.015,0,0-.012-.015,0,0-.012-.015,0,0-.012-.015,0,0-.012-.015,0,0-.012-.015,0,0-.012-.015,0,0-.012-.015,0,0-.012-.015,0,0-.012-.015,0,0-.012-.015,0,0-.012-.015,0,0-.012-.015,0,0-.012-.015,0,0-.012-.015,0,0-.012-.015,0,0-.012-.015,0,0-.012-.015,0,0-.012-.015,0,0-.012-.015,0,0-.012-.015,0,0-.012-.015,0,0-.012-.015,0,0-.012-.015,0,0-.012-.015,0,0-.012-.015,0,0-.012-.015,0,0-.012-.015,0,0-.012-.015,0,0-.012-.015,0,0-.012-.015,0,0-.012-.015,0,0-.012-.015,0,0-.012-.015,0,0-.012-.015,0,0-.012-.015,0,0-.012-.015,0,0-.012-.015,0,0-.012-.015,0,0-.012-.015,0,0-.012-.015,0,0-.012-.015,0,0-.012-.015,0,0-.012-.015,0,0-.012-.015,0,0-.012-.015,0,0-.012-.015,0,0-.012-.015,0,0-.012-.015,0,0-.012-.015,0,0-.012-.015,0,0-.012-.015,0,0-.012-.015,0,0-.012-.015,0,0-.012-.015,0,0-.012-.015,0,0-.012-.015,0,0-.012-.015,0,0-.012-.015,0,0-.012-.015,0,0-.012-.015,0,0-.012-.015,0,0-.012-.015,0,0-.012-.015,0,0-.012-.015,0,0-.012-.015,0,0-.012-.015,0,0-.012-.015,0,0-.012-.015,0,0-.012-.015,0,0-.012-.015,0,0-.012-.015,0,0-.012-.015,0,0-.012-.015,0,0-.012-.015,0,0-.012-.015,0,0-.012-.015,0,0-.012-.015,0,0-.012-.015,0,0-.012-.015,0,0-.012-.015,0,0-.012-.015,0,0-.012-.015,0,0-.012-.015,0,0-.012-.015,0,0-.012-.015,0,0-.012-.015,0,0-.012-.015,0,0-.012-.015,0,0-.012-.015,0,0-.012-.015,0,0-.012-.015,0,0-.012-.015,0,0-.012-.015,0,0-.012-.015,0,0-.012-.015,0,0-.012-.015,0,0-.012-.015,0,0-.012-.015,0,0-.012-.015,0,0-.012-.015,0,0-.012-.015,0,0-.012-.015,0,0-.012-.015,0,0-.012-.015,0,0-.012-.015,0,0-.012-.015,0,0-.012-.015,0,0-.012-.015,0,0L181.95,158l0,0-.012-.015,0,0-.012-.015a3.039,3.039,0,0,0-1.173-.815c-.181-.074-.385-.173-.6-.278s-.469-.228-.739-.344a5.719,5.719,0,0,0-2.27-.5,4.007,4.007,0,0,0-2,.5,2.958,2.958,0,0,0-1.331,1.751q-.087.213-.169.427l-.034.073a3.642,3.642,0,0,0-.23,3.16,2.653,2.653,0,0,0-1.009,1.163l-.056.13a6.99,6.99,0,0,0-4.76-2.1,7.176,7.176,0,0,0-5.169,2.356,7.655,7.655,0,0,0-3.206-1.883,11.023,11.023,0,0,0-2.241-.4l-.175-.016c-.239-.022-.547-.051-.886-.051a4.7,4.7,0,0,0-1.488.224,4.859,4.859,0,0,0-1.156.56,7.981,7.981,0,0,0-1.767,1.64,15.24,15.24,0,0,0-1.141,1.581c-.259-.395-.535-.781-.831-1.156l-.014-.017-.014-.017-.015-.018-.014-.017-.014-.017-.014-.017-.014-.017-.014-.017-.014-.017-.014-.017-.014-.017-.014-.017-.015-.018-.014-.017-.014-.017-.014-.017-.014-.017-.014-.017-.014-.017-.014-.017-.014-.017-.014-.017-.014-.017-.014-.017-.014-.017-.014-.017-.014-.017-.014-.017-.015-.017-.014-.017-.014-.017-.015-.018-.014-.017-.014-.017-.014-.017-.014-.017-.014-.017-.014-.017-.014-.017-.014-.017-.014-.017-.015-.018-.014-.017-.014-.017-.014-.017-.014-.017-.014-.017-.014-.017-.014-.017-.014-.017-.014-.017-.015-.018-.014-.017-.014-.017-.014-.017-.014-.017-.014-.017-.014-.017-.014-.017-.014-.017-.014-.017-.014-.017-.014-.017-.014-.017-.014-.017-.014-.017-.014-.017-.014-.017-.014-.017-.014-.017-.015-.018-.014-.017-.014-.017-.014-.017-.014-.017-.014-.017-.014-.017-.014-.017-.014-.017-.014-.017-.014-.018-.014-.017-.014-.017-.014-.017-.014-.017-.014-.017-.014-.017-.015-.017-.014-.017-.014-.017-.015-.018-.014-.017-.014-.017-.014-.017-.015-.017-.014-.017-.014-.017-.014-.017-.014-.017-.014-.017-.014-.017-.014-.017-.014-.017L148,162.2l-.014-.017-.014-.017-.014-.017-.014-.017-.014-.017-.014-.017-.015-.017-.014-.017-.014-.017-.014-.017-.014-.017-.014-.017-.014-.017-.014-.017-.014-.017-.015-.018-.014-.017-.014-.017-.014-.017-.014-.017-.014-.017-.014-.017-.014-.017-.014-.017-.014-.017-.015-.018-.014-.017-.014-.017-.014-.017-.014-.017-.014-.017-.014-.017-.014-.017-.014-.017-.014-.017-.014-.017-.014-.017-.014-.017-.014-.017-.014-.017-.014-.017-.014-.017-.014-.017-.014-.017-.014-.017-.014-.017a20.4,20.4,0,0,0-14.641-7.4c-.283-.018-.577-.03-.875-.037l-.129-.011c-.269-.022-.542-.045-.847-.045a5.339,5.339,0,0,0-1.306.158,8.423,8.423,0,0,0-2.269,1q-.053.031-.1.065c-1.016.667-3.395,2.229-2.553,4.583a2.876,2.876,0,0,0,.556.95l.014.017.014.017.014.017.014.017.014.017.014.017.014.017.014.017.014.017.014.017.014.017.014.017.014.017.014.017.014.017.014.017.014.017.014.017.014.017.014.017.014.017.014.017.014.017.014.017.014.017.014.017.014.017.014.017.014.017.014.017.014.017.014.017.014.017.014.017.014.017.014.017.014.017.014.017.015.017.014.017.014.017.014.017.014.017.014.017.014.017.014.017.014.017.014.017.014.017.014.017.014.017.014.018.014.017.014.017.014.017.014.017.014.017.014.017.014.017.014.017.014.017.014.017.014.017.014.017.014.017.014.017.014.017.014.017.014.017.014.017.014.017.014.017.014.017.014.017.014.017.014.017.014.017.014.017.014.017.014.017.014.017.014.017.014.017.014.017.014.017.014.017.014.017.014.017.014.017.014.017.014.017.015.017.014.017.014.017.015.017.014.017.014.017.014.017.014.017.014.017.014.017.014.017.014.017.014.017.014.017.014.017.014.017.015.017.014.017.014.017.014.017.014.017.014.017.014.017.014.017.014.017.014.017.014.017.014.017.014.017.014.017.014.017.014.017.014.017.014.017.014.017.014.017.014.017.014.017.014.017.014.017.014.017.014.017.015.017.014.017.014.017.014.017.014.017.015.017.014.017.014.017.014.017.014.017.014.017.014.017.014.017.014.017.014.017.014.017.014.017a4.139,4.139,0,0,0,3.163,1.106c.356,0,.736-.019,1.115-.045a77.344,77.344,0,0,0-3.487,8.424l-.008-.009-.014-.017-.014-.018-.014-.017-.014-.017-.014-.017-.014-.017L128,172.6l-.014-.017-.014-.017-.014-.017-.014-.017-.014-.017-.014-.017-.014-.017-.014-.017-.014-.017-.014-.017-.014-.017-.014-.017-.014-.017-.014-.017-.014-.017-.014-.017-.014-.017-.014-.017-.014-.017-.014-.017-.014-.017-.014-.017-.014-.017-.014-.017-.014-.017-.014-.017-.014-.017-.014-.017-.014-.017-.014-.017-.014-.017-.014-.017-.014-.017-.015-.018L127.5,172l-.014-.017-.014-.017-.014-.017-.014-.017-.014-.017-.014-.017-.014-.017-.014-.017-.014-.017-.014-.017-.014-.017-.014-.017-.014-.017-.014-.017-.014-.017-.014-.017-.014-.017-.014-.017-.014-.017-.014-.017-.014-.017-.014-.017-.014-.017-.014-.017-.015-.017-.014-.017-.014-.017-.015-.017-.014-.017-.014-.017-.014-.017-.014-.017-.014-.017-.014-.017L127,171.4l-.014-.017-.014-.017-.015-.018-.014-.017-.014-.017-.014-.017-.014-.017-.014-.017-.014-.017-.014-.017-.014-.017-.014-.017-.014-.018-.014-.017-.014-.017-.014-.017-.014-.017-.015-.017-.014-.017-.014-.017-.014-.017-.015-.017-.014-.017-.014-.017-.014-.017-.014-.017-.014-.017-.014-.017-.014-.017-.014-.017-.014-.017-.014-.017-.014-.017a2.658,2.658,0,0,0-2.583-1,6.35,6.35,0,0,0-2.823,1.7c-.931.872-3.059,3.2-2.721,6a12.217,12.217,0,0,0,2.971,6.964l.014.017.014.017.014.017.014.017.014.017.014.017.014.017.014.017.014.017.014.017.014.017.014.017.015.018.014.017.014.017.015.017.014.017.014.017.014.017.014.017.014.017.014.017.014.017.014.017.014.017.014.017.014.017.014.017.014.017.014.017.014.017.014.017.014.017.014.017.014.017.014.017.014.017.014.017.014.017.014.017.014.017.015.017.014.017.014.017.014.017.014.017.014.017.014.017.014.017.014.017.014.017.015.017.014.017.014.017.014.017.014.017.014.017.014.017.014.017.014.017.014.017.014.017.014.017.014.017.014.017.014.017.014.017.014.017.014.017.014.017.014.017.014.017.014.017.014.017.014.017.014.017.014.017.014.017.014.017.014.017.014.017.015.017.014.017.014.017.014.017.014.017.015.017.014.017.014.017.014.017.014.017.014.017.014.017.014.017.015.018.014.017.014.017.014.017.014.017.014.017.014.017.014.017.014.017.014.017.014.017.014.017.014.017.014.017.014.017.014.017.015.017.014.017.014.017.014.017.014.017.014.017.014.017.014.017.014.017.014.017.014.017.014.017.014.017.014.017.014.017.014.017.014.017.014.017.014.017.014.017.014.017.014.017.014.017.015.018.014.017.014.017.014.017.014.017.014.017.014.017.014.017.014.017.014.017.014.018.014.017.014.017.014.017.014.017.014.017.014.017c2.078,2.281,5.158,3.612,9.1,3.864a6.555,6.555,0,0,0,.779.048c.093,0,.184,0,.275-.006l.042,0,.085,0c.073,0,.163,0,.256,0a6.694,6.694,0,0,0,.988-.074,19.731,19.731,0,0,0,14.3-7.731l.005.006.015.018.014.017.014.017.014.017.014.017.014.017.014.017.015.017.014.016.014.018.015.017.014.017.014.017.014.017.014.017.014.017.014.017.014.017.014.017.015.017.014.017.014.017.014.017.014.017.014.017.014.017.014.017.014.017.014.016.014.018.014.017.014.017.014.017.014.017.014.017.014.017.014.017.014.017.014.017.015.017.014.017.014.017.014.017.015.018.014.017.014.017.014.017.014.016.015.018.014.017.014.017.014.017.014.017.015.018.014.017.014.017.014.017.014.017.015.017.014.017.014.017.014.017.014.017.014.017.014.017.014.017.014.017.014.016.014.018.014.017.014.017.014.017.014.017.014.017.014.017.014.017.014.017.014.017.014.017.014.017.014.017.014.017.015.018.014.017.014.017.014.018.014.016.014.018.014.017.014.017.014.017.014.017.015.018.014.017.014.017.014.017.014.017.014.017.014.017a9.054,9.054,0,0,0,3.27,2.382,8.305,8.305,0,0,0,.709,8.694l.013.016h0l.013.016h0l.013.016h0l.013.016h0l.014.016h0l.013.016h0l.013.016h0l.013.016h0l.013.016h0l.013.016h0l.014.016h0l.013.016h0l.013.016h0l.013.016h0l.014.016h0l.014.016h0l.014.016h0l.014.016h0l.013.016h0l.013.016h0l.014.016h0l.013.016v0l.013.016h0l.014.016h0l.013.016h0l.013.016h0l.013.016h0l.013.016h0l.013.016h0l.014.016h0l.014.016h0l.013.016v0l.013.016h0l.014.016h0l.014.016h0l.014.016h0l.014.016h0l.013.016h0l.013.016h0l.014.016h0l.013.016h0l.013.016v0l.014.016h0l.014.016h0l.013.016h0l.013.016h0l.013.016h0l.013.016h0l.014.016h0l.014.016h0l.013.016h0l.013.016v0l.014.016h0l.013.016h0l.014.016h0l.014.016h0l.013.016h0l.013.016h0l.013.016h0l.014.016h0l.013.016v0l.014.016h0l.014.016h0l.013.016h0l.013.016h0l.013.016h0l.013.016h0l.014.016h0l.014.016h0l.013.016h0l.013.016h0l.013.016h0l.014.016h0l.014.016h0l.014.016h0l.014.016h0l.014.016h0l.013.016h0l.013.016h0l.014.016h0l.013.016v0l.014.016h0l.013.016h0l.013.016h0l.013.016h0l.013.016h0l.014.016h0l.014.016h0l.013.016h0l.014.016h0l.013.016h0l.013.016h0l.014.016h0l.014.016h0l.013.016v0l.013.016h0l.014.016h0l.013.016h0l.014.016h0l.013.016v0l.014.016h0l.013.016h0l.013.016h0l.013.016h0l.013.016h0l.014.016h0l.014.016h0l.013.016h0l.013.016h0l.013.016h0l.013.016h0l.014.016h0l.014.016h0l.013.016h0l.013.016h0l.013.016h0l.014.016h0l.014.016h0l.014.016h0l.013.016v0l.013.016h0l.013.016h0l.013.016h0l.013.016h0l.013.016h0l.014.016h0l.013.016h0l.013.016h0l.013.016h0l.013.016h0l.013.016h0l.014.016h0l.013.016h0l.013.016h0l.013.016h0l.013.016h0l.013.016h0l.014.016h0l.013.016v0l.013.016h0l.013.016h0l.013.016h0l.013.016h0l.013.016h0l.014.016h0l.013.016h0l.013.016h0l.014.016h0l.013.016h0l.013.016h0l.014.016h0a9.878,9.878,0,0,0,6.4,3.422,20.785,20.785,0,0,0,3.576.307,28.616,28.616,0,0,0,13.57-3.846,29.533,29.533,0,0,0,4.729-3.11c2.342.74,7.144,2.24,10.25,3.083a99.394,99.394,0,0,0,15.615,3.3,53,53,0,0,0,5.893.339,42.254,42.254,0,0,0,10.9-1.364,35.01,35.01,0,0,0,8.068-3.185l.477-.27c2.162-1.237,6.659-3.808,6.326-8.4a6.608,6.608,0,0,0-.128-.893,3.03,3.03,0,0,0-.753-1.467l-.014-.017-.014-.017-.014-.017-.014-.017-.014-.017-.015-.017-.014-.017-.015-.017c0-.005-.009-.012-.014-.017l-.014-.017-.014-.017-.014-.017-.014-.017-.014-.017-.014-.017-.014-.017-.014-.017-.014-.017-.014-.017-.011-.013a9.608,9.608,0,0,0,.909.452,4.9,4.9,0,0,0,1.357.492,5.018,5.018,0,0,0,1.005.1,5.839,5.839,0,0,0,3.4-1.17,10.921,10.921,0,0,0,2.386-2.415c.012.014.023.029.035.042l.014.017.014.017.014.017.014.017.014.017.014.017.014.017.014.017.014.017.014.017.014.017.014.017.015.018.014.017.014.017.014.017.014.017.014.017.014.017.015.017.014.017.014.017.014.017.014.017.014.017.014.017.014.017.014.017.014.017.014.017.014.016.014.018.014.017.014.017.014.017.014.017.014.017.014.017.014.017.014.017.014.017.014.017.014.017.014.017.014.017.014.017.014.017.014.017.014.017.014.017.014.017.015.018.014.017.014.017.014.017.014.017.014.017.014.017.015.017.014.017.014.017.014.017.014.017.014.017.014.017.014.017.014.017.014.017.014.017.014.017.014.018.015.017.014.017.014.017.014.017.014.017.014.017.014.017.014.017.014.017.014.017.014.017.014.017.014.017.014.017.014.017.014.017.014.017.014.017.014.017.015.018.014.017.014.017.014.017.015.018.014.017.014.017.014.017.014.017.014.017.014.017.014.017.014.017.014.017.015.018.014.017.014.017.014.017.014.017.015.018.014.017.014.017.014.017.014.017.014.017.015.017.014.017.014.017.014.017.014.017.014.017.014.017.014.017.014.017.014.017.014.017.014.017.014.017.014.017.014.018.014.017.014.017.014.017.015.018.014.017.014.017.014.017.014.017.015.017.014.017.014.017.014.017.014.017.015.018.014.017.014.017.014.017.014.017.014.017.015.017a6.091,6.091,0,0,0,4.409,2.213c1.385,0,2.744-.807,4.1-2.443l.014.017.015.018.014.017.014.017.015.018.014.017.014.017.014.017.014.016.014.018.015.017.014.017.014.017.014.017.015.018.014.017.014.017.015.018.014.016.015.017.014.018.014.017.014.017.014.017.014.017.014.017.014.017.014.017.014.016.014.018.015.017.014.017.014.017.014.017.014.017.014.017.015.017.014.017.014.017.015.017.014.018.014.017.014.017.015.018.014.017.014.017.014.017.014.016.014.018.015.017.014.017.014.017.014.017.015.018.014.017.014.017.015.017.014.017.015.017.014.018c2.1,2.422,5.235,4.014,7.732,4.014,7.894,0,12.7-3.857,13.543-10.862A6.878,6.878,0,0,0,281.56,175.022Zm-55.025-8.931.014.017.014.017.014.017.014.017.014.018.014.017.014.017.014.017.014.017.014.017.014.017.014.017.014.017.014.017.014.017.014.017.014.017.014.017.015.017.014.017.014.017.014.017.014.017.014.017.014.017.014.017.014.017.014.017.014.017.014.017.014.017.014.017.014.017.014.017.014.017.014.017.014.017.014.017.014.017.014.017.014.017.014.017.014.017.014.017.014.017.014.017.014.017.014.017.014.017.014.017.014.017.014.017.014.017.014.017.014.017.014.017.014.017.015.017.014.017.014.017.014.017.014.017.014.017.014.017.014.017.014.017.014.017.014.017.014.017.014.017.014.017.014.016a2.953,2.953,0,0,0,.671.57c-.267.975-.5,1.9-.7,2.782a13.925,13.925,0,0,1-2.661-4.308,1.629,1.629,0,0,1,.355-1.437,2.294,2.294,0,0,1,.174-.194c.019.022.035.044.054.065l.008.01.014.017.014.018.014.017.014.017.014.017.014.017.014.017.014.017.014.017.014.017.014.017.015.017.014.017.014.017.014.017.014.017.014.017.014.017.014.017.014.017.014.017.014.017.014.017.014.017.014.017.014.017.014.017.014.017.014.017.014.017.014.017.014.017.014.017.014.017.014.017.014.017.014.017.014.017.014.017.014.017.014.018.014.017.014.017.014.017.014.017.014.017.014.017.014.017.014.017.014.017.014.017.014.017.014.017.014.017.014.017.014.017.014.017.014.017.014.017.014.017.014.017.014.017.014.017.014.017.014.017.015.017.014.017.014.017.014.017.014.017.014.017.014.017.014.017.014.017ZM193.2,162.937a2.652,2.652,0,0,0,1.007.2h.354c-.012.027-.029.051-.039.078-.1.257-.216.566-.339.921a6.95,6.95,0,0,0-1.24-1.1C193.033,163.006,193.119,162.973,193.2,162.937Zm37.808,23.013a5.565,5.565,0,0,0,.955.586q-.858.433-1.917.9A9.747,9.747,0,0,0,231.011,185.95Zm-37.9-1.352.01.012.014.017.014.017.014.017.014.017.014.017.014.017.014.017.014.017.014.017.015.017.014.017.014.017.014.017.014.017.014.017.014.017a5.076,5.076,0,0,0,1.045.946,7.722,7.722,0,0,0,3.995,1.368,3.485,3.485,0,0,0,1.541-.336,2.915,2.915,0,0,0,1.154-1.01h0l.014.017.014.017.014.017.014.017.014.017.014.017.014.017.014.017.014.017.014.017.014.017.014.017.014.017.015.017.014.017.014.017.014.017.014.017.014.017.014.017.014.017.014.017.014.017.014.017.015.017.014.017.014.017.014.017.014.017.014.017.014.017.014.017.014.017.014.017.014.017.014.017.014.017.014.017.014.017.014.017.014.017.014.017.014.017.014.017.014.017.014.017.014.017.014.017.014.017.014.017.014.017.014.017.014.017.014.017.014.017.015.017.014.017.014.017.014.017a2.66,2.66,0,0,0,.29.29l.011.009a5.684,5.684,0,0,0,3.711,1.331,4.482,4.482,0,0,0,1.587-.27,3.2,3.2,0,0,0,1.3-.9c.234.252.465.482.678.681a16.7,16.7,0,0,0,2.487,1.914c-.643-.061-1.3-.132-1.984-.22a132.946,132.946,0,0,1-14.316-3.018c-.938-.231-1.831-.454-2.708-.673l-.129-.032-.041-.01-.339-.085C192.689,185.458,192.9,185.033,193.108,184.6Zm77.333-5.27a5.527,5.527,0,0,1-2.04,1.294,13.386,13.386,0,0,1,.253-1.326c.163.013.327.019.488.019a5.354,5.354,0,0,0,1.356-.168c.048-.012.1-.034.146-.049C270.575,179.173,270.512,179.256,270.441,179.327Zm-141.056-1.521.013.015.014.017.014.017.014.017.014.017.014.017.014.017.014.017.014.017.014.017.014.017.014.017.014.017.014.017.014.017.014.017.014.017.014.017.014.017.014.017.014.017.014.017.015.018.014.017.014.017.014.017.014.017.015.017.014.017.014.017.014.017.014.017.015.018.014.017.014.017.014.017.014.017.014.017.015.017.014.017.014.017.014.017.014.017.014.017.014.017.014.017.014.017.015.017.014.017.014.017.014.017.014.017.014.017.014.017.014.017.014.017.014.017.014.017.014.017.014.017.014.017.015.018.014.017.014.017.014.017.014.017.014.018.014.017.014.017.014.017.014.017.015.018.014.017.014.017.014.017.014.017.014.017.014.017a6.659,6.659,0,0,0,1.483,1.353c-.082,0-.16.011-.243.011a7.9,7.9,0,0,1-1.178-.09,3.581,3.581,0,0,1-.646-.162A12.148,12.148,0,0,1,129.384,177.806Zm83.43-13.578a16.176,16.176,0,0,0,3.716,6.355l.012.015.012.014.017.02.016.019.012.015.014.017.014.017.014.018.014.017.016.019.012.015.012.014.018.022.012.015.015.017.014.017.014.017.015.018.014.017.016.019.01.012.017.02.016.019.012.015.014.017.014.017.014.018.014.017.014.017.016.019.01.012.016.02.016.019.013.015.014.017.014.017.015.018.014.017.016.019.013.015.012.014.016.02.016.019.012.015.014.017.014.017.015.018.014.017.016.019.012.015.012.014.018.022.013.015.014.017.014.017.014.017.015.018.014.017.016.019.01.012.016.02.016.019.012.015.014.017.014.017.015.018.014.017.014.017.016.019.01.012.016.02.016.019.013.015.014.017.014.017.015.018.014.017.014.017.016.019.01.012.016.02.016.019.012.015.014.017.014.017.015.018.014.017.016.019.012.015.012.014.017.02.016.019.013.015.012.014.018.022.012.015.014.017.016.019.01.012.016.02.016.019.012.015.014.017.012.014.018.022.013.015.014.017.016.019.01.012.016.02.016.019.013.015.014.017.014.017.015.018.014.017.014.017.016.019.01.012.016.02.016.019.012.015.015.017.014.017.015.018.014.017.016.019.012.015.012.015.017.02,0,0a8.574,8.574,0,0,1,1.771,2.961,4.825,4.825,0,0,1-.41,3.756,3.4,3.4,0,0,0-.67-1.678l-.014-.017-.014-.017-.014-.017-.014-.017-.014-.017-.014-.017-.014-.017-.014-.017-.014-.017-.014-.017-.014-.017-.014-.017-.014-.017-.014-.017-.014-.017-.014-.017-.014-.017-.014-.017-.014-.017-.014-.017-.014-.017-.014-.017-.014-.017-.014-.017-.014-.017-.014-.017-.014-.017-.014-.017-.014-.017-.014-.017-.014-.017-.014-.018-.014-.017-.014-.017-.014-.017-.014-.017-.014-.017-.014-.017-.014-.017-.014-.017-.014-.017-.014-.017-.014-.017-.014-.017-.014-.017-.014-.017-.014-.017-.014-.017-.014-.017-.014-.017-.014-.017-.014-.018-.014-.017-.014-.017-.014-.017-.014-.017-.014-.017-.014-.017-.014-.017-.014-.017-.014-.017-.014-.017-.014-.017-.014-.017-.014-.017-.014-.017-.014-.017-.014-.017-.014-.017-.014-.017-.014-.018-.014-.017-.014-.017-.014-.017-.014-.017-.014-.017-.014-.017-.014-.017-.014-.017-.014-.017-.014-.017-.014-.017-.014-.017-.014-.017-.014-.017-.014-.017-.014-.017-.014-.017-.014-.017-.014-.017-.014-.018-.014-.017-.014-.017-.014-.017-.014-.017-.014-.017-.014-.017-.014-.017-.014-.017-.014-.017-.014-.017-.014-.017-.014-.017-.014-.017-.014-.017-.014-.017-.014-.017-.014-.017-.014-.017-.014-.017-.014-.017-.014-.017-.014-.017-.014-.017-.014-.017-.014-.017-.014-.017-.014-.017-.014-.017-.014-.017-.014-.017-.014-.017-.014-.017-.014-.017-.014-.017-.014-.017-.014-.017-.014-.017-.014-.017-.014-.018-.014-.017-.014-.017-.014-.017-.014-.017-.014-.017-.014-.017-.014-.017-.014-.017-.014-.017-.014-.017-.014-.017-.014-.017-.014-.017-.014-.017-.014-.017-.014-.017-.014-.017-.014-.017-.014-.017-.014-.017a3.521,3.521,0,0,0-1.461-1.139,4.19,4.19,0,0,0-1.653-.315c-.258,0-.5.018-.723.038-.538.048-1.089.1-1.645.188a37.47,37.47,0,0,1,1.772-4.448,2.663,2.663,0,0,0,.381-.985,3.327,3.327,0,0,0-.73-2.656l-.009-.01-.005-.007-.009-.01-.005-.007-.009-.01-.005-.007-.009-.01-.005-.007-.009-.01-.005-.007-.009-.01-.005-.007-.009-.01-.005-.007-.009-.01-.005-.008-.009-.01-.005-.007-.009-.01-.005-.007-.009-.01-.005-.007-.009-.01-.005-.007-.009-.01-.005-.007-.009-.01-.005-.007-.009-.01-.005-.007-.009-.01-.005-.007-.009-.01-.005-.007-.009-.01-.005-.007-.009-.01-.005-.007-.009-.01-.005-.007-.009-.01-.005-.007-.009-.01-.005-.007-.009-.01-.005-.007-.009-.01-.005-.007-.009-.01-.005-.007-.009-.01-.005-.007-.009-.01-.005-.007-.009-.01-.005-.007-.009-.01-.005-.007-.009-.01-.005-.007-.009-.01-.005-.007-.009-.01-.005-.007-.009-.01-.005-.007-.009-.01-.005-.007-.009-.01-.005-.007-.009-.01-.005-.007-.009-.01-.005-.007-.009-.01-.005-.007-.009-.01-.005-.007-.009-.01-.005-.007-.009-.01-.005-.007-.009-.01-.005-.007-.009-.01-.005-.007-.009-.01-.005-.007-.009-.01-.005-.007-.009-.01-.005-.007-.009-.01-.005-.008-.009-.01-.005-.007-.009-.01-.005-.007-.009-.01,0-.007-.009-.01-.005-.007-.009-.01-.005-.007-.009-.01-.005-.007-.009-.01-.005-.007-.009-.01-.005-.007-.009-.01,0-.007-.009-.01-.005-.007-.009-.01-.005-.007-.009-.01-.005-.007-.009-.01-.005-.007-.009-.01-.005-.007-.009-.01-.005-.007-.009-.01,0-.007-.009-.01-.005-.007-.009-.01-.005-.007-.009-.01-.005-.007-.009-.01-.005-.007-.009-.01-.005-.007-.009-.01,0-.007-.009-.01-.005-.007-.009-.01-.005-.008-.009-.01-.005-.007-.009-.01-.005-.007-.009-.01-.005-.007-.009-.01-.005-.007-.009-.01-.005-.007-.009-.01-.005-.007-.009-.01-.005-.007-.009-.01-.005-.007-.009-.01-.005-.007-.009-.01-.005-.007-.009-.01,0-.007-.009-.01-.005-.007-.009-.01-.005-.007-.009-.01-.005-.007-.009-.01-.005-.007-.009-.01-.005-.007-.009-.01-.005-.007-.009-.01,0-.007-.009-.01-.005-.007-.009-.01-.005-.008-.009-.01-.005-.007-.009-.01-.005-.007-.009-.01-.005-.007-.009-.01-.005-.007-.009-.01-.005-.007-.009-.01-.005-.007-.009-.01-.005-.007-.009-.01-.005-.007-.009-.01-.005-.007-.009-.01-.005-.007-.009-.01,0-.007-.009-.01-.005-.007-.009-.01-.005-.007-.009-.01-.005-.007-.009-.01-.005-.007-.009-.01-.005-.007-.009-.01,0-.007-.009-.01-.005-.007-.009-.01-.005-.008-.009-.01-.005-.007-.009-.01-.005-.007-.009-.01-.005-.007-.009-.01-.005-.007-.009-.01-.005-.007-.009-.01-.005-.007-.009-.01-.005-.007-.009-.01-.005-.007-.009-.01-.005-.007-.009-.01-.005-.007-.009-.01,0-.007-.009-.01-.005-.007-.009-.01-.005-.007-.009-.01-.005-.007-.009-.01-.005-.007-.009-.01-.005-.007-.009-.01-.005-.007-.009-.01-.005-.007-.009-.01-.005-.007-.009-.01-.005-.008-.009-.01-.005-.007-.009-.01-.005-.007-.009-.01-.005-.007-.009-.01-.005-.007-.009-.01-.005-.007-.009-.01-.005-.007-.009-.01-.005-.007-.009-.01-.005-.007-.009-.01-.005-.007-.009-.01-.005-.007-.009-.01-.005-.007-.009-.01-.005-.007-.009-.01-.005-.007-.009-.01-.005-.007-.009-.01-.005-.007-.009-.01-.005-.007-.009-.01-.005-.007-.009-.01-.005-.007-.009-.01-.005-.008-.009-.01-.005-.007-.009-.01-.005-.007a4.178,4.178,0,0,0-.356-.387c.072-.021.146-.038.217-.061a10.076,10.076,0,0,0,2.073-.987A7.276,7.276,0,0,0,212.814,164.229Z" transform="translate(-23.769)" fill="#3e3e3f"/>
    <g id="Group_398" data-name="Group 398" transform="translate(162.628 143.37)">
      <path id="Path_372" data-name="Path 372" d="M436.255,164.708l-1.341,5.454a2.134,2.134,0,0,0-.053.252q-.024.151-.035.272a.748.748,0,0,0,.186.614,1.029,1.029,0,0,0,.764.231,3.817,3.817,0,0,0,.506-.03q.224-.03.409-.07l-.132,1.449q-.205.04-.6.09a7.223,7.223,0,0,1-.9.05,2.494,2.494,0,0,1-1.629-.453,1.548,1.548,0,0,1-.455-1.419c.012-.134.032-.278.059-.433a3.265,3.265,0,0,1,.1-.413l1.394-5.594h-1.368l.373-1.449h1.348l.794-3.2,1.815-.262-.858,3.461h2.053l-.132,1.449Z" transform="translate(-432.96 -158.329)" fill="#fff"/>
      <path id="Path_373" data-name="Path 373" d="M468.3,159.888c-.01.108-.024.232-.044.372s-.041.259-.062.352l-1.736,6.923h-1.731l1.641-6.54c.021-.081.039-.171.055-.272s.028-.191.035-.272a1.425,1.425,0,0,0-.133-.865.808.808,0,0,0-.748-.3,2.828,2.828,0,0,0-1.458.654,10.954,10.954,0,0,0-1.859,1.741l-1.438,5.856H459.1l3.55-14.247,1.8-.282-1.7,6.7q.4-.382.832-.734a8.025,8.025,0,0,1,.882-.624,5.526,5.526,0,0,1,.9-.443,2.49,2.49,0,0,1,.891-.171,2.124,2.124,0,0,1,1.629.564A1.973,1.973,0,0,1,468.3,159.888Z" transform="translate(-453.445 -153.006)" fill="#fff"/>
      <path id="Path_374" data-name="Path 374" d="M508.6,180.468q-.029.2-.049.423a2.625,2.625,0,0,0,.384,1.861,1.9,1.9,0,0,0,1.621.654,4.031,4.031,0,0,0,1.639-.322,10.781,10.781,0,0,0,1.634-.925l-.147,1.61a7.571,7.571,0,0,1-1.7.835,5.855,5.855,0,0,1-1.846.272,3.418,3.418,0,0,1-2.588-.976,3.555,3.555,0,0,1-.762-2.908,8.128,8.128,0,0,1,.622-2.525,7.249,7.249,0,0,1,1.2-1.932,5.234,5.234,0,0,1,1.57-1.227,3.835,3.835,0,0,1,1.73-.433,2.74,2.74,0,0,1,2.3.976,3.742,3.742,0,0,1,.608,2.727q-.033.362-.111.775t-.166.714h-5.876Q508.629,180.267,508.6,180.468Zm4.492-1.711a3.6,3.6,0,0,0-.161-1.881,1.2,1.2,0,0,0-1.215-.694,2.225,2.225,0,0,0-1.5.674,4.77,4.77,0,0,0-1.189,1.9Z" transform="translate(-490.803 -170.145)" fill="#fff"/>
    </g>
    <g id="Group_400" data-name="Group 400" transform="translate(97.253 156.505)">
      <g id="Group_399" data-name="Group 399" transform="translate(0)">
        <path id="Path_375" data-name="Path 375" d="M271.987,262.12a.133.133,0,0,1,.11.088c.823,2.363,3.93,3.159,5.222,3.159a3.87,3.87,0,0,0,2.831-1.562,6.036,6.036,0,0,0,1.17-5.046,23.36,23.36,0,0,0-.958-2.786,23.1,23.1,0,0,1-.951-2.768c-.32-1.568.383-3.482,3.305-4.175a.255.255,0,0,0,.055-.239c-.11-.564-1.83-1.4-2.877-1.4a4.57,4.57,0,0,0-3.469,1.793,4.346,4.346,0,0,0-.966,3.637,11.719,11.719,0,0,0,1.211,2.981,10.928,10.928,0,0,1,1.179,2.936,4.6,4.6,0,0,1-.969,4.055,2.357,2.357,0,0,1-1.95.876,1.66,1.66,0,0,1-1.493-1.649,5.486,5.486,0,0,1,.3-2.426c.009-.025.018-.048.028-.071s.018-.042.025-.064l.012-.043.011-.039.092-.249a.266.266,0,0,0-.028-.036.133.133,0,0,1-.031-.061.292.292,0,0,0-.045-.107.377.377,0,0,0-.333-.133,1.074,1.074,0,0,0-.424.147,5.941,5.941,0,0,0-1.912,2.035,11.593,11.593,0,0,1-.946,1.259c-.791.871-1.872,1.861-3.14,1.8a1.694,1.694,0,0,1-1.48-1.413c-.324-1.173-.081-3.136.683-5.528a.133.133,0,0,1,.081-.084.131.131,0,0,1,.117.012,3.678,3.678,0,0,0,2.69.483c1.469-.373,4.488-3.954,4.39-7.063-.055-1.478-1.768-2.381-2.771-2.681a8.416,8.416,0,0,0-1.7-.3l-.186-.017c-.216-.02-.435-.04-.65-.04a2.1,2.1,0,0,0-.658.091,2.239,2.239,0,0,0-.531.26,5.5,5.5,0,0,0-1.175,1.112,16.514,16.514,0,0,0-2.339,3.966,21.97,21.97,0,0,0-1.567,5.045,10.165,10.165,0,0,0,.057,4.638,5.85,5.85,0,0,0,5.481,3.751,4.152,4.152,0,0,0,2.341-1.475h0a15.046,15.046,0,0,0,1.45-1.749c.208-.288.4-.575.585-.854A.132.132,0,0,1,271.987,262.12Zm-5.276-6.356c1.185-3.15,3.035-6.5,4.13-6.5a.742.742,0,0,1,.32.083.133.133,0,0,1,.064.059,1.147,1.147,0,0,1,.016.857c-.647,2.955-2.809,5.9-3.931,5.9a.587.587,0,0,1-.084-.006.833.833,0,0,1-.489-.256A.132.132,0,0,1,266.711,255.765Z" transform="translate(-233.37 -240.118)" fill="url(#linear-gradient)"/>
        <path id="Path_376" data-name="Path 376" d="M531.531,240.721a12.2,12.2,0,0,0,7.813,3.452c3.682,0,6.974-1.381,8.807-3.7a7.965,7.965,0,0,0,1.3-7.005c-.541-2.3-2.152-4.376-3.711-6.387-1.447-1.868-2.815-3.632-3.243-5.451a4.279,4.279,0,0,1,.859-3.7,5.627,5.627,0,0,1,4.4-2.048c1.653,0,2.61.5,2.842,1.489a2.24,2.24,0,0,1-.476,2.149c-.164.194-.412.487-.369.658.016.063.08.116.19.159a.789.789,0,0,0,.329.035,2.726,2.726,0,0,0,2.052-1.125,2.9,2.9,0,0,0,.466-2.45c-.437-1.713-4.033-3.2-7.41-3.047a8.942,8.942,0,0,0-6.686,3.095,4.65,4.65,0,0,0-.92,4.01c.5,2.121,2.18,4.1,3.805,6.014,1.594,1.877,3.1,3.65,3.541,5.525a7.251,7.251,0,0,1-1.165,6.378,8.813,8.813,0,0,1-6.939,3.039c-1.3,0-3.55-.257-3.955-1.976A3.23,3.23,0,0,1,534,237.2a6.427,6.427,0,0,1,1.508-1.256c.1-.063.2-.131.307-.2.138-.092.276-.184.416-.265a2.261,2.261,0,0,1,.376-.16,1.89,1.89,0,0,0,.345-.147l.042-.026a.7.7,0,0,0,.329-.659.809.809,0,0,0-.507-.654,2.317,2.317,0,0,0-1.115-.08,11.154,11.154,0,0,0-3.647.766c-1.31.591-2.61,1.789-2.329,3.378A5.345,5.345,0,0,0,531.531,240.721Z" transform="translate(-443.395 -213.747)" fill="url(#linear-gradient-2)"/>
        <path id="Path_377" data-name="Path 377" d="M464.386,265.566c.931.645,2.371,1.064,2.855.828a.245.245,0,0,0,.153-.224.008.008,0,0,0,0,0l.036-.428c1.184-5.926,3.181-10.525,6.1-14.073.35-.424.64-.575.859-.452.363.2.261,1.048,0,1.792-1.6,4.379-3.258,10.312-2.685,12.626A3.544,3.544,0,0,0,472.4,267a.135.135,0,0,1,.024.048l.04.034a3.019,3.019,0,0,0,2.606.574c.194-.073.286-.173.276-.3l-.013-.135a18.367,18.367,0,0,1,.317-5.619,48.521,48.521,0,0,1,3.82-11.512.724.724,0,0,0-.187-.548,3.278,3.278,0,0,0-2.454-.939c-2.551,0-4.982,2.1-6.844,5.9a.133.133,0,0,1-.246-.1l1.428-4.3a.129.129,0,0,1,.02-.038c.048-.129-.424-.785-1.553-1.258a2.261,2.261,0,0,0-2-.1c-.293.733-.7,1.975-1.235,3.793-.837,3.171-2.352,9.3-2.716,12.162C463.658,264.908,463.915,265.239,464.386,265.566Z" transform="translate(-391.662 -241.008)" fill="url(#linear-gradient-3)"/>
        <path id="Path_378" data-name="Path 378" d="M373.432,268.976h0c-.025-.118-.064-.191-.108-.2s-.114.033-.178.109c-1.14,1.375-3.126,2.635-6.439,4.087a33.294,33.294,0,0,1-6.89,2.181,43.117,43.117,0,0,1-7.224.731,49.766,49.766,0,0,1-7.315-.455,135.006,135.006,0,0,1-14.62-3.075c-.978-.241-1.915-.475-2.837-.705-2.308-.577-4.488-1.122-6.976-1.686a.133.133,0,0,1-.078-.208,38.3,38.3,0,0,0,4.988-9.626c.515-1.426,1.661-5.061,1.834-5.88.021-.1.046-.2.069-.293.028-.114.054-.216.064-.284.1-.722-1.47-1.213-2.848-1.415-.824-.124-.921.4-.925.423l-.4,1.168a24.011,24.011,0,0,1-3.526,6.136.6.6,0,0,1-.53.207.517.517,0,0,1-.373-.325,2.318,2.318,0,0,1-.115-.661l-.006-.076c-.2-3.267,2.294-7.952,4.1-9.745a2.015,2.015,0,0,1,.877-.462.71.71,0,0,1,.678.128.873.873,0,0,1,.224.38.637.637,0,0,0,.211.35,1.564,1.564,0,0,0,.4.177,12.394,12.394,0,0,0,1.653.444,2.3,2.3,0,0,1,.319.09c.307.1.49.151.675-.072a.745.745,0,0,0,.128-.616,1.573,1.573,0,0,0-.311-.63,4.411,4.411,0,0,0-1.477-1.21,12.969,12.969,0,0,0-2.36-.954,5.558,5.558,0,0,0-3.151-.086,6.193,6.193,0,0,0-2.858,2.658,15.58,15.58,0,0,0-1.234,2.266.2.2,0,0,1-.018.03l-.042.1c-.019.042-.038.084-.056.127l-.248.556c-1.258,2.829-3.6,8.1-5.088,9.466-.267.246-.5.325-.692.233a.678.678,0,0,1-.287-.659,37.57,37.57,0,0,1,3.395-13.018c.038-.145-.437-.8-1.542-1.279a2.14,2.14,0,0,0-1.9-.138c-1.2,2.719-3.9,11.384-2.962,15.159a2.932,2.932,0,0,0,2.839,2.392c.966,0,2.607-1.21,4.944-6.976a.133.133,0,0,1,.256.051,9.762,9.762,0,0,0,.266,2.4,3.609,3.609,0,0,0,1.614,2.326,1.972,1.972,0,0,0,1.455.285c1.707-.492,3.054-3.322,3.067-3.35a.133.133,0,0,1,.251.079,13.086,13.086,0,0,1-.663,2.387,33.2,33.2,0,0,1-3.928,7.166.132.132,0,0,1-.134.049c-.012,0-1.2-.264-1.673-.356-.385-.074-.814-.163-1.285-.261a61.376,61.376,0,0,0-10.2-1.408c-.648-.027-1.247-.04-1.8-.04-4.07,0-5.693.675-6.617,1.06a7.035,7.035,0,0,0-3.152,2.262,5.906,5.906,0,0,0-1.271,4.015,5.635,5.635,0,0,0,1.071,2.951,7.34,7.34,0,0,0,4.736,2.4c4.724.827,9.91-.268,15.419-3.257a23.859,23.859,0,0,0,5.3-3.712.131.131,0,0,1,.134-.031c.073.023,7.343,2.355,11.512,3.487a97.2,97.2,0,0,0,15.2,3.221A42.731,42.731,0,0,0,360.6,278.6a32.372,32.372,0,0,0,7.452-2.934l.461-.261c2.7-1.546,5.178-3.33,4.992-5.9A3.92,3.92,0,0,0,373.432,268.976Zm-58.772,3.212a18.01,18.01,0,0,1-11.461,4.583q-.464.027-.9.027c-2.992,0-4.9-.951-5.681-2.834-.452-1.09.392-2.423,1.1-2.981,1.17-.915,2.671-1.064,6.3-1.025a46.715,46.715,0,0,1,10.594,2,.133.133,0,0,1,.042.229Z" transform="translate(-256.635 -239.599)" fill="url(#linear-gradient-4)"/>
        <path id="Path_379" data-name="Path 379" d="M678.343,236.257a4.4,4.4,0,0,0-1.474-1.021c.007,3.852-.976,6.8-2.924,8.75a8.324,8.324,0,0,1-5.654,2.416c-2.107,0-2.712-1.458-3.025-2.883a12.077,12.077,0,0,1,.606-5.886.229.229,0,0,1,.025-.1,1.343,1.343,0,0,1,.107-.323c.345-.823,1-.649,1.521-.509a3.472,3.472,0,0,0,1.765.071c1.425-.361,4.446-3.78,4.586-6.894a3.471,3.471,0,0,0-.914-1.53,5.541,5.541,0,0,0-3.986-1.75h-.28a1.728,1.728,0,0,0-.5.082c-.068.018-.14.037-.223.057-.923.194-2.158,1.488-3.3,3.463a23.337,23.337,0,0,0-1.942,4.256c-2.326,4.942-4.047,7.845-5.12,8.645-.3.22-.546.281-.727.183a.625.625,0,0,1-.241-.618c.064-1.352,1.562-5.075,2.884-8.36.807-2,1.569-3.9,1.811-4.8a1.781,1.781,0,0,0-.9-2.11,10.024,10.024,0,0,0-2.761-1.051c-.313-.081-.617-.187-.72-.413a.4.4,0,0,1,.018-.36,10.74,10.74,0,0,0,.564-1.121c.2-.494.143-.634.109-.671a7.7,7.7,0,0,0-1.806-1.227.2.2,0,0,0-.162.02,1.265,1.265,0,0,0-.449.77c-.056.205-.26.942-.54,1.871-.193.642-.377,1.23-.549,1.748-.177.407-.321.815-.462,1.21-.127.358-.247.7-.385,1.022,0,0-.017.038-.019.04-.013.026-.023.05-.033.074l-.028.062a3.662,3.662,0,0,1-.881,1.288.386.386,0,0,1-.379.04c-.352-.164-.51-.9-.643-1.646-.026-.147-.047-.264-.064-.325-.3-1.019-1.734-1.807-2.936-2.109a6.7,6.7,0,0,0-2.011-.176l-.114.006a3.532,3.532,0,0,0-1.593.328,6.161,6.161,0,0,0-1.394,1.236,15.556,15.556,0,0,0-2.446,4.174c-1.218,2.57-4.229,8.328-5.785,9.761-.267.245-.5.323-.692.234a.68.68,0,0,1-.288-.659,45.075,45.075,0,0,1,3-12.722l.016-.042c.271-.708.454-1.042,1.574-.934a5.628,5.628,0,0,1,2.469.643c.066,0,.129-.031.143-.17.048-.472-.666-1.809-2.555-2.025a.54.54,0,0,1-.467-.165.346.346,0,0,1,0-.339c.489-1.2,1.039-2.377,1.515-3.389.039-.147-.436-.806-1.54-1.282a2.13,2.13,0,0,0-1.9-.136,37.235,37.235,0,0,0-2.01,4.69c-.269.675-.524.762-1.043.8-.154.011-.3.032-.45.052a4.277,4.277,0,0,1-.76.059.6.6,0,0,0-.389.088.427.427,0,0,0-.134.42.793.793,0,0,0,.285.43,1.271,1.271,0,0,0,.8.368.652.652,0,0,1,.612.2.859.859,0,0,1-.007.826c-1.122,3.693-2.9,10.351-2.157,13.35a2.932,2.932,0,0,0,2.839,2.392c1.4,0,3.348-2.424,5.207-6.485a.135.135,0,0,1,.152-.074.133.133,0,0,1,.1.135,8.6,8.6,0,0,0,.3,2.78,6.13,6.13,0,0,0,3.52,3.369,2.213,2.213,0,0,0,.725.279,2.967,2.967,0,0,0,2.317-.636c2.355-1.666,4.683-6.376,5.3-10.723a.132.132,0,0,1,.07-.1c1.7-.891,3.151-3.335,4.348-5.608.2-.334.4-.486.616-.463.281.027.519.338.748.979a2.948,2.948,0,0,1-.094,2.012c-.314.892-.758,1.958-1.227,3.086-1.388,3.335-3.116,7.485-2.55,9.769a3.97,3.97,0,0,0,3.3,2.962c.954,0,2.739-1.65,4.888-6.283a.133.133,0,0,1,.12-.077.126.126,0,0,1,.03,0,.133.133,0,0,1,.1.131,12.223,12.223,0,0,0,.287,2.871c.728,3.15,4.667,5.952,7.264,5.952,6.557,0,10.225-2.866,10.9-8.519C680.441,238.365,678.839,236.721,678.343,236.257Zm-11.168-2.005.13-.353a31.664,31.664,0,0,1,2.118-3.874c.689-1,1.246-1.485,1.705-1.485a.734.734,0,0,1,.319.082.137.137,0,0,1,.065.061,1.139,1.139,0,0,1,0,.858c-.7,2.981-2.891,5.89-4.021,5.89a.431.431,0,0,1-.4-.2C666.9,234.9,667.135,234.342,667.175,234.252Zm-18.429-3.57h0c-.021.176-.049.355-.082.538-.051.285-.1.57-.149.853a25.826,25.826,0,0,1-2.637,8.28,9.389,9.389,0,0,1-1.061,1.687c-.215.259-.576.694-1.028.694-.4,0-.679-.309-.83-.92-.612-2.472,2.385-10.627,4.129-12.854.333-.426.615-.633.86-.633a.69.69,0,0,1,.715.6A4.668,4.668,0,0,1,648.746,230.682Z" transform="translate(-522.644 -219.287)" fill="url(#linear-gradient-5)"/>
        <path id="Path_380" data-name="Path 380" d="M142.171,214.174q-.421-.026-.845-.034l-.208-.017a3.647,3.647,0,0,0-1.3.043,5.991,5.991,0,0,0-1.557.711c-1.486.976-1.55,1.35-1.509,1.465.172.478,2.568.218,3.855.077l.563-.06.063.129-.015-.132a8.56,8.56,0,0,1,.956-.056,13.349,13.349,0,0,1,4.345.743.133.133,0,0,1,.073.189,87.137,87.137,0,0,0-6.7,14.954,5.449,5.449,0,0,0,4.544,2c.091-.36.192-.8.309-1.3a56.732,56.732,0,0,1,4.9-13.977.133.133,0,0,1,.2-.041,7.467,7.467,0,0,1,2.609,4.02c.961,3.885,1.508,8.428-1.729,12.66-1.373,1.794-5.184,5.873-10.933,5-3.83-.581-5.764-4.143-5.749-10.587a4.411,4.411,0,0,0-1.475,1.021c-.5.465-2.1,2.108-1.9,3.746.633,5.281,3.884,8.134,9.663,8.48a3.893,3.893,0,0,0,.7.034l.144,0,.168,0a4.105,4.105,0,0,0,.857-.054,17.063,17.063,0,0,0,12.606-6.85,13.571,13.571,0,0,0,2.395-11.145C155.742,219.259,149.417,214.625,142.171,214.174Z" transform="translate(-130.658 -214.014)" fill="url(#linear-gradient-6)"/>
      </g>
      <path id="Path_381" data-name="Path 381" d="M387.918,225.4c.017-.048.033-.1.048-.146a.447.447,0,0,0-.028-.42.467.467,0,0,0-.182-.109c-.477-.195-.916-.439-1.388-.642a2.14,2.14,0,0,0-1.9-.138c-.064.037-.128.3-.157.368q-.1.246-.2.495c-.116.3-.514.923-.256,1.227a.987.987,0,0,0,.465.254,6.688,6.688,0,0,0,2.132.522,1.635,1.635,0,0,0,.63-.1,1.026,1.026,0,0,0,.473-.562A5.969,5.969,0,0,0,387.918,225.4Z" transform="translate(-329.035 -221.622)" fill="url(#linear-gradient-7)"/>
    </g>
  </g>
</svg>
