<svg xmlns="http://www.w3.org/2000/svg" xmlns:xlink="http://www.w3.org/1999/xlink" width="200" height="40.129" viewBox="0 0 200 40.129">
  <defs>
    <linearGradient id="linear-gradient" x1="0.5" y1="-0.217" x2="0.5" y2="5.826" gradientUnits="objectBoundingBox">
      <stop offset="0" stop-color="#25cede"/>
      <stop offset="0.325" stop-color="#21cadf"/>
      <stop offset="0.622" stop-color="#17bfe3"/>
      <stop offset="0.907" stop-color="#07acea"/>
      <stop offset="1" stop-color="#00a5ee"/>
    </linearGradient>
    <linearGradient id="linear-gradient-2" x1="0.5" y1="-0.09" x2="0.5" y2="0.837" xlink:href="#linear-gradient"/>
    <linearGradient id="linear-gradient-3" x1="0.5" y1="0.032" x2="0.5" y2="0.863" xlink:href="#linear-gradient"/>
  </defs>
  <g id="Group_658" data-name="Group 658" transform="translate(-4862.5 21398.834)">
    <g id="Group_428" data-name="Group 428" transform="translate(4862.5 -21398.834)">
      <path id="Path_417" data-name="Path 417" d="M351.832,32.692a3.411,3.411,0,0,0,2.384-3.345,2.115,2.115,0,0,0-.833-1.663,1.959,1.959,0,0,0-1.173-.377,2.362,2.362,0,0,0-.607.082,3.441,3.441,0,0,0-2.384,3.35,2.191,2.191,0,0,0,.878,1.677A2.031,2.031,0,0,0,351.832,32.692Z" transform="translate(-312.51 -24.833)" fill="url(#linear-gradient)"/>
      <path id="Path_418" data-name="Path 418" d="M808.411,62.557c-.674-.358-1.013-.366-1.059-.33.459,11.969-7.491,16.71-9.484,17.244a3.961,3.961,0,0,1-5.026-3c-.448-1.667-.3-4.071.434-7.147a.262.262,0,0,1,.022-.116,1.887,1.887,0,0,1,.108-.418c.332-1.02,1.019-1.009,1.624-1a3.924,3.924,0,0,0,1.985-.448c1.588-.86,4.846-5.851,4.874-9.608a3.191,3.191,0,0,0-1.176-1.625,4.99,4.99,0,0,0-4.424-.8l-.314.083a2.269,2.269,0,0,0-.56.249c-.074.041-.155.086-.247.134-1.038.514-2.375,2.433-3.58,5.133-.261.587-.519,1.213-.789,1.914a58.055,58.055,0,0,1-4.641,8.7c-.3.38-.547.528-.769.448-.239-.086-.316-.411-.308-.686.053-3.8,1.327-10.125,3.406-16.925.12-.422.274-.851.42-1.255a.43.43,0,0,1,.314-.273,44.559,44.559,0,0,1,8.232-1.095h.034a33.1,33.1,0,0,1,6.207.516c.891.171,1.862.395,2.886.665.132.035.259.073.384.109a2.687,2.687,0,0,0,1.711.117,5.934,5.934,0,0,0,1.808-1.121c.188-.15.377-.33.351-.522-.022-.168-.2-.3-.547-.41l-.675-.218a26.528,26.528,0,0,0-5.511-1.357,33.219,33.219,0,0,0-6.742.032c-1.336.13-5.772,1.109-7.1,1.406a.419.419,0,0,1-.4-.126.424.424,0,0,1-.092-.418l.167-.529c.27-.769.551-1.467.822-2.142l.137-.34a.192.192,0,0,0-.028-.156,2.5,2.5,0,0,0-1.707-.93,2.444,2.444,0,0,0-2.149.418.152.152,0,0,0-.035.047,40.527,40.527,0,0,0-1.743,4.927,2.4,2.4,0,0,0-.11.365.426.426,0,0,1-.3.319c-1.358.366-2.751.773-4.062,1.158a.425.425,0,0,1-.523-.544l.194-.572,1-2.5a.214.214,0,0,0-.031-.175,2.991,2.991,0,0,0-3.812-.5.13.13,0,0,0-.034.045,44,44,0,0,0-1.824,4.951c-.022.065-.037.122-.052.178a1.222,1.222,0,0,1-.183.433,1.282,1.282,0,0,1-.854.429,3.136,3.136,0,0,1-.991.052.8.8,0,0,0-.709.288.664.664,0,0,0-.114.637,1.127,1.127,0,0,0,.389.561,1.153,1.153,0,0,0,1.051.142.41.41,0,0,1,.4.124.433.433,0,0,1,.1.424c-.032.1-.067.2-.1.3-.049.144-.1.293-.15.461l-.05.188a2.2,2.2,0,0,0-.119.262l-.032.08c-3.871,9.713-7.2,14.931-9.894,15.51-.77.165-1.389-.291-1.694-1.248a10.235,10.235,0,0,1,.166-4.84c.207-1.012.685-1.017,1.2-.935a3.835,3.835,0,0,0,2.271-.446c1.753-.95,4.8-6.052,4.83-9.6a4.827,4.827,0,0,0-4.04-2.51,4.231,4.231,0,0,0-2.636.539c-1.509.866-3.493,4.309-4.824,8.374l-.063.165c-.233.613-.466,1.227-.7,1.838-.4,1.028-.775,1.963-1.143,2.86-.419,1.016-.778,1.858-1.132,2.649-.271.6-.634,1.4-1.039,2.169a9.138,9.138,0,0,1-.87,1.429c-.3.381-.55.527-.77.448-.239-.087-.315-.424-.307-.686.219-8.167,4.229-19.014,4.269-19.122a.192.192,0,0,0-.027-.159,3.06,3.06,0,0,0-3.836-.529.161.161,0,0,0-.05.072c-.258.738-.6,1.886-1.024,3.311-.167.465-.342.958-.531,1.488-1.276,3.584-3.2,9-5.3,12.171-.147.16-.273.213-.389.176-.133-.043-.213-.194-.246-.462-.177-3.775,2.279-11.528,3.634-14.842a.189.189,0,0,0-.024-.185,2.339,2.339,0,0,0-1.507-.521,3.231,3.231,0,0,0-2.416.891.207.207,0,0,0-.024.048c-2.2,6-4.269,12.206-3.247,16.486a2.971,2.971,0,0,0,1.624,2.251,2.021,2.021,0,0,0,1.715-.029l.012-.02a.125.125,0,0,1,.159-.052c1.191-.707,2.449-3.178,3.952-7.761.064-.116.221-.4.437-.32.172.066.193.331.167.459-.069.436-.143.88-.216,1.324-.456,2.775-.928,5.645-.521,7.168a2.856,2.856,0,0,0,1.4,1.933,2.624,2.624,0,0,0,2.2-.044c.94-.4,2.256-2.467,3.7-5.833a.423.423,0,0,1,.811.12,8.258,8.258,0,0,0,.313,1.549,4.693,4.693,0,0,0,2.328,2.775,4.069,4.069,0,0,0,3.222.173c1.58-.565,4.475-3.569,7.1-8.828a.425.425,0,0,1,.8.265c-.79,4.28-1,7.231-.627,8.772a2.7,2.7,0,0,0,1.2,1.779,2.557,2.557,0,0,0,1.977.22c1.179-.316,3.367-3.126,5.973-10.064a.425.425,0,0,1,.823.175,12.294,12.294,0,0,0,.213,3.752,2.75,2.75,0,0,0,1.343,1.834,2.622,2.622,0,0,0,1.873.158c.872-.234,1.959-1.324,3.06-3.07a.419.419,0,0,1,.356-.2.434.434,0,0,1,.126.019.424.424,0,0,1,.3.418,14.875,14.875,0,0,0,.443,4.1c.433,1.614,1.984,3.181,4.256,4.3a9.012,9.012,0,0,0,5.616,1.063,16.3,16.3,0,0,0,12.3-14.883C811.527,64.785,809.584,63.179,808.411,62.557Zm-13.823,2.381.132-.459a50.039,50.039,0,0,1,2.2-5.211c.717-1.369,1.305-2.1,1.8-2.231a.728.728,0,0,1,.358,0,.126.126,0,0,1,.082.059,1.4,1.4,0,0,1,.039.993c-.64,3.649-2.978,7.8-4.2,8.13a.588.588,0,0,1-.155.022.353.353,0,0,1-.276-.118C794.294,65.816,794.555,65.034,794.588,64.938Zm-30.819-.1c1.176-3.772,3.075-7.954,4.281-8.278a.335.335,0,0,1,.329.067c.241.215.179.795.153.967-.584,3.649-3.057,7.986-4.293,8.174a.53.53,0,0,1-.067,0,.421.421,0,0,1-.339-.17A.8.8,0,0,1,763.769,64.834Zm20.612-10.122-.293,1.005c-.466,1.773-.859,3.362-1.2,4.855a.361.361,0,0,1-.017.056c-1.228,3.234-5.146,12.808-6.9,15.028-.244.31-.462.467-.651.467a.323.323,0,0,1-.126-.025c-.224-.093-.293-.416-.261-.7.148-4.5,2.155-12.881,3.969-18.478l.464-1.278a.428.428,0,0,1,.284-.263l4.2-1.2a.425.425,0,0,1,.525.528Z" transform="translate(-663.811 -41.743)" fill="url(#linear-gradient-2)"/>
      <path id="Path_419" data-name="Path 419" d="M81.48,20.675a.18.18,0,0,0-.035.134c.663,5.164-3.065,16.357-5.111,16.905-.309.084-.725,0-.956-.854-.819-3.056,2.856-16.649,5.99-17.844a3.733,3.733,0,0,1,2.525-.236c.064.016.268.057.3-.028.076-.238-.448-1.013-.985-1.229a5.315,5.315,0,0,0-3.826-.1c-2.751.738-5.638,4.84-7.183,10.211-.316.872-.726,1.989-1.164,3.117-.413,1.063-.912,2.317-1.486,3.566l-.05.109a10.781,10.781,0,0,1-1.218,2.187c-.3.381-.551.527-.77.448-.239-.087-.315-.423-.307-.685.219-8.167,4.111-18.982,4.15-19.09a.741.741,0,0,0-.267-.67,3.013,3.013,0,0,0-2.706-.331c-2.222.6-4.982,4.7-7.572,11.267l-.077.192c-.15.262-.293.362-.437.313s-.208-.233-.179-.473a.515.515,0,0,1,.011-.155A118.707,118.707,0,0,1,66.164,8.1a.2.2,0,0,0-.028-.156,2.5,2.5,0,0,0-1.706-.929,2.468,2.468,0,0,0-2.134.4.173.173,0,0,0-.049.069,122.024,122.024,0,0,0-4.8,15s-.009.033-.011.036l-.068.191c-1.382,3.847-4.617,12.854-6.259,14.945-.3.381-.55.527-.769.448-.239-.087-.315-.423-.307-.685-.14-8.94,4.028-22.358,6.889-28.611a.2.2,0,0,0-.03-.151,2.5,2.5,0,0,0-1.707-.93,2.435,2.435,0,0,0-2.148.418A.143.143,0,0,0,53,8.2a101.68,101.68,0,0,0-4.215,13.52.228.228,0,0,1-.011.03C47.747,24.6,44.4,33.234,42.563,35.575c-.3.38-.548.528-.77.448-.239-.087-.315-.41-.307-.685a55.872,55.872,0,0,1,3.486-16.486.194.194,0,0,0-.028-.157,3.059,3.059,0,0,0-3.836-.528.155.155,0,0,0-.049.071c-.363,1.023-.815,2.551-1.242,4.194a.423.423,0,0,1-.386.318c-1.682.094-3.392.256-5.083.482a.136.136,0,0,1-.1-.028l-.047-.04c-.024-.021-.048-.042-.074-.062a11.816,11.816,0,0,0-4.083-1.8l-.973-.277q-1.935-.551-3.871-1.109c-1.2-.348-3.214-.93-3.205-2.676C22.015,14,27.49,9.816,33.486,8.468c.106-.024.226-.052.356-.083,1.23-.292,3.288-.78,4,.153.46.6.276,1.644-.563,3.184-.2.334-.157.423-.156.424.086.074.66-.171.928-.468,1.7-1.891,2.327-4.1,1.6-5.637-.565-1.186-1.878-1.827-3.72-1.827-.138,0-.28,0-.424.011A25.2,25.2,0,0,0,23.788,8.134c-3.652,2.336-5.725,5.077-5.687,7.519a4.917,4.917,0,0,0,2.464,3.812,15.349,15.349,0,0,0,2.447,1.314c1.09.483,2.229.906,3.33,1.314l.412.153c.172.064.346.125.52.187a13.162,13.162,0,0,1,1.236.482,6.386,6.386,0,0,1,.755.427c.166.107.527.3.385.547a.344.344,0,0,1-.139.121,2.737,2.737,0,0,1-.5.156c-.169.056-.338.1-.512.139q-.582.139-1.16.29-1.145.3-2.275.651-2.216.688-4.362,1.579-2.093.872-4.1,1.943-1.435.77-2.811,1.644C8.511,33.43,6.361,36.429,6.6,37.94a6.085,6.085,0,0,0,2.94,4.216,14.278,14.278,0,0,0,10.535,1.37,25.063,25.063,0,0,0,6.6-3.027A22.429,22.429,0,0,0,34.46,32.81a11.012,11.012,0,0,0,1.49-4.672,7.009,7.009,0,0,0-.42-3.221.444.444,0,0,1,.022-.39.412.412,0,0,1,.3-.205c.977-.129,1.986-.23,3-.3a.412.412,0,0,1,.354.149.419.419,0,0,1,.09.371c-.639,2.756-2.036,9.505-1.2,12.635a2.506,2.506,0,0,0,3.215,1.991c1.288-.346,2.876-2.65,4.471-6.487a.424.424,0,0,1,.814.21,18.6,18.6,0,0,0,.045,6.379,2.507,2.507,0,0,0,3.215,1.991c1.152-.309,2.663-2.613,4.256-6.487a.425.425,0,0,1,.813.22c-.159,1.152-.284,2.24-.369,3.232a1.294,1.294,0,0,0,.644,1.184,3.491,3.491,0,0,0,2.983.36.573.573,0,0,0,.372-.483c.558-4.2,3.233-13.166,6.611-18.406.448-.695.633-.79.785-.722.13.059.327.148-.246,2.148-1.43,4.835-3.014,13.013-2.268,15.8a3.093,3.093,0,0,0,1.682,2.13,2.593,2.593,0,0,0,2.331-.22c.9-.508,1.922-2.07,3.044-4.645a.424.424,0,0,1,.81.128,12.777,12.777,0,0,0,.227,1.477.345.345,0,0,0,.011.039,4.967,4.967,0,0,0,3.986,2.925,1.969,1.969,0,0,0,.816.115c3.924-.2,8.217-10.108,8.436-17.085a2.174,2.174,0,0,0-.76-1.59,3.06,3.06,0,0,0-2.442-.76A.15.15,0,0,0,81.48,20.675ZM30.924,28.9a10.622,10.622,0,0,1-2.076,4.453,22.637,22.637,0,0,1-9.49,6.939c-.494.2-1.314.47-1.79.6a15.87,15.87,0,0,1-4.081.709,3.926,3.926,0,0,1-2.02-.455,2.636,2.636,0,0,1-1.223-1.768h0c-.354-1.566,1.114-4.473,5.2-7.437a51.766,51.766,0,0,1,7.256-3.934A58.2,58.2,0,0,1,30.3,25.4a.423.423,0,0,1,.519.293A7.345,7.345,0,0,1,30.924,28.9Z" transform="translate(-6.581 -4.214)" fill="url(#linear-gradient-3)"/>
    </g>
    <g id="Group_429" data-name="Group 429" transform="translate(5011.974 -21390.113)">
      <path id="Path_420" data-name="Path 420" d="M1539.852,93.629a16.7,16.7,0,0,0-5.823-1.035h0a8.636,8.636,0,0,0-2.953.411c-2.809,1.135-5.982,4.225-8.083,7.873a18.869,18.869,0,0,0-2.29,6.074,12.509,12.509,0,0,0,.374,6.246v.007c.562,1.726,2.385,2.752,3.816,3.308a16.853,16.853,0,0,0,5.794,1.051,6.8,6.8,0,0,0,2.2-.276,16.014,16.014,0,0,0,5.816-4.062,19.484,19.484,0,0,0,3.606-5.7c1.594-3.813,2.048-8.057,1.156-10.814C1542.93,95.117,1541.2,94.155,1539.852,93.629Zm-4.29,12.637c-2.06,4.882-4.289,6.1-4.923,6.353a2.562,2.562,0,0,1-.962.2,2.3,2.3,0,0,1-2.205-1.783l0-.006,0-.006c-.7-2.166-.194-5.233,1.382-8.414,1.142-2.306,3.044-4.935,4.718-5.611a3.218,3.218,0,0,1,1.208-.266,2.2,2.2,0,0,1,2.082,1.609l.012.029.009.03C1537.508,100.41,1536.611,103.781,1535.563,106.265Z" transform="translate(-1507.763 -91.848)" fill="#cbccce"/>
      <path id="Path_421" data-name="Path 421" d="M1770.524,85.631c-2.17,0-4.227.6-4.89,1.416,0,0-4.831,4.151-5.4,5.309a4.519,4.519,0,0,0,.488,2.77c.047.1.1.2.143.287a.962.962,0,0,0,1.623.142c.451-.595,1-1.275,1.663-2.05l-.033.131-.581,2.931a105.383,105.383,0,0,0-1.883,13.341.589.589,0,0,0,.183.456,4.415,4.415,0,0,0,2.891.744c1.344,0,3.051-.338,3.583-.9a.258.258,0,0,0,.073-.109,75.119,75.119,0,0,1,1.233-10.783,111.916,111.916,0,0,1,2.647-12.41.956.956,0,0,0-.821-1.226,9.183,9.183,0,0,0-.922-.044Z" transform="translate(-1721.782 -85.631)" fill="#cbccce"/>
      <path id="Path_422" data-name="Path 422" d="M1412.151,85.631c-2.17,0-4.227.6-4.89,1.416,0,0-4.831,4.151-5.4,5.309a4.52,4.52,0,0,0,.488,2.77q.07.15.143.287a.962.962,0,0,0,1.623.142c.451-.595,1-1.275,1.663-2.05l-.033.131-.581,2.931a105.4,105.4,0,0,0-1.883,13.341.588.588,0,0,0,.183.456,4.416,4.416,0,0,0,2.891.744c1.343,0,3.051-.338,3.583-.9a.256.256,0,0,0,.073-.109,75.155,75.155,0,0,1,1.233-10.783,111.912,111.912,0,0,1,2.647-12.41.956.956,0,0,0-.821-1.226,9.181,9.181,0,0,0-.922-.044Z" transform="translate(-1401.803 -85.631)" fill="#cbccce"/>
    </g>
  </g>
</svg>
